<svg xmlns="http://www.w3.org/2000/svg" width="20" height="20" viewBox="0 0 20 20" fill="none">
  <path d="M2.5 14.661C2.5 12.162 4.58333 10.4167 8.33333 10.4167C12.0833 10.4167 14.1667 12.162 14.1667 14.661V18.3333H2.5V14.661Z" fill="#B6C2CD"/>
  <path d="M11.25 4.6355C11.25 2.99585 9.94421 1.66667 8.33346 1.66667C8.22646 1.66667 8.1195 1.67266 8.01313 1.68462C6.41213 1.86471 5.25767 3.33184 5.43459 4.96154L5.6228 6.6955C5.7755 8.10212 6.94321 9.16667 8.33346 9.16667C9.72371 9.16667 10.8915 8.10212 11.0441 6.6955L11.2324 4.96154C11.2441 4.85329 11.25 4.74442 11.25 4.6355Z" fill="#324558"/>
  <path d="M19.1667 4.16667H13.3333V5.83333H19.1667V4.16667Z" fill="#324558"/>
  <path d="M14.1667 9.16667H19.1667V10.8333H14.1667V9.16667Z" fill="#324558"/>
  <path d="M19.1667 14.1667H15.8333V15.8333H19.1667V14.1667Z" fill="#324558"/>
</svg>