<?xml version="1.0" standalone="no"?><!DOCTYPE svg PUBLIC "-//W3C//DTD SVG 1.1//EN" "http://www.w3.org/Graphics/SVG/1.1/DTD/svg11.dtd"><svg t="1710209418247" class="icon" viewBox="0 0 1024 1024" version="1.1" xmlns="http://www.w3.org/2000/svg" p-id="9756" xmlns:xlink="http://www.w3.org/1999/xlink" width="200" height="200"><path d="M460.8 88.5248C460.8 53.8368 483.6608 25.6 512 25.6c28.224 0 51.2 28.096 51.2 62.9248v411.7504C563.2 535.104 540.224 563.2 512 563.2s-51.2-28.096-51.2-62.9248V88.5248zM512 1011.2C243.2 1011.2 25.6 781.76 25.6 514.5728c0-156.8 75.136-296.3584 191.4496-384.64l0.5888 0.896c27.8784-20.8768 60.928-4.5568 70.784 26.112 9.8816 30.6688-20.672 60.9792-39.1936 72.0256C167.7312 294.4 106.2272 402.1376 106.2272 514.5728 106.24 754.0736 313.7408 927.1424 512 927.1424c198.272 0 410.56-186.0608 404.352-412.5696-3.2512-118.8864-76.416-242.6624-166.3488-307.6608l0.2944-0.2944c-12.5952-11.4944-30.3616-46.3616-5.8624-72.4864 16.3328-17.408 36.928-19.0592 61.7728-4.928C922.9824 217.472 998.4 357.184 998.4 514.432 998.5536 781.9136 780.8 1011.2 512 1011.2z" fill="#92D050" p-id="9757"></path></svg>