<svg xmlns="http://www.w3.org/2000/svg" width="46" height="45" viewBox="0 0 46 45" fill="none">
  <path d="M25.3333 0.166626V7.28797C24.5665 7.20775 23.7881 7.16663 23 7.16663C22.2119 7.16663 21.4335 7.20775 20.6667 7.28797V0.166626H25.3333Z" fill="url(#paint0_linear_69_2094)"/>
  <path d="M39.1501 14.1497L43.9656 9.33417L40.6658 6.03433L35.6039 11.0962C36.8915 11.9878 38.0802 13.0122 39.1501 14.1497Z" fill="url(#paint1_linear_69_2094)"/>
  <path d="M10.3959 11.0963C9.10838 11.9879 7.91966 13.0123 6.84983 14.1498L2.03418 9.33417L5.334 6.03433L10.3959 11.0963Z" fill="url(#paint2_linear_69_2094)"/>
  <path fill-rule="evenodd" clip-rule="evenodd" d="M45.1667 50.3333V45.6666H41.6667V29.3333C41.6667 19.0239 33.3094 10.6666 23 10.6666C12.6906 10.6666 4.33334 19.0239 4.33334 29.3333V45.6666H0.833344V50.3333H45.1667ZM24.75 20V29.625H30L21.25 41V31.375H16L24.75 20Z" fill="url(#paint3_linear_69_2094)"/>
  <defs>
    <linearGradient id="paint0_linear_69_2094" x1="23" y1="0.166626" x2="23" y2="50.3333" gradientUnits="userSpaceOnUse">
      <stop stop-color="#DC2626" stop-opacity="0.12"/>
      <stop offset="1" stop-color="#DC2626" stop-opacity="0"/>
    </linearGradient>
    <linearGradient id="paint1_linear_69_2094" x1="23" y1="0.166626" x2="23" y2="50.3333" gradientUnits="userSpaceOnUse">
      <stop stop-color="#DC2626" stop-opacity="0.12"/>
      <stop offset="1" stop-color="#DC2626" stop-opacity="0"/>
    </linearGradient>
    <linearGradient id="paint2_linear_69_2094" x1="23" y1="0.166626" x2="23" y2="50.3333" gradientUnits="userSpaceOnUse">
      <stop stop-color="#DC2626" stop-opacity="0.12"/>
      <stop offset="1" stop-color="#DC2626" stop-opacity="0"/>
    </linearGradient>
    <linearGradient id="paint3_linear_69_2094" x1="23" y1="0.166626" x2="23" y2="50.3333" gradientUnits="userSpaceOnUse">
      <stop stop-color="#DC2626" stop-opacity="0.12"/>
      <stop offset="1" stop-color="#DC2626" stop-opacity="0"/>
    </linearGradient>
  </defs>
</svg>