<?xml version="1.0" standalone="no"?><!DOCTYPE svg PUBLIC "-//W3C//DTD SVG 1.1//EN" "http://www.w3.org/Graphics/SVG/1.1/DTD/svg11.dtd"><svg t="1709784350734" class="icon" viewBox="0 0 1024 1024" version="1.1" xmlns="http://www.w3.org/2000/svg" p-id="3549" xmlns:xlink="http://www.w3.org/1999/xlink" width="200" height="200"><path d="M325.888 759.36L384 832H192a128 128 0 0 1-128-128V320a128 128 0 0 1 128-128h192l-58.112 72.64a32 32 0 0 1-14.848 10.336l-91.264 30.432A64 64 0 0 0 176 366.144v291.712a64 64 0 0 0 43.776 60.736l91.264 30.4a32 32 0 0 1 14.848 10.4z m372.224 0L640 832h192a128 128 0 0 0 128-128V320a128 128 0 0 0-128-128h-192l58.112 72.64a32 32 0 0 0 14.848 10.336l91.264 30.432a64 64 0 0 1 43.776 60.736v291.712a64 64 0 0 1-43.776 60.736l-91.264 30.4a32 32 0 0 0-14.848 10.4zM320 544v-64h384v64H320z" fill="#FF6A00" p-id="3550"></path></svg>