<svg t="1711339297693" class="icon" viewBox="0 0 1024 1024" version="1.1" xmlns="http://www.w3.org/2000/svg" p-id="8821" width="200" height="200"><path d="M953.6 697.6L524.8 928c-8.533333 4.266667-19.2 4.266667-27.733333 0l-426.666667-230.4c-19.2-10.666667-42.666667 4.266667-42.666667 25.6 0 10.666667 6.4 21.333333 14.933334 25.6l456.533333 245.333333c8.533333 4.266667 19.2 4.266667 27.733333 0L981.333333 748.8c8.533333-4.266667 14.933333-14.933333 14.933334-25.6 0-21.333333-23.466667-36.266667-42.666667-25.6z" fill="#5BAAF9" p-id="8822"></path><path d="M953.6 482.133333L524.8 712.533333c-8.533333 4.266667-19.2 4.266667-27.733333 0l-426.666667-230.4c-19.2-10.666667-42.666667 4.266667-42.666667 25.6 0 10.666667 6.4 21.333333 14.933334 25.6l456.533333 245.333334c8.533333 4.266667 19.2 4.266667 27.733333 0L981.333333 533.333333c8.533333-4.266667 14.933333-14.933333 14.933334-25.6 0-21.333333-23.466667-34.133333-42.666667-25.6z" fill="#5BAAF9" p-id="8823"></path><path d="M996.266667 300.8c0-10.666667-6.4-21.333333-14.933334-25.6L524.8 32c-8.533333-4.266667-19.2-4.266667-27.733333 0L42.666667 275.2c-8.533333 4.266667-14.933333 14.933333-14.933334 25.6s6.4 21.333333 14.933334 25.6l456.533333 245.333333c8.533333 4.266667 19.2 4.266667 27.733333 0L981.333333 328.533333c8.533333-4.266667 14.933333-14.933333 14.933334-27.733333 0 2.133333 0 2.133333 0 0 0 2.133333 0 0 0 0z m-497.066667 206.933333l-384-206.933333 384-206.933333c8.533333-4.266667 19.2-4.266667 27.733333 0l384 206.933333-384 206.933333c-10.666667 4.266667-19.2 4.266667-27.733333 0z" fill="#5BAAF9" p-id="8824"></path></svg>