<svg xmlns="http://www.w3.org/2000/svg" width="20" height="20" viewBox="0 0 20 20" fill="none">
  <path fill-rule="evenodd" clip-rule="evenodd" d="M6.66683 2.91667V4.16667H13.3335V2.91667H15.8335C16.2937 2.91667 16.6668 3.28977 16.6668 3.75001V17.5C16.6668 17.9603 16.2937 18.3333 15.8335 18.3333H4.16683C3.70659 18.3333 3.3335 17.9603 3.3335 17.5V3.75001C3.3335 3.28977 3.70659 2.91667 4.16683 2.91667H6.66683ZM6.66683 8.75001H13.3335V10.4167H6.66683V8.75001ZM6.66683 12.0833H13.3335V13.75H6.66683V12.0833Z" fill="white" fill-opacity="0.4"/>
  <path d="M6.6665 2.50001C6.6665 2.03977 7.03959 1.66667 7.49984 1.66667H12.4998C12.9601 1.66667 13.3332 2.03977 13.3332 2.50001V4.16667H6.6665V2.50001Z" fill="white"/>
  <path d="M6.6665 8.75H13.3332V10.4167H6.6665V8.75Z" fill="white"/>
  <path d="M13.3332 12.0833H6.6665V13.75H13.3332V12.0833Z" fill="white"/>
</svg>