<?xml version="1.0" standalone="no"?><!DOCTYPE svg PUBLIC "-//W3C//DTD SVG 1.1//EN" "http://www.w3.org/Graphics/SVG/1.1/DTD/svg11.dtd"><svg t="1710382357912" class="icon" viewBox="0 0 1024 1024" version="1.1" xmlns="http://www.w3.org/2000/svg" p-id="4433" xmlns:xlink="http://www.w3.org/1999/xlink" width="200" height="200"><path d="M764.8 918.4h-576c-44.8 0-83.2-38.4-83.2-83.2v-576c0-44.8 38.4-83.2 83.2-83.2h288c9.6 0 19.2 9.6 19.2 19.2s-9.6 19.2-19.2 19.2h-288c-25.6 0-44.8 19.2-44.8 44.8v576c0 25.6 19.2 44.8 44.8 44.8h576c25.6 0 44.8-19.2 44.8-44.8v-284.8c0-9.6 9.6-19.2 19.2-19.2s19.2 9.6 19.2 19.2v284.8c0 44.8-35.2 83.2-83.2 83.2z" p-id="4434"></path><path d="M902.4 166.4l-44.8-44.8c-19.2-19.2-54.4-19.2-73.6 0l-67.2 67.2-316.8 316.8c-6.4 6.4-9.6 12.8-12.8 19.2l-128 211.2c-3.2 6.4-3.2 19.2 3.2 25.6 3.2 3.2 9.6 6.4 12.8 6.4 3.2 0 6.4 0 9.6-3.2l211.2-128c6.4-3.2 12.8-6.4 19.2-12.8L832 307.2l67.2-67.2c25.6-22.4 25.6-54.4 3.2-73.6z m-140.8 51.2l44.8 44.8c3.2 3.2 3.2 12.8 0 16l-313.6 313.6-6.4 3.2c-3.2 3.2-9.6 3.2-12.8 0l-44.8-44.8c-3.2-3.2-3.2-6.4-3.2-9.6v-3.2l6.4-9.6 313.6-313.6c3.2-3.2 12.8-3.2 16 3.2zM400 579.2l41.6 41.6-108.8 64 67.2-105.6zM876.8 211.2l-32 32c-3.2-3.2-3.2-6.4-6.4-9.6l-44.8-44.8c-3.2-3.2-6.4-6.4-9.6-6.4l32-32c3.2-3.2 12.8-3.2 16 0L876.8 192c3.2 6.4 3.2 12.8 0 19.2z" p-id="4435"></path></svg>