<?xml version="1.0" standalone="no"?><!DOCTYPE svg PUBLIC "-//W3C//DTD SVG 1.1//EN" "http://www.w3.org/Graphics/SVG/1.1/DTD/svg11.dtd"><svg t="1710416844153" class="icon" viewBox="0 0 1024 1024" version="1.1" xmlns="http://www.w3.org/2000/svg" p-id="2393" xmlns:xlink="http://www.w3.org/1999/xlink" width="200" height="200"><path d="M918.366316 893.305263H117.625263c-33.414737 0-60.496842-27.486316-60.496842-61.305263V661.557895c0-71.275789 56.993684-129.347368 127.056842-129.347369h178.391579c-8.757895-24.117895-22.635789-48.235789-40.96-70.332631-41.903158-48.64-64.943158-111.292632-64.943158-176.23579 0-72.757895 28.294737-140.8 79.629474-191.326316 51.2-50.391579 117.355789-76.126316 191.326316-74.105263h0.40421c65.077895 2.829474 127.056842 31.663158 174.349474 81.111579 47.292632 49.448421 73.835789 113.044211 74.913684 179.065263 1.751579 66.964211-22.635789 132.850526-68.715789 185.263158l-0.404211 0.538948c-17.381053 18.863158-29.776842 40.421053-37.726316 65.886315h179.469474c70.063158 0 127.056842 58.071579 127.056842 129.347369v169.36421c1.077895 16.168421-4.176842 31.393684-14.955789 43.250527-11.048421 12.261053-26.947368 19.267368-43.654737 19.267368zM184.185263 586.105263c-40.286316 0-73.162105 33.818947-73.162105 75.452632v170.442105c0 4.446316 3.368421 7.410526 6.602105 7.410526h800.741053c2.290526 0 3.503158-0.943158 4.042105-1.482105 0.808421-0.808421 1.077895-2.021053 0.943158-3.503158l-0.134737-1.212631V661.557895c0-41.633684-32.875789-75.452632-73.162105-75.452632H656.168421c-13.069474 0-25.330526-5.928421-33.414737-16.303158-8.218947-10.509474-11.183158-23.983158-8.08421-37.052631 9.566316-39.747368 27.755789-74.24 53.894737-102.804211 37.052632-42.172632 56.589474-94.854737 55.107368-148.210526v-0.404211c-0.673684-52.412632-21.962105-103.208421-59.957895-142.686315-37.726316-39.343158-86.501053-62.248421-137.566316-64.538948-59.014737-1.482105-111.427368 18.728421-151.848421 58.610526-40.96 40.421053-63.595789 94.72-63.595789 153.061053 0 52.143158 18.458947 102.265263 52.008421 141.204211l0.40421 0.40421c26.543158 32.067368 45.945263 68.042105 55.781053 104.151579 3.637895 13.204211 0.943158 26.947368-7.275789 37.726316-8.218947 10.778947-20.48 16.842105-33.953685 16.842105H184.185263z" p-id="2394"></path><path d="M953.397895 994.357895H80.976842c-14.821053 0-26.947368-12.126316-26.947368-26.947369s12.126316-26.947368 26.947368-26.947368h872.421053c14.821053 0 26.947368 12.126316 26.947368 26.947368s-11.991579 26.947368-26.947368 26.947369z" p-id="2395"></path></svg>