<?xml version="1.0" standalone="no"?><!DOCTYPE svg PUBLIC "-//W3C//DTD SVG 1.1//EN" "http://www.w3.org/Graphics/SVG/1.1/DTD/svg11.dtd"><svg t="1710388178742" class="icon" viewBox="0 0 1024 1024" version="1.1" xmlns="http://www.w3.org/2000/svg" p-id="3772" xmlns:xlink="http://www.w3.org/1999/xlink" width="200" height="200"><path d="M682.666667 682.666667v-128h85.333333v128h128v85.333333h-128v128h-85.333333v-128h-128v-85.333333h128zM170.666667 554.666667h213.333333a85.333333 85.333333 0 0 1 85.333333 85.333333v213.333333a85.333333 85.333333 0 0 1-85.333333 85.333334H170.666667a85.333333 85.333333 0 0 1-85.333334-85.333334v-213.333333a85.333333 85.333333 0 0 1 85.333334-85.333333z m0 85.333333v213.333333h213.333333v-213.333333H170.666667zM170.666667 85.333333h213.333333a85.333333 85.333333 0 0 1 85.333333 85.333334v213.333333a85.333333 85.333333 0 0 1-85.333333 85.333333H170.666667a85.333333 85.333333 0 0 1-85.333334-85.333333V170.666667a85.333333 85.333333 0 0 1 85.333334-85.333334z m0 85.333334v213.333333h213.333333V170.666667H170.666667z m469.333333-85.333334h213.333333a85.333333 85.333333 0 0 1 85.333334 85.333334v213.333333a85.333333 85.333333 0 0 1-85.333334 85.333333h-213.333333a85.333333 85.333333 0 0 1-85.333333-85.333333V170.666667a85.333333 85.333333 0 0 1 85.333333-85.333334z m0 85.333334v213.333333h213.333333V170.666667h-213.333333z" p-id="3773"></path></svg>