<svg xmlns="http://www.w3.org/2000/svg" width="16" height="16" viewBox="0 0 16 16" fill="none">
  <path d="M7.99992 0.666687C7.44762 0.666687 6.99992 1.1144 6.99992 1.66669V2.43261C4.69708 2.89645 2.96288 4.93089 2.96288 7.37039V10.7843L2.33325 12.6667H13.6666L13.037 10.7843V7.37039C13.037 4.93089 11.3028 2.89645 8.99992 2.43261V1.66669C8.99992 1.1144 8.55222 0.666687 7.99992 0.666687Z" fill="url(#paint0_linear_69_5312)" fill-opacity="0.6"/>
  <path d="M5.76318 13.6667C6.05002 14.6305 6.94288 15.3333 7.99988 15.3333C9.05688 15.3333 9.94975 14.6305 10.2366 13.6667H5.76318Z" fill="url(#paint1_linear_69_5312)" fill-opacity="0.6"/>
  <defs>
    <linearGradient id="paint0_linear_69_5312" x1="7.99992" y1="0.666687" x2="7.99992" y2="15.3333" gradientUnits="userSpaceOnUse">
      <stop stop-color="white"/>
      <stop offset="1" stop-color="white" stop-opacity="0.72"/>
    </linearGradient>
    <linearGradient id="paint1_linear_69_5312" x1="7.99992" y1="0.666687" x2="7.99992" y2="15.3333" gradientUnits="userSpaceOnUse">
      <stop stop-color="white"/>
      <stop offset="1" stop-color="white" stop-opacity="0.72"/>
    </linearGradient>
  </defs>
</svg>