<?xml version="1.0" standalone="no"?><!DOCTYPE svg PUBLIC "-//W3C//DTD SVG 1.1//EN" "http://www.w3.org/Graphics/SVG/1.1/DTD/svg11.dtd"><svg t="1710388158983" class="icon" viewBox="0 0 1024 1024" version="1.1" xmlns="http://www.w3.org/2000/svg" p-id="2814" xmlns:xlink="http://www.w3.org/1999/xlink" width="200" height="200"><path d="M747.356 656.794a31.99 31.99 0 0 1-31.97-32.01v-25.54a31.97 31.97 0 0 1 63.96 0v25.56c0 17.674-14.336 31.99-31.99 31.99z m0.676 274.33a31.97 31.97 0 0 1-31.97-31.97v-20.398a31.949 31.949 0 1 1 63.94 0v20.398c0 17.654-14.316 31.97-31.97 31.97z" p-id="2815"></path><path d="M795.976 815.76a36.66 36.66 0 0 0-2.069-12.719c-1.31-3.809-3.973-7.27-7.885-10.526a73.38 73.38 0 0 0-16.22-9.483 250.122 250.122 0 0 0-26.726-9.871c-12.432-3.953-24.126-8.438-35.103-13.394s-20.644-10.834-28.877-17.592a78.54 78.54 0 0 1-19.538-23.368c-4.792-8.847-7.168-19.128-7.168-30.925 0-11.325 2.438-21.688 7.312-31.047a69.775 69.775 0 0 1 20.705-23.921 100.741 100.741 0 0 1 31.642-15.36 139.448 139.448 0 0 1 40.325-5.489c15.012 0 28.692 2.048 40.98 6.247 12.288 4.157 22.774 9.912 31.458 17.408 8.704 7.434 15.4 16.281 20.11 26.521 4.732 10.281 7.107 21.443 7.107 33.649h-55.89a44.851 44.851 0 0 0-2.703-15.831 32.154 32.154 0 0 0-8.294-12.513 38.298 38.298 0 0 0-13.988-8.049 59.351 59.351 0 0 0-19.722-2.929c-7.332 0-13.681 0.799-19.108 2.396a39.117 39.117 0 0 0-13.394 6.718 28.099 28.099 0 0 0-10.711 22.364c0 8.93 4.567 16.405 13.701 22.446 9.073 6.042 22.467 11.674 40.12 16.876a267.06 267.06 0 0 1 39.035 15.237 116.675 116.675 0 0 1 28.078 19.005c7.496 7.086 13.21 15.033 17.04 23.88 3.85 8.765 5.795 18.76 5.795 29.962 0 11.879-2.334 22.528-6.983 31.847a66.355 66.355 0 0 1-19.845 23.552c-8.602 6.41-18.924 11.284-31.007 14.684a148.337 148.337 0 0 1-40.53 5.16c-8.909 0-17.879-0.798-26.808-2.355a126.71 126.71 0 0 1-25.6-7.127 108.442 108.442 0 0 1-22.61-12.165 82.166 82.166 0 0 1-18.186-17.121 77.68 77.68 0 0 1-12.104-22.405 84.296 84.296 0 0 1-4.383-27.873h56.054c0 8.192 1.31 15.114 3.912 20.848s6.226 10.363 10.895 13.927c4.628 3.522 10.26 6.082 16.835 7.68 6.553 1.638 13.905 2.437 21.954 2.437 7.23 0 13.455-0.758 18.8-2.314 5.366-1.557 9.75-3.728 13.23-6.472 3.503-2.683 6.063-5.919 7.742-9.728 1.782-3.83 2.622-7.864 2.622-12.268z" p-id="2816"></path><path d="M748.708 1013.76c-146.166 0-265.052-118.886-265.052-264.99 0-146.166 118.886-265.073 265.052-265.073s265.052 118.907 265.052 265.072c0 146.105-118.907 264.991-265.052 264.991z m0-466.166c-110.92 0-201.114 90.235-201.114 201.155 0 110.879 90.194 201.072 201.114 201.072 110.899 0 201.113-90.193 201.113-201.072 0-110.9-90.214-201.155-201.113-201.155zM871.875 443.74a31.97 31.97 0 0 1-31.97-31.97V131.646c0-18.165-13.844-32.91-30.822-32.91h-91.034a31.97 31.97 0 0 1 0-63.94h91.034c52.244 0 94.76 43.439 94.76 96.83V411.75a31.949 31.949 0 0 1-31.968 31.99zM424.059 946.32H129.434c-52.224 0-94.72-43.439-94.72-96.85V131.644c0-53.411 42.496-96.829 94.72-96.829h66.846a31.949 31.949 0 1 1 0 63.939h-66.846c-16.978 0-30.802 14.766-30.802 32.91V849.51c0 18.166 13.824 32.87 30.802 32.87h294.625a31.949 31.949 0 1 1 0 63.94zM605.225 63.221c0 29.266-22.733 52.982-50.79 52.982H359.424c-28.058 0-50.81-23.716-50.81-52.982s22.752-52.982 50.81-52.982h195.01c28.038 0 50.791 23.716 50.791 52.982z" p-id="2817"></path><path d="M647.619 315.064H223.826a31.949 31.949 0 0 1 0-63.918h423.793a31.949 31.949 0 1 1 0 63.918zM414.536 532.89h-190.71a31.949 31.949 0 0 1 0-63.939h190.71a31.97 31.97 0 0 1 0 63.939zM329.79 751.33H223.825a31.949 31.949 0 0 1 0-63.94h105.963a31.97 31.97 0 0 1 0 63.94z" p-id="2818"></path></svg>