<?xml version="1.0" standalone="no"?><!DOCTYPE svg PUBLIC "-//W3C//DTD SVG 1.1//EN" "http://www.w3.org/Graphics/SVG/1.1/DTD/svg11.dtd"><svg t="1710388171195" class="icon" viewBox="0 0 1024 1024" version="1.1" xmlns="http://www.w3.org/2000/svg" p-id="3362" xmlns:xlink="http://www.w3.org/1999/xlink" width="200" height="200"><path d="M505.728 558.4H412.032a38.4 38.4 0 0 1 0-76.8h61.312L384.896 393.152a38.4 38.4 0 1 1 54.272-54.272L544 443.712l104.896-104.832a38.4 38.4 0 0 1 54.272 54.272L614.72 481.6h61.312a38.4 38.4 0 1 1 0 76.8h-93.44v55.232h93.44a38.4 38.4 0 1 1 0 76.8h-93.44v93.568a38.4 38.4 0 1 1-76.8 0v-93.568H411.968a38.4 38.4 0 1 1 0-76.8h93.696v-55.232z" p-id="3363"></path><path d="M390.016 41.6h308.032a38.4 38.4 0 0 1 38.4 38.4v27.648h115.584c45.504 0 82.368 36.864 82.368 82.368v726.016c0 45.504-36.864 82.368-82.368 82.368H236.032A82.368 82.368 0 0 1 153.6 916.032V190.016c0-45.44 36.928-82.368 82.432-82.368h115.584V80a38.4 38.4 0 0 1 38.4-38.4z m346.432 142.848v27.52a38.4 38.4 0 0 1-38.4 38.4H390.016a38.4 38.4 0 0 1-38.4-38.4v-27.52H236.032a5.632 5.632 0 0 0-5.632 5.568v726.016c0 3.072 2.56 5.568 5.632 5.568h616c3.072 0 5.568-2.496 5.568-5.568V190.016a5.632 5.632 0 0 0-5.568-5.568h-115.584z m-76.8-66.048H428.416v55.232h231.232V118.4z" p-id="3364"></path></svg>