<?xml version="1.0" standalone="no"?><!DOCTYPE svg PUBLIC "-//W3C//DTD SVG 1.1//EN" "http://www.w3.org/Graphics/SVG/1.1/DTD/svg11.dtd"><svg t="1710388142651" class="icon" viewBox="0 0 1027 1024" version="1.1" xmlns="http://www.w3.org/2000/svg" p-id="2252" xmlns:xlink="http://www.w3.org/1999/xlink" width="200.5859375" height="200"><path d="M369.724927 967.255341 67.477523 967.255341 67.477523 63.972885l678.914967 0 0 148.076014c0 15.020844 12.177152 27.199356 27.199356 27.199356s27.199356-12.178512 27.199356-27.199356L800.791202 63.759371c0-29.877133-24.306705-54.185197-54.185197-54.185197L67.262648 9.574173C37.385515 9.574173 13.07881 33.882238 13.07881 63.759371l0 903.709485c0 29.878493 24.306705 54.185197 54.183837 54.185197l302.462279 0c15.020844 0 27.199356-12.177152 27.199356-27.199356S384.745771 967.255341 369.724927 967.255341z" p-id="2253"></path><path d="M665.25953 234.930358c0-15.022204-12.177152-27.199356-27.199356-27.199356l-456.59559 0c-15.022204 0-27.199356 12.177152-27.199356 27.199356s12.177152 27.199356 27.199356 27.199356l456.59559 0C653.082379 262.129714 665.25953 249.952563 665.25953 234.930358z" p-id="2254"></path><path d="M406.494376 431.388587c0-15.022204-12.177152-27.199356-27.199356-27.199356L181.464584 404.189231c-15.022204 0-27.199356 12.177152-27.199356 27.199356s12.177152 27.199356 27.199356 27.199356L379.29502 458.587943C394.317225 458.587943 406.494376 446.410791 406.494376 431.388587z" p-id="2255"></path><path d="M304.853103 600.6461l-123.388519 0c-15.022204 0-27.199356 12.177152-27.199356 27.199356s12.177152 27.199356 27.199356 27.199356l123.388519 0c15.022204 0 27.199356-12.177152 27.199356-27.199356S319.875307 600.6461 304.853103 600.6461z" p-id="2256"></path><path d="M304.853103 797.104329l-123.388519 0c-15.022204 0-27.199356 12.177152-27.199356 27.199356s12.177152 27.199356 27.199356 27.199356l123.388519 0c15.022204 0 27.199356-12.177152 27.199356-27.199356S319.875307 797.104329 304.853103 797.104329z" p-id="2257"></path><path d="M581.981902 565.021743c0 68.564137 49.030919 120.094677 83.961692 148.105934-34.932133 28.013977-83.961692 79.543157-83.961692 148.107294l0 27.199356 262.937535 0 0-27.199356c0-68.562777-49.030919-120.094677-83.961692-148.107294 34.932133-28.012617 83.961692-79.540437 83.961692-148.105934l0-27.199356L581.981902 537.822387 581.981902 565.021743zM786.360583 834.036975 640.567955 834.036975c12.843536-41.863889 52.060927-73.93737 72.888834-88.539344 8.834351 6.191933 20.970704 15.529472 32.980579 27.433271C766.732168 793.046185 780.085692 813.506901 786.360583 834.036975zM786.333384 592.2211c-12.838096 41.844849-52.031008 73.91017-72.883395 88.531184-20.852386-14.621014-60.042579-46.686335-72.882035-88.531184L786.333384 592.2211z" p-id="2258"></path><path d="M933.49958 487.111908c-59.400674-59.402034-138.379444-92.116059-222.384655-92.116059-84.006571 0-162.985341 32.714026-222.387375 92.116059-59.402034 59.402034-92.116059 138.379444-92.116059 222.386015 0 84.006571 32.714026 162.986701 92.116059 222.387375 59.400674 59.402034 138.379444 92.114699 222.387375 92.114699s162.985341-32.714026 222.384655-92.114699c59.402034-59.402034 92.114699-138.380804 92.114699-222.387375C1025.614279 625.492712 992.901614 546.515302 933.49958 487.111908zM711.113565 969.602645c-143.422205 0-260.104722-116.682518-260.104722-260.104722 0-143.420845 116.682518-260.103362 260.104722-260.103362 143.420845 0 260.102002 116.682518 260.102002 260.103362C971.215567 852.920128 854.534409 969.602645 711.113565 969.602645z" p-id="2259"></path></svg>