<svg width="400" height="96" viewBox="0 0 400 96" fill="none" xmlns="http://www.w3.org/2000/svg">
<g clip-path="url(#clip0_59_1960)">
<path d="M98.5 59.2395C32.4914 106.081 -34 104.234 -60 96.0988V122H354V102.076C295.667 67.3752 171.5 7.43731 98.5 59.2395Z" fill="url(#paint0_linear_59_1960)" stroke="url(#paint1_linear_59_1960)"/>
<path d="M273.5 57.1373C181.5 35.4824 142.167 91.3562 134 122H470V3C438 22.9185 388.5 84.206 273.5 57.1373Z" fill="url(#paint2_linear_59_1960)" stroke="url(#paint3_linear_59_1960)"/>
<circle cx="219" cy="55" r="7" fill="url(#paint4_linear_59_1960)" fill-opacity="0.6"/>
<circle cx="333.5" cy="57.5" r="4.5" fill="url(#paint5_linear_59_1960)" fill-opacity="0.6"/>
</g>
<defs>
<linearGradient id="paint0_linear_59_1960" x1="187" y1="39" x2="174" y2="102" gradientUnits="userSpaceOnUse">
<stop stop-color="white" stop-opacity="0.64"/>
<stop offset="1" stop-color="white" stop-opacity="0"/>
</linearGradient>
<linearGradient id="paint1_linear_59_1960" x1="232" y1="47" x2="223" y2="95" gradientUnits="userSpaceOnUse">
<stop stop-color="white"/>
<stop offset="1" stop-color="white" stop-opacity="0"/>
</linearGradient>
<linearGradient id="paint2_linear_59_1960" x1="322" y1="39" x2="309" y2="122" gradientUnits="userSpaceOnUse">
<stop stop-color="white" stop-opacity="0.64"/>
<stop offset="1" stop-color="white" stop-opacity="0"/>
</linearGradient>
<linearGradient id="paint3_linear_59_1960" x1="340" y1="50" x2="333.271" y2="108.537" gradientUnits="userSpaceOnUse">
<stop stop-color="white"/>
<stop offset="1" stop-color="white" stop-opacity="0"/>
</linearGradient>
<linearGradient id="paint4_linear_59_1960" x1="212" y1="55" x2="226" y2="55" gradientUnits="userSpaceOnUse">
<stop stop-color="#F4F6FF"/>
<stop offset="1" stop-color="#CED8F6"/>
</linearGradient>
<linearGradient id="paint5_linear_59_1960" x1="329" y1="57.5" x2="338" y2="57.5" gradientUnits="userSpaceOnUse">
<stop stop-color="white" stop-opacity="0.52"/>
<stop offset="1" stop-color="white"/>
</linearGradient>
<clipPath id="clip0_59_1960">
<rect width="400" height="96" fill="white"/>
</clipPath>
</defs>
</svg>
