<svg xmlns="http://www.w3.org/2000/svg" width="1em" height="1em" fill="currentColor" viewBox="0 0 20 20">
  <path
    fill="#B6C2CD"
    fill-rule="evenodd"
    d="M16.25 14.167V5H3.75l-2.5 2.5v8.333c0 .46.373.834.833.834H13.75zm-4.167-7.5H15v1.25h-2.917zm0 2.5H15v1.25h-2.917zM6.667 15a4.167 4.167 0 1 0 0-8.333 4.167 4.167 0 0 0 0 8.333"
    clip-rule="evenodd"
  ></path>
  <path
    fill="#324558"
    d="M16.25 2.5h1.667c.46 0 .833.373.833.833v13.334c0 .46-.373.833-.833.833H16.25zM5 16.666v.833H2.5v-.833zM8.75 16.666v.833h-2.5v-.833zM12.5 17.5v-.834H10v.833zM15 6.666h-2.917v1.25H15zM12.083 9.166H15v1.25h-2.917zM5.07 8.391l1.146 1.74a.83.83 0 0 1 .899-.001L8.26 8.39a2.9 2.9 0 0 0-1.593-.474c-.59 0-1.138.175-1.597.475M9.578 10.66l-2.08.128q.003.022.002.045c0 .328-.19.612-.465.748l.935 1.863a2.92 2.92 0 0 0 1.608-2.784M6.29 11.577l-.93 1.865a2.92 2.92 0 0 1-1.605-2.782l2.08.128-.002.045c0 .325.186.606.457.744"
  ></path>
</svg>

