<?xml version="1.0" standalone="no"?><!DOCTYPE svg PUBLIC "-//W3C//DTD SVG 1.1//EN" "http://www.w3.org/Graphics/SVG/1.1/DTD/svg11.dtd"><svg t="1710382158086" class="icon" viewBox="0 0 1024 1024" version="1.1" xmlns="http://www.w3.org/2000/svg" p-id="3434" xmlns:xlink="http://www.w3.org/1999/xlink" width="200" height="200"><path d="M48.872727 446.836364C23.272727 446.836364 0 425.890909 0 397.963636v-349.090909C0 20.945455 20.945455 0 48.872727 0h351.418182c25.6 0 48.872727 20.945455 48.872727 48.872727v351.418182c0 25.6-20.945455 48.872727-48.872727 48.872727H48.872727z m-9.309091-39.563637h367.709091V39.563636H39.563636v367.709091zM623.709091 446.836364c-25.6 0-48.872727-20.945455-48.872727-48.872728v-349.090909c0-25.6 20.945455-48.872727 48.872727-48.872727h351.418182c27.927273 0 48.872727 20.945455 48.872727 48.872727v351.418182c0 25.6-20.945455 48.872727-48.872727 48.872727H623.709091z m-6.981818-39.563637h367.709091V39.563636H616.727273v367.709091zM48.872727 1024C20.945455 1024 0 1003.054545 0 975.127273V623.709091c0-25.6 20.945455-48.872727 48.872727-48.872727h351.418182c25.6 0 48.872727 20.945455 48.872727 48.872727v351.418182c0 25.6-20.945455 48.872727-48.872727 48.872727H48.872727z m-9.309091-39.563636h367.709091V616.727273H39.563636v367.709091zM623.709091 1024c-25.6 0-48.872727-20.945455-48.872727-48.872727V623.709091c0-25.6 20.945455-48.872727 48.872727-48.872727h351.418182c25.6 0 48.872727 20.945455 48.872727 48.872727v351.418182c0 25.6-20.945455 48.872727-48.872727 48.872727H623.709091z m-6.981818-39.563636h367.709091V616.727273H616.727273v367.709091z" p-id="3435"></path></svg>