<?xml version="1.0" standalone="no"?><!DOCTYPE svg PUBLIC "-//W3C//DTD SVG 1.1//EN" "http://www.w3.org/Graphics/SVG/1.1/DTD/svg11.dtd"><svg t="1710389500048" class="icon" viewBox="0 0 1024 1024" version="1.1" xmlns="http://www.w3.org/2000/svg" p-id="2333" xmlns:xlink="http://www.w3.org/1999/xlink" width="200" height="200"><path d="M113.777778 705.422222c51.2 28.444444 136.533333 51.2 227.555555 56.888889 17.066667-28.444444 28.444444-39.822222 56.888889-56.888889-34.133333 5.688889-182.044444 5.688889-284.444444-68.266666V500.622222c62.577778 34.133333 170.666667 62.577778 278.755555 62.577778s227.555556-28.444444 290.133334-62.577778v34.133334c22.755556-5.688889 39.822222 0 56.888889 11.377777V233.244444C739.555556 136.533333 585.955556 56.888889 392.533333 56.888889S56.888889 130.844444 56.888889 227.555556v608.711111c0 28.444444 28.444444 56.888889 68.266667 79.644444 56.888889 28.444444 142.222222 51.2 238.933333 51.2-17.066667-22.755556-28.444444-34.133333-34.133333-56.888889-119.466667-11.377778-199.111111-62.577778-216.177778-79.644444v-125.155556zM398.222222 113.777778c176.355556 0 284.444444 62.577778 284.444445 108.088889s-108.088889 108.088889-284.444445 108.088889-284.444444-68.266667-284.444444-108.088889S221.866667 113.777778 398.222222 113.777778zM113.777778 318.577778c62.577778 39.822222 170.666667 68.266667 284.444444 68.266666s221.866667-28.444444 284.444445-68.266666v113.777778s-108.088889 68.266667-284.444445 68.266666c-159.288889 0-267.377778-45.511111-284.444444-68.266666v-113.777778z" p-id="2334"></path><path d="M830.577778 967.111111H500.622222c-73.955556 0-136.533333-62.577778-136.533333-136.533333s62.577778-136.533333 136.533333-136.533334h17.066667c5.688889-79.644444 73.955556-142.222222 153.6-142.222222 79.644444 0 147.911111 62.577778 153.6 142.222222h5.688889c73.955556 0 136.533333 62.577778 136.533333 136.533334S904.533333 967.111111 830.577778 967.111111z m-329.955556-221.866667c-51.2 0-91.022222 39.822222-91.022222 91.022223 0 51.2 39.822222 91.022222 91.022222 91.022222h335.644445c51.2 0 91.022222-39.822222 91.022222-91.022222 0-51.2-39.822222-91.022222-91.022222-91.022223-5.688889 0-17.066667 0-22.755556 5.688889-11.377778 5.688889-22.755556-5.688889-28.444444-17.066666v-11.377778-11.377778c0-62.577778-51.2-108.088889-108.088889-108.088889s-108.088889 51.2-108.088889 108.088889v11.377778c0 11.377778-5.688889 22.755556-22.755556 28.444444h-11.377777c-17.066667-5.688889-22.755556-5.688889-34.133334-5.688889z" p-id="2335"></path></svg>