<svg t="1711339631518" class="icon" viewBox="0 0 1024 1024" version="1.1" xmlns="http://www.w3.org/2000/svg" p-id="21685" width="200" height="200"><path d="M476.386 415.354c-93.576-5.8-302.026-125.934-99.2-242.144 166.852-95.598 321.604-28.564 416.818 73.584 0 0-54.74 33.704-118.412 64.08 44.99-100.572-122.6-156.748-218.71-104.48-96.108 52.268-105.546 159.484 130.948 153.238zM992.036 708.76V238.714L501.76 0 31 226.598V680.02L516.454 1024zM501.552 23.958L962.54 255.532 502.246 517.994 56.072 242.102z m460.982 259.766v405.188l-183.726 119.48V391.18z m-213.926 126.962V829.22l-232.22 146.5V542.68z" fill="#518BC5" p-id="21686"></path></svg>