<svg xmlns="http://www.w3.org/2000/svg" width="1em" height="1em" fill="currentColor" viewBox="0 0 21 20">
  <path fill="#B6C2CD" fill-rule="evenodd" d="M4.567 3.333a.833.833 0 0 0-.834.833v11.667c0 .46.373.833.834.833h11.666c.46 0 .834-.373.834-.833V4.166a.833.833 0 0 0-.834-.833zm5 2.917 2.5 2.083-2.5 2.083V8.958H5.4v-1.25h4.167zM12.9 9.583l2.5 2.083-2.5 2.084V12.29H5.4v-1.25h7.5z" clip-rule="evenodd"></path>
  <path fill="#324558" d="M7.9 1.667H6.233v1.667H7.9zM3.733 5.833H2.067V7.5h1.666zM2.067 9.167h1.666v1.667H2.067zM3.733 12.5H2.067v1.667h1.666zM17.067 5.833h1.666V7.5h-1.666zM18.733 9.167h-1.666v1.667h1.666zM17.067 12.5h1.666v1.667h-1.666zM11.233 1.667H9.567v1.667h1.666zM12.9 1.667h1.667v1.667H12.9zM7.9 16.667H6.233v1.667H7.9zM9.567 16.667h1.666v1.667H9.567zM14.567 16.667H12.9v1.667h1.667zM9.567 6.25l2.5 2.083-2.5 2.084V8.958H5.4v-1.25h4.167z"></path>
  <path fill="#324558" d="m15.4 11.666-2.5-2.083v1.458H5.4v1.25h7.5v1.459z"></path>
</svg>
