<?xml version="1.0" standalone="no"?><!DOCTYPE svg PUBLIC "-//W3C//DTD SVG 1.1//EN" "http://www.w3.org/Graphics/SVG/1.1/DTD/svg11.dtd"><svg t="1710487960128" class="icon" viewBox="0 0 1024 1024" version="1.1" xmlns="http://www.w3.org/2000/svg" p-id="1711" xmlns:xlink="http://www.w3.org/1999/xlink" width="200" height="200"><path d="M138.666667 213.333333c0-41.216 33.450667-74.666667 74.666666-74.666666h597.333334c41.216 0 74.666667 33.450667 74.666666 74.666666v597.333334A74.666667 74.666667 0 0 1 810.666667 885.333333H213.333333A74.666667 74.666667 0 0 1 138.666667 810.666667V213.333333zM213.333333 202.666667a10.666667 10.666667 0 0 0-10.666666 10.666666v597.333334c0 5.888 4.778667 10.666667 10.666666 10.666666h597.333334a10.666667 10.666667 0 0 0 10.666666-10.666666V213.333333a10.666667 10.666667 0 0 0-10.666666-10.666666H213.333333z" p-id="1712"></path><path d="M352 384A32 32 0 0 1 384 352h256a32 32 0 0 1 32 32v256a32 32 0 0 1-32 32H384a32 32 0 0 1-32-32V384z m64 32v192h192v-192h-192zM318.08 10.666667a32 32 0 0 1 32 32v128a32 32 0 0 1-64 0V42.666667a32 32 0 0 1 32-32zM318.08 821.333333a32 32 0 0 1 32 32v128a32 32 0 0 1-64 0v-128a32 32 0 0 1 32-32zM512 10.666667a32 32 0 0 1 32 32v128a32 32 0 0 1-64 0V42.666667A32 32 0 0 1 512 10.666667zM512 821.333333a32 32 0 0 1 32 32v128a32 32 0 0 1-64 0v-128a32 32 0 0 1 32-32zM705.92 10.666667a32 32 0 0 1 32 32v128a32 32 0 0 1-64 0V42.666667a32 32 0 0 1 32-32zM705.92 821.333333a32 32 0 0 1 32 32v128a32 32 0 0 1-64 0v-128a32 32 0 0 1 32-32zM10.666667 318.08a32 32 0 0 1 32-32h128a32 32 0 0 1 0 64H42.666667a32 32 0 0 1-32-32zM821.333333 318.08a32 32 0 0 1 32-32h128a32 32 0 0 1 0 64h-128a32 32 0 0 1-32-32zM10.666667 512a32 32 0 0 1 32-32h128a32 32 0 0 1 0 64H42.666667A32 32 0 0 1 10.666667 512zM821.333333 512a32 32 0 0 1 32-32h128a32 32 0 0 1 0 64h-128a32 32 0 0 1-32-32zM10.666667 705.92a32 32 0 0 1 32-32h128a32 32 0 0 1 0 64H42.666667a32 32 0 0 1-32-32zM821.333333 705.92a32 32 0 0 1 32-32h128a32 32 0 0 1 0 64h-128a32 32 0 0 1-32-32z" p-id="1713"></path></svg>