<?xml version="1.0" standalone="no"?><!DOCTYPE svg PUBLIC "-//W3C//DTD SVG 1.1//EN" "http://www.w3.org/Graphics/SVG/1.1/DTD/svg11.dtd"><svg t="1710388149414" class="icon" viewBox="0 0 1024 1024" version="1.1" xmlns="http://www.w3.org/2000/svg" p-id="2397" xmlns:xlink="http://www.w3.org/1999/xlink" width="200" height="200"><path d="M927.8 575.1H544c-17.7 0-32-14.3-32-32s14.3-32 32-32h383.8c17.7 0 32 14.3 32 32s-14.3 32-32 32zM927.8 702.6H544c-17.7 0-32-14.3-32-32s14.3-32 32-32h383.8c17.7 0 32 14.3 32 32s-14.3 32-32 32zM927.8 830.1H544c-17.7 0-32-14.3-32-32s14.3-32 32-32h383.8c17.7 0 32 14.3 32 32s-14.3 32-32 32z" p-id="2398"></path><path d="M450.7 798.1c0-17.7-14.3-32-32-32H278c-40 0-77.7-15.6-106-43.9-28.3-28.3-43.9-66-43.9-106s15.6-77.7 43.9-106c28.3-28.3 66-43.9 106-43.9 5.9 0 12 0.4 18 1.1 2.6 0.3 5.1 0.5 7.6 0.5 28.3 0 53.6-18.7 61.5-46.5 8-27.9 20.4-54.3 36.8-78.4 16.3-23.8 36.1-44.7 59-62.2 23.1-17.7 48.7-31.5 76-40.9 28.3-9.8 58-14.7 88.3-14.7 36.5 0 72 7.1 105.3 21.2 32.2 13.6 61.1 33.1 86 58s44.4 53.8 58 86c4.7 11.2 8.7 22.6 11.8 34.3 3.8 14 16.4 23.7 30.9 23.7 21.1 0 36.4-20.1 30.8-40.5-38.6-142.1-168.5-246.6-322.8-246.6-152.9 0-281.9 102.6-321.8 242.7-8.4-1-16.9-1.5-25.6-1.5-118 0-213.7 95.6-213.9 213.5 0 117.7 98.1 214.1 216 214.1h138.8c17.7 0 32-14.3 32-32z" p-id="2399"></path></svg>