<?xml version="1.0" standalone="no"?><!DOCTYPE svg PUBLIC "-//W3C//DTD SVG 1.1//EN" "http://www.w3.org/Graphics/SVG/1.1/DTD/svg11.dtd"><svg t="1710388162107" class="icon" viewBox="0 0 1029 1024" version="1.1" xmlns="http://www.w3.org/2000/svg" p-id="2952" xmlns:xlink="http://www.w3.org/1999/xlink" width="200.9765625" height="200"><path d="M871.424 188.416c39.936 0 72.192 32.768 72.192 73.728v466.944l24.064-24.576H120.832c-39.936 0-72.192-32.768-72.192-73.728V163.84l-24.064 24.576h846.848zM0 139.264v491.52c0 68.096 53.76 122.88 120.832 122.88h871.424v-491.52c0-68.096-53.76-122.88-120.832-122.88H0z m673.792 837.12c13.312 0 24.064-10.752 24.064-24.576s-10.752-24.576-24.064-24.576H317.952c-13.312 0-24.064 10.752-24.064 24.576s10.752 24.576 24.064 24.576h355.84z" p-id="2953"></path><path d="M395.264 942.08c0 5.12 10.752 9.728 24.576 9.728s24.576-4.608 24.576-9.728v-143.36c0-5.12-10.752-9.728-24.576-9.728-13.824 0-24.576 4.608-24.576 9.728v143.36z m152.576 0c0 5.12 10.752 9.728 24.576 9.728 13.312 0 24.576-4.608 24.576-9.728v-143.36c0-5.12-10.752-9.728-24.576-9.728s-24.576 4.608-24.576 9.728v143.36zM254.464 561.664V360.448h71.68c22.016 0 38.912 4.096 50.688 12.288 11.776 8.192 17.92 19.968 17.92 34.816 0 10.752-3.584 20.48-11.264 28.672-7.168 8.192-16.896 13.824-27.648 16.896v0.512c13.824 1.536 25.6 7.168 33.792 15.36 8.704 8.704 12.8 19.456 12.8 32.768 0 18.432-6.656 32.768-19.456 43.52s-30.72 16.384-53.248 16.384H254.464z m43.008-169.472v49.664h20.48c9.728 0 17.408-2.56 23.04-7.168 5.632-4.608 8.704-11.264 8.704-19.456 0-15.36-11.264-23.04-33.792-23.04h-18.432z m0 82.432v55.296h25.6c10.752 0 19.456-2.56 25.6-7.68 6.144-5.12 9.216-11.776 9.216-20.992 0-8.704-3.072-14.848-9.216-19.968-6.144-4.608-14.848-7.168-26.112-7.168h-25.088zM611.328 561.664h-46.592l-14.848-46.08H476.16l-14.848 46.08H414.72l73.728-201.216h50.688l72.192 201.216z m-71.68-79.36l-23.04-69.632c-1.536-4.608-2.56-10.24-3.072-17.408h-1.536c-0.512 6.144-1.536 11.776-3.584 16.896l-23.04 70.144h54.272zM627.712 510.976c16.384 13.312 34.816 19.968 55.296 19.968 11.776 0 20.48-2.048 26.624-6.144 6.144-4.096 8.704-9.216 8.704-15.36 0-5.632-2.56-10.752-7.168-15.36-4.608-4.608-16.896-11.264-36.864-19.968-31.232-13.312-47.104-32.768-47.104-58.368 0-18.944 7.168-33.28 21.504-43.52 14.336-10.24 33.28-15.36 56.832-15.36 19.456 0 36.352 2.56 49.664 7.68v40.448c-13.312-9.216-29.184-13.824-47.616-13.824-10.752 0-18.944 2.048-25.6 5.632-6.144 4.096-9.728 9.216-9.728 15.36 0 5.12 2.048 10.24 6.656 14.336 4.096 4.608 14.848 10.24 32.256 17.92 19.968 8.704 33.792 17.408 41.472 27.136s11.264 20.992 11.264 34.304c0 19.456-6.656 34.304-20.48 44.032-13.824 10.24-33.28 15.36-58.368 15.36-23.04 0-41.984-3.584-56.832-11.264v-43.008z" p-id="2954"></path></svg>