<?xml version="1.0" standalone="no"?><!DOCTYPE svg PUBLIC "-//W3C//DTD SVG 1.1//EN" "http://www.w3.org/Graphics/SVG/1.1/DTD/svg11.dtd"><svg t="1710389503685" class="icon" viewBox="0 0 1024 1024" version="1.1" xmlns="http://www.w3.org/2000/svg" p-id="2469" xmlns:xlink="http://www.w3.org/1999/xlink" width="200" height="200"><path d="M127.584 128l-31.584 0 0 768 832 0 0-30.816-799.872-1.6-0.544-735.584zM352 160c0-17.696-14.336-32-32-32l-96 0c-17.696 0-32 14.304-32 32l0 640 160 0 0-640zM544 352c0-17.696-14.336-32-32-32l-96 0c-17.696 0-32 14.304-32 32l0 448 160 0 0-448zM736 544c0-17.696-14.336-32-32-32l-96 0c-17.696 0-32 14.304-32 32l0 256 160 0 0-256zM896 704l-96 0c-17.696 0-32 14.304-32 32l0 64 160 0 0-64c0-17.696-14.336-32-32-32z" p-id="2470"></path></svg>