<svg t="1711339592877" class="icon" viewBox="0 0 1024 1024" version="1.1" xmlns="http://www.w3.org/2000/svg" p-id="20650" width="200" height="200"><path d="M592.301505 541.242414c-17.06295 0 3.42499 8.546975 25.609925 11.940965a176.155484 176.155484 0 0 0 16.646951-14.084958 125.472632 125.472632 0 0 1-27.499919 2.976991 128.189624 128.189624 0 0 1-15.365955-0.927997l0.607998 0.063999z m91.332732-22.632933c9.827971-14.085959 17.06295-29.451914 20.071941-45.233868-2.560992 11.524966-8.546975 21.352937-14.085958 31.148909-32.012906 20.071941-2.976991-11.524966 0-23.91393-34.1569 43.120874-4.709986 25.609925-5.985983 37.998889z m33.292903-87.491744c2.144994-30.73191-5.985982-21.352937-8.546975-9.379973 2.977991 1.696995 5.538984 21.352937 8.547975 9.379973zM528.275692 13.220961c8.546975 1.699995 19.207944 2.976991 17.926948 5.121985 9.827971-2.144994 11.940965-4.257988-18.342946-5.121985z m17.926948 5.121985l-6.399981 1.280997 5.985982-0.415999v-0.863998z m282.546172 424.298757c0.863997 27.30692-8.546975 40.559881-16.230952 64.025813l-14.949957 7.682977c-11.940965 23.048932 1.280996 14.949956-7.266978 33.292903-18.791945 16.646951-57.206832 52.084847-69.147798 55.478837-8.546975 0 5.985982-10.659969 8.099977-14.499957-25.193926 17.06295-20.48794 25.609925-58.487829 36.270893l-1.280996-2.560992c-94.757722 44.39987-226.235337-43.537872-224.090344-163.90652-1.279996 7.266979-2.976991 5.537984-5.121985 8.546975-0.351999-3.841989-0.543998-8.290976-0.543998-12.804963a151.491556 151.491556 0 0 1 85.026751-136.182601l0.899997-0.383998a143.36258 143.36258 0 0 1 159.355533 20.614939l-0.159999-0.127999a142.499583 142.499583 0 0 0-112.90967-55.510838c-1.119997 0-2.240993 0-3.36099 0.032h0.16c-50.355852 0.415999-97.319715 32.428905-113.099669 66.999804-25.609925 16.230952-28.587916 62.745816-39.699884 70.844792-15.363955 110.992675 28.170917 158.787535 101.579703 215.13037 11.524966 8.099976 3.42499 8.963974 5.121985 14.949956a202.436407 202.436407 0 0 1-65.113809-49.267856l-0.192-0.223999c9.827971 14.085959 20.071941 28.170917 34.1579 38.831886-23.465931-7.682977-54.199841-55.478837-63.161815-57.622831 39.699884 70.844792 161.345527 124.626635 224.506342 98.183713-5.599984 0.415999-12.132964 0.671998-18.727945 0.671998a263.915227 263.915227 0 0 1-82.593758-13.156962l1.856995 0.543999c-14.085959-6.81898-32.876904-21.768936-29.867913-24.329929a243.725286 243.725286 0 0 0 95.974719 19.367943 246.632277 246.632277 0 0 0 156.319542-55.574837l-0.447999 0.351999c18.791945-14.949956 39.699884-40.111882 45.682867-40.559881-8.546975 13.66996 1.699995 6.81898-5.121985 18.791945 18.791945-30.73191-8.546975-12.804962 19.623942-52.916845l10.24397 14.085958c-3.841989-25.609925 31.599907-56.342835 28.170918-96.454717 8.099976-12.804962 8.546975 12.804962 0 41.392879 12.388964-31.599907 3.42499-36.270894 6.399981-62.328818 3.42499 8.546975 7.682977 17.926947 9.827971 26.890922-7.682977-29.867912 8.546975-51.22085 11.940965-68.2838-3.841989-2.144994-11.940965 12.804962-13.66996-22.632934 0-15.781954 4.257988-8.546975 5.985983-11.940965-3.42499-2.144994-11.107967-13.66996-16.230953-36.718893 3.42499-5.537984 9.379973 14.085959 14.499958 14.499958-3.42499-17.926947-8.546975-32.012906-8.546975-46.099865-14.499958-29.035915-5.121985 4.257988-17.06295-12.804962-14.499958-46.514864 12.804962-10.659969 14.499957-31.599908 23.048932 32.876904 35.854895 83.649755 41.840878 104.999692-4.257988-25.609925-11.940965-51.22085-20.899939-75.134779 6.81898 2.976991-11.108967-52.916845 8.963974-15.781954-27.499919-81.088762-82.913757-146.61957-154.526548-186.507454l-1.699995-0.863997c7.682977 7.266979 17.926947 16.646951 14.085959 17.926947-32.012906-19.207944-26.474922-20.48794-31.148909-28.587916-26.026924-10.659969-27.754919 0.863997-45.233867 0-49.523855-26.474922-58.899827-23.465931-104.137695-40.559881l2.144994 9.827971c-32.876904-10.659969-38.415887 4.257988-73.853784 0-2.144994-1.699995 11.524966-5.985982 22.632934-7.682977-31.599907 4.257988-29.867912-5.985982-61.048821 1.280996 7.266979-5.537984 15.365955-8.963974 23.465931-13.66996-25.609925 1.699995-61.46482 14.949956-50.355853 2.976991-42.252876 19.214944-116.938657 45.689866-158.779535 84.937751l-1.280996-9.379972c-19.207944 23.048932-83.649755 68.731799-88.77174 98.599711l-5.537983 1.280996c-9.827971 17.06295-16.230952 36.270894-24.329929 53.781843-12.804962 22.184935-19.207944 8.546975-17.06295 11.940965C130.451858 303.099112 117.645895 347.051983 106.537928 383.322877c7.682977 11.524966 0 70.428794 2.976991 117.807655-12.802962 233.053317 163.90652 459.704653 356.847955 512.206499 28.587916 9.827971 70.428794 9.827971 106.282688 10.659969-42.256876-11.940965-47.79986-6.399981-88.77174-20.899939-29.867912-13.66996-36.270894-29.867912-57.206832-48.243858l8.543975 14.943956c-41.392879-14.499958-24.329929-17.926947-58.03983-28.587916l8.963974-11.524967c-13.220961-1.280996-35.437896-22.632934-41.392879-34.573898l-14.499958 0.415998c-17.510949-21.352937-26.890921-37.134891-26.026923-49.523855l-4.705986 8.546975c-5.537984-8.963974-64.88981-81.088762-34.1579-64.441811-5.537984-5.121985-13.220961-8.546975-21.352938-23.465931l5.985983-7.266979c-14.949956-18.791945-27.30692-43.537872-26.474923-51.22085 8.546975 10.24397 13.66996 12.804962 19.207944 14.085959-37.55089-92.613729-39.699884-5.121985-68.2838-93.893725l6.399981-0.863997c-4.257988-6.81898-7.682977-14.499958-11.108967-21.768937l2.560992-25.609925c-26.890921-31.599907-7.682977-132.309612-3.841988-187.819449 2.976991-23.048932 22.632934-46.962862 37.55089-84.513753l-8.963974-1.699995c17.06295-30.315911 99.880707-122.513641 138.299595-117.807655 18.342946-23.465931-3.841989 0-7.682978-5.985982 40.97688-42.256876 53.781842-29.867912 81.088763-37.55089 29.867912-17.06295-25.609925 6.81898-11.524967-6.399981 51.22085-12.804962 36.270894-29.867912 103.305698-36.270894 6.81898 4.257988-16.646951 5.985982-22.184935 11.108967 42.672875-20.899939 134.454606-15.781954 194.638429 11.524967 69.567796 32.878904 147.679567 128.469624 150.688559 218.970358l3.42499 0.863998c-1.699995 36.270894 5.537984 77.699772-7.266979 115.662661l8.547975-17.926948zM407.043047 564.707346l-2.144993 11.940965c11.108967 14.949956 20.071941 31.148909 34.1579 43.120873-10.24497-20.070941-17.926947-28.170917-32.012907-55.477837z m26.474923-1.279997c-5.985982-6.399981-9.379973-14.499958-13.220961-22.184935 3.42499 13.66996 11.108967 25.609925 18.342946 37.55089z m466.939632-101.576702l-2.976991 6.399981c-4.257988 32.428905-14.499958 64.441811-29.451914 94.341724a280.952177 280.952177 0 0 0 32.012906-100.744705zM531.252684 5.121985C542.77765 0.863997 559.424601 2.976991 571.810565 0c-15.781954 1.280996-31.599907 2.144994-46.962863 4.257988l6.399982 0.863997zM128.306864 219.384357c2.976991 24.329929-18.342946 34.1579 4.705986 17.926948 12.804962-28.170917-4.705986-7.682977-4.257987-17.926948zM101.411943 332.934025c5.121985-16.646951 6.399981-26.474922 8.546975-35.854895-14.946956 18.791945-7.262979 22.633934-8.546975 35.438896z" fill="#A81D33" p-id="20651"></path></svg>