<?xml version="1.0" standalone="no"?><!DOCTYPE svg PUBLIC "-//W3C//DTD SVG 1.1//EN" "http://www.w3.org/Graphics/SVG/1.1/DTD/svg11.dtd"><svg t="1710388168247" class="icon" viewBox="0 0 1024 1024" version="1.1" xmlns="http://www.w3.org/2000/svg" p-id="3227" xmlns:xlink="http://www.w3.org/1999/xlink" width="200" height="200"><path d="M874.666667 525.397333c-41.813333 64.682667-101.077333 118.186667-167.338667 162.346667a351.914667 351.914667 0 0 1-146.048 264.746667 39.509333 39.509333 0 0 1-24.448 7.936 35.968 35.968 0 0 1-15.786667-3.114667 41.386667 41.386667 0 0 1-25.216-31.530667c-6.314667-37.802667-23.68-79.530667-48.128-122.197333-27.690667 7.936-55.253333 14.250667-80.512 18.133333-2.389333 0.810667-4.693333 0.810667-7.125333 0.810667a43.093333 43.093333 0 0 1-29.952-12.629333L215.466667 695.637333a42.666667 42.666667 0 0 1-11.818667-37.034666c4.693333-25.173333 10.24-52.821333 18.133333-80.341334-42.581333-25.216-84.48-41.728-121.6-48.042666a41.386667 41.386667 0 0 1-31.573333-25.173334 41.130667 41.130667 0 0 1 4.693333-40.277333c61.568-86.613333 159.530667-139.52 264.490667-146.602667 43.392-66.133333 97.109333-125.269333 161.792-166.997333 123.178667-80.469333 268.458667-86.741333 420.010667-86.741333 22.869333 0 41.813333 18.901333 41.813333 41.728 0 144.298667-7.125333 296.277333-86.826667 419.242666z m-244.736 206.464c-37.888 19.712-76.586667 35.413333-114.474667 49.621334 16.554667 28.330667 29.184 57.557333 37.888 85.845333a278.058667 278.058667 0 0 0 76.586667-135.466667zM157.098667 470.997333c28.330667 8.704 56.832 22.016 85.973333 37.802667 13.44-37.802667 29.994667-77.226667 48.938667-115.072a283.008 283.008 0 0 0-134.912 77.226667z m387.541333-251.306666C410.410667 307.2 322.005333 495.530667 290.389333 650.752l82.901334 82.773333c155.52-31.573333 343.381333-120.618667 431.061333-254.506666 60.757333-92.970667 71.082667-209.621333 72.576-331.690667-123.093333 1.493333-239.061333 12.501333-332.288 72.448z m122.410667 207.957333a70.357333 70.357333 0 0 1-70.272-70.144c0-38.613333 31.573333-70.144 70.272-70.144 38.656 0 70.272 31.530667 70.272 70.144-0.853333 38.613333-31.573333 70.144-70.272 70.144z m-543.957334 386.986667a69.632 69.632 0 0 1 67.072-49.664c38.698667 0 70.272 31.530667 70.272 70.144 0 31.530667-21.333333 58.368-49.706666 66.986666l-100.266667 30.72c-1.621333 0-2.389333 0.768-3.925333 0.768a14.165333 14.165333 0 0 1-14.208-14.208c0-1.578667 0-3.114667 0.810666-3.882666l29.952-100.906667z" p-id="3228"></path></svg>