<?xml version="1.0" standalone="no"?><!DOCTYPE svg PUBLIC "-//W3C//DTD SVG 1.1//EN" "http://www.w3.org/Graphics/SVG/1.1/DTD/svg11.dtd"><svg t="1711084303177" class="icon" viewBox="0 0 1024 1024" version="1.1" xmlns="http://www.w3.org/2000/svg" p-id="1776" xmlns:xlink="http://www.w3.org/1999/xlink" width="200" height="200"><path d="M512 51.2c-253.44 0-460.8 207.36-460.8 460.8s207.36 460.8 460.8 460.8 460.8-207.36 460.8-460.8-207.36-460.8-460.8-460.8z m-339.8656 460.8c0-184.32 149.76-339.8656 339.8656-339.8656 74.9056 0 144.0256 23.04 195.84 63.3856L235.52 707.84C195.2256 656.0256 172.1856 586.9056 172.1856 512zM512 851.8144c-69.12 0-132.5056-23.04-190.1056-57.6l472.3712-472.32A352.2048 352.2048 0 0 1 851.7632 512c0 184.32-155.4944 339.8144-339.8144 339.8144z" fill="#F56C6C" p-id="1777"></path></svg>