<?xml version="1.0" standalone="no"?><!DOCTYPE svg PUBLIC "-//W3C//DTD SVG 1.1//EN" "http://www.w3.org/Graphics/SVG/1.1/DTD/svg11.dtd"><svg t="1710388176395" class="icon" viewBox="0 0 1024 1024" version="1.1" xmlns="http://www.w3.org/2000/svg" p-id="3637" xmlns:xlink="http://www.w3.org/1999/xlink" width="200" height="200"><path d="M382.890667 170.666667c-19.413333 14.592-36.266667 32.426667-49.749334 52.693333a128 128 0 0 0 0 235.946667c4.949333 7.466667 10.410667 14.592 16.213334 21.333333-21.632 15.957333-41.386667 35.029333-58.666667 56.618667-67.84 39.253333-116.48 120.448-120.746667 216.746666L128 740.394667c9.173333-116.736 75.904-214.058667 166.784-252.928A170.666667 170.666667 0 0 1 382.890667 170.666667z m256.042666 0a170.666667 170.666667 0 0 1 88.149334 316.842666c91.136 38.997333 157.994667 136.746667 166.826666 253.866667l-41.941333 13.568c-4.010667-96.682667-52.693333-178.304-120.789333-217.685333a313.344 313.344 0 0 0-58.709334-56.576 214.186667 214.186667 0 0 0 16.213334-21.376 128 128 0 0 0 0-235.946667A214.528 214.528 0 0 0 638.976 170.666667zM422.826667 487.509333a170.666667 170.666667 0 1 1 176.298666 0c97.962667 41.898667 167.850667 151.68 167.850667 280.490667 0 12.373333-0.64 24.533333-1.877333 36.48A680.789333 680.789333 0 0 1 510.933333 853.333333c-89.813333 0-175.573333-17.322667-254.122666-48.853333A351.36 351.36 0 0 1 254.933333 768c0-128.853333 69.888-238.592 167.850667-280.490667zM510.933333 810.666667c73.6 0 145.450667-12.416 213.248-36.394667l0.085334-6.272c0-142.72-97.109333-256-213.333334-256s-213.333333 113.28-213.333333 256l0.042667 6.272c67.84 23.978667 139.690667 36.394667 213.290666 36.394667z m0-341.333334a128 128 0 1 0 0-256 128 128 0 0 0 0 256z" p-id="3638"></path></svg>