<svg t="1711338399081" class="icon" viewBox="0 0 1183 1024" version="1.1" xmlns="http://www.w3.org/2000/svg" p-id="4811" width="200" height="200"><path d="M1038.74322 192.279588h-507.843174L412.907958 33.254609H38.443563v851.529039c0 56.445323 46.165221 102.615692 102.589953 102.615691h897.714851c56.429879 0 102.595101-46.170369 102.595101-102.615691V294.869541c-0.005148-56.419584-46.170369-102.589953-102.600248-102.589953z" fill="#F0CF6E" p-id="4812"></path><path d="M1040.107379 192.609046c17.9091 17.136934 29.16213 41.187326 29.16213 67.780717v540.356503c0 51.699077-42.283801 93.988025-93.972582 93.988026H153.007234c-51.683633 0-93.972582-42.288949-93.972582-93.988026V33.254609h-25.738861v851.529039c0 56.445323 46.165221 102.615692 102.589953 102.615691h897.714851c56.429879 0 102.595101-46.170369 102.595101-102.615691V294.869541c-0.005148-54.221485-42.675032-98.857818-96.088317-102.260495z" fill="#6E6E96" opacity=".15" p-id="4813"></path><path d="M38.443563 115.618964h374.464395l117.992088 159.019832h507.843174c45.326134 0 83.970461 29.815897 97.447328 70.771573v-35.097511c0-56.419584-46.165221-102.595101-102.595101-102.595101h-507.843173L407.760186 48.697925H33.295791v851.529039c0 11.108892 1.842902 21.79052 5.147772 31.833824V115.618964z" fill="#FFFFFF" opacity=".23" p-id="4814"></path><path d="M1038.74322 166.540727h-507.843174a25.738861 25.738861 0 0 1 20.668305 10.403648L433.576264 17.919395a25.738861 25.738861 0 0 0-20.668306-10.403648H38.443563a25.738861 25.738861 0 0 0-25.738861 25.738862v851.529039c0 70.771573 57.567537 128.354553 128.328814 128.354553h897.714851c70.761277 0 128.333962-57.58298 128.333962-128.354553V294.869541c-0.005148-70.761277-57.577832-128.328814-128.339109-128.328814z m76.856239 128.328814v589.908959c0 42.381609-34.474631 76.876831-76.856239 76.876831H141.033516c-42.371313 0-76.851092-34.484926-76.851092-76.876831V33.254609a25.738861 25.738861 0 0 1-25.738861 25.738861h374.464395a25.754304 25.754304 0 0 1-20.673453-10.403648L510.23174 207.609654a25.728566 25.728566 0 0 0 20.668306 10.403648h507.843174c42.381609 0.005148 76.856239 34.479778 76.856239 76.856239z" fill="#6E6E96" p-id="4815"></path></svg>