<svg xmlns="http://www.w3.org/2000/svg" width="20" height="20" viewBox="0 0 20 20" fill="none">
  <path fill-rule="evenodd" clip-rule="evenodd" d="M10.0002 4.16667C6.31825 4.16667 3.3335 7.15142 3.3335 10.8333V16.6667H16.6668V10.8333C16.6668 7.15142 13.6821 4.16667 10.0002 4.16667ZM10.6252 7.5V10.9375H12.5002L9.37516 15V11.5625H7.50016L10.6252 7.5Z" fill="white" fill-opacity="0.4"/>
  <path d="M10.8332 2.96001V0.416668H9.1665V2.96001C9.44038 2.93136 9.71838 2.91667 9.99984 2.91667C10.2813 2.91667 10.5593 2.93136 10.8332 2.96001Z" fill="white"/>
  <path d="M17.4878 3.69078L15.7679 5.41067C15.3858 5.00442 14.9613 4.63854 14.5015 4.32008L16.3093 2.51227L17.4878 3.69078Z" fill="white"/>
  <path d="M5.49853 4.32008C5.03866 4.6385 4.61416 5.00442 4.23207 5.41063L2.51221 3.69078L3.69072 2.51227L5.49853 4.32008Z" fill="white"/>
  <path d="M17.9168 16.6667V18.3333H2.0835V16.6667H17.9168Z" fill="white"/>
  <path d="M10.625 7.5V10.9375H12.5L9.375 15V11.5625H7.5L10.625 7.5Z" fill="white"/>
</svg>