
<?xml version="1.0" standalone="no"?><!DOCTYPE svg PUBLIC "-//W3C//DTD SVG 1.1//EN" "http://www.w3.org/Graphics/SVG/1.1/DTD/svg11.dtd"><svg t="1710382573860" class="icon" viewBox="0 0 1191 1024" version="1.1" xmlns="http://www.w3.org/2000/svg" p-id="6266" xmlns:xlink="http://www.w3.org/1999/xlink" width="232.6171875" height="200"><path d="M809.12 482.272a16.96 16.96 0 0 1 16.96 16.96v31.744a16.96 16.96 0 0 1-16.96 16.96H374.4a16.96 16.96 0 0 1-16.96-16.96v-31.904a16.96 16.96 0 0 1 16.96-16.96h434.72z m0-34.112H374.4a50.88 50.88 0 0 0-50.912 50.912v31.744c0 28.096 22.784 50.912 50.912 50.912h434.72c28.096 0 50.912-22.784 50.912-50.912v-31.744a50.88 50.88 0 0 0-50.912-50.912z" p-id="6267"></path><path d="M388.32 506.528h16.8v16.8h-16.8v-16.8zM411.744 506.528h16.8v16.8h-16.8v-16.8zM435.136 506.528h16.8v16.8h-16.8v-16.8zM458.56 506.528h16.8v16.8h-16.8v-16.8zM746.848 506.528h49.216v16.8h-49.216v-16.8zM809.12 633.952a16.96 16.96 0 0 1 16.96 16.96v31.744a16.96 16.96 0 0 1-16.96 16.96H374.4a16.96 16.96 0 0 1-16.96-16.96v-31.744a16.96 16.96 0 0 1 16.96-16.96h434.72z m0-33.952H374.4a50.88 50.88 0 0 0-50.912 50.912v31.744c0 28.096 22.784 50.912 50.912 50.912h434.72c28.096 0 50.912-22.784 50.912-50.912v-31.744c0-28.096-22.784-50.912-50.912-50.912z" p-id="6268"></path><path d="M388.32 658.4h16.8v16.8h-16.8v-16.8zM411.744 658.4h16.8v16.8h-16.8v-16.8zM435.136 658.4h16.8v16.8h-16.8v-16.8zM458.56 658.4h16.8v16.8h-16.8v-16.8zM746.848 658.4h49.216v16.8h-49.216v-16.8zM809.12 785.824a16.96 16.96 0 0 1 16.96 16.96v31.744a16.96 16.96 0 0 1-16.96 16.96H374.4a16.96 16.96 0 0 1-16.96-16.96v-31.744a16.96 16.96 0 0 1 16.96-16.96h434.72z m0-33.952H374.4a50.88 50.88 0 0 0-50.912 50.912v31.744c0 28.096 22.784 50.912 50.912 50.912h434.72c28.096 0 50.912-22.784 50.912-50.912v-31.744c0-28.096-22.784-50.912-50.912-50.912z" p-id="6269"></path><path d="M388.32 810.08h16.8v16.8h-16.8v-16.8zM411.744 810.08h16.8v16.8h-16.8v-16.8zM435.136 810.08h16.8v16.8h-16.8v-16.8zM458.56 810.08h16.8v16.8h-16.8v-16.8zM746.848 810.08h49.216v16.8h-49.216v-16.8z" p-id="6270"></path><path d="M968.448 452.384v-9.344c-1.408-168.448-138.272-304.48-306.944-304.48a307.008 307.008 0 0 0-275.616 171.68l-0.8 1.792a158.528 158.528 0 0 0-225.856 113.056l-0.16 0.992c-93.344 32.704-159.104 120.064-159.104 222.784a235.52 235.52 0 0 0 226.528 235.328h0.416v-38.848a196.416 196.416 0 0 1-188.512-196.16 196.416 196.416 0 0 1 132-185.536l1.376-0.416 21.216-7.648 3.904-23.072a118.944 118.944 0 0 1 170.336-84.512l-0.672-0.32 35.968 17.984 16.96-36.128c44.288-90.144 135.424-151.072 240.768-151.072a267.392 267.392 0 0 1 267.392 265.152v8.448l-1.024 40.032h40.544a176.96 176.96 0 0 1 0 353.92h-10.688v39.04h12.032a216.352 216.352 0 1 0-0.32-432.512h0.32z" p-id="6271"></path></svg>