<svg xmlns="http://www.w3.org/2000/svg" width="88" height="88" viewBox="0 0 88 88" fill="none">
  <path fill-rule="evenodd" clip-rule="evenodd" d="M82 30.6428C82 35.5287 80.0611 39.9616 76.9107 43.2143H77.0019L66.2857 53.9305V48.5619C65.5142 48.6624 64.7274 48.7143 63.9286 48.7143C63.0686 48.7143 62.2227 48.6542 61.3947 48.538L55.5804 34.5335H46.277C46.002 33.2804 45.8571 31.9785 45.8571 30.6428C45.8571 20.6623 53.948 12.5714 63.9286 12.5714C73.9091 12.5714 82 20.6623 82 30.6428ZM67.0714 22H61.5714L62.5641 33H65.9207L67.0714 22ZM64.3214 35.3571L62.3571 36.5357V38.8928L64.3214 40.0714L66.2857 38.8928V36.5357L64.3214 35.3571Z" fill="#E9EFF5"/>
  <path d="M28.1786 62.8571V56.5714H16V75.4286H64.7143V56.5714H52.5357V62.8571H28.1786Z" fill="#E9EFF5"/>
  <path d="M61.3947 48.5381C53.8997 47.4864 47.8796 41.8373 46.277 34.5336H25.1339L16 56.5336H28.1786V62.8571H52.5357V56.5336H64.7143L61.3947 48.5381Z" fill="#D5E1ED"/>
  <path d="M67.0713 22H61.5713L62.564 33H65.9205L67.0713 22Z" fill="#BDCEDE"/>
  <path d="M64.3213 35.3571L62.357 36.5357V38.8929L64.3213 40.0714L66.2856 38.8929V36.5357L64.3213 35.3571Z" fill="#BDCEDE"/>
  <path d="M61.3946 48.538C53.8996 47.4864 47.8794 41.8373 46.2769 34.5335H55.5802L61.3946 48.538Z" fill="#BDCEDE"/>
</svg>