<?xml version="1.0" standalone="no"?><!DOCTYPE svg PUBLIC "-//W3C//DTD SVG 1.1//EN" "http://www.w3.org/Graphics/SVG/1.1/DTD/svg11.dtd"><svg t="1710383610292" class="icon" viewBox="0 0 1024 1024" version="1.1" xmlns="http://www.w3.org/2000/svg" p-id="28611" xmlns:xlink="http://www.w3.org/1999/xlink" width="200" height="200"><path d="M571.733333 402.730667l-0.021333 0.128c-18.517333 64.341333-88.96 62.634667-131.797333 21.888-53.056-50.965333-99.776-137.856-112.853334-193.450667-10.602667-44.437333 4.373333-89.28 29.653334-109.226667 98.645333-77.376 259.541333-75.818667 343.381333-27.136 57.344 33.408 43.264 90.154667-18.346667 135.552-51.2 37.781333-90.965333 104.597333-110.016 172.245334z m80.917334-211.733334c37.546667-27.690667 41.322667-42.858667 22.784-53.653333-67.605333-39.253333-206.933333-40.597333-288.362667 23.296-10.048 7.914667-18.496 33.216-12.288 59.349333 11.029333 46.826667 53.205333 125.290667 99.029333 169.28 20.138667 19.157333 45.013333 19.797333 50.709334 0.085334 21.76-77.269333 67.029333-153.28 128.128-198.357334z m-201.429334 323.413334c-0.64 23.146667-12.928 47.573333-30.442666 63.957333-53.418667 49.984-144.277333 93.589333-203.84 106.517333-45.696 9.429333-91.818667-4.437333-112.490667-27.861333-82.773333-93.930667-81.216-248.021333-29.12-327.893333 34.645333-53.418667 91.669333-40.789333 139.690667 17.066666 40 48.32 111.061333 86.186667 183.296 104.533334 34.645333 8.661333 53.76 32.896 52.906666 63.701333z m-64.832-16.085334l-0.106666-0.021333c-81.450667-20.693333-161.450667-63.296-209.066667-120.789333-29.930667-36.074667-48.682667-40.234667-60.757333-21.632-40.874667 62.656-42.197333 192.682667 24.789333 268.672 8.64 9.792 36.8 18.261333 65.536 12.330666 51.157333-11.093333 134.016-50.88 180.48-94.357333 8.426667-7.893333 14.656-20.266667 14.912-29.461333 0.213333-7.402667-3.093333-11.584-15.786667-14.72z m197.077334 94.634667c52.970667 50.773333 99.413333 137.28 112.896 193.642667 10.389333 44.202667-4.736 89.514667-29.781334 109.034666-98.410667 77.269333-259.029333 75.733333-343.530666 27.328-57.301333-33.536-43.2-90.005333 18.56-135.722666 51.157333-37.802667 90.986667-104.618667 110.144-172.288 18.261333-64.618667 88.853333-62.762667 131.712-21.994667z m-84.48 35.349333c-21.909333 77.290667-67.2 153.322667-128.192 198.4-37.824 27.989333-41.578667 43.029333-23.168 53.802667 68.16 39.018667 207.36 40.362667 288.725333-23.530667 9.728-7.594667 18.325333-33.301333 12.266667-59.072-11.370667-47.509333-53.290667-125.610667-99.029334-169.472-20.181333-19.2-45.056-19.84-50.602666-0.128z m73.237333-125.226666c0.682667-23.104 13.013333-47.488 30.506667-63.850667 53.632-50.069333 144.874667-93.866667 203.690666-106.261333 45.696-9.728 91.370667 3.904 112.810667 27.52 82.901333 93.845333 81.173333 248 28.928 328.021333-34.688 53.290667-91.498667 40.661333-139.733333-17.173333-40.170667-48.341333-111.253333-86.250667-183.445334-104.661334-34.602667-8.618667-53.696-32.832-52.757333-63.616z m64.64 16l0.170667 0.042666c81.386667 20.736 161.365333 63.381333 209.088 120.832 30.144 36.117333 48.853333 40.298667 60.928 21.76 41.002667-62.805333 42.453333-192.853333-24.362667-268.501333-9.173333-10.112-37.056-18.432-66.112-12.245333-50.56 10.666667-133.717333 50.56-180.330667 94.122666-8.448 7.893333-14.72 20.266667-14.976 29.44-0.213333 7.338667 2.986667 11.413333 15.616 14.549334z m-170.88-10.24c0-16.149333 9.088-30.869333 23.402667-38.805334a46.613333 46.613333 0 0 1 44.650666 0 44.288 44.288 0 0 1 23.36 38.826667c0 24.96-20.778667 44.48-45.696 44.48s-45.696-19.626667-45.696-44.48z m49.066667 0c0-2.858667-1.770667-4.565333-3.349334-4.565334-1.536 0-3.370667 1.749333-3.370666 4.586667 0 1.984 0.981333 3.605333 2.069333 4.202667 0.874667 0.469333 1.706667 0.469333 2.602667 0 1.130667-0.64 2.069333-2.154667 2.069333-4.202667z"  p-id="28612"></path></svg>