<?xml version="1.0" standalone="no"?><!DOCTYPE svg PUBLIC "-//W3C//DTD SVG 1.1//EN" "http://www.w3.org/Graphics/SVG/1.1/DTD/svg11.dtd"><svg t="1710383734716" class="icon" viewBox="0 0 1117 1024" version="1.1" xmlns="http://www.w3.org/2000/svg" p-id="32173" xmlns:xlink="http://www.w3.org/1999/xlink" width="218.1640625" height="200"><path d="M1009.943273 0.744727H103.237818A102.4 102.4 0 0 0 1.024 103.005091v808.168727a102.4 102.4 0 0 0 102.306909 102.260364H1010.036364a102.4 102.4 0 0 0 102.260363-102.260364V103.005091a102.539636 102.539636 0 0 0-102.4-102.260364zM77.358545 308.689455h958.510546v602.344727c0 14.242909-11.636364 25.925818-25.925818 25.925818H103.237818a26.065455 26.065455 0 0 1-25.879273-25.925818V308.689455z m25.925819-231.563637H1010.036364c14.242909 0 25.925818 11.636364 25.925818 25.879273v129.303273H77.358545V103.005091c0-14.242909 11.636364-25.879273 25.925819-25.879273z" p-id="32174"></path><path d="M704.512 776.378182c0 9.821091 3.723636 18.990545 10.658909 25.925818l0.139636 0.139636a36.305455 36.305455 0 0 0 25.879273 10.658909c9.774545 0 18.990545-3.863273 25.925818-10.798545l153.972364-153.693091a36.770909 36.770909 0 0 0 0-51.851636L767.069091 442.786909a36.119273 36.119273 0 0 0-25.553455-10.24 36.631273 36.631273 0 0 0-26.298181 62.231273l127.813818 127.767273-127.767273 127.953454a36.398545 36.398545 0 0 0-10.798545 25.925818z m-219.787636 96.721454l0.232727 0.139637a36.910545 36.910545 0 0 0 45.381818-25.041455l122.973091-430.778182a36.538182 36.538182 0 0 0-24.901818-45.242181h-0.139637a38.120727 38.120727 0 0 0-10.565818-1.629091 36.584727 36.584727 0 0 0-34.676363 25.786181c-0.139636 0.232727-0.139636 0.605091-0.279273 0.837819l-123.066182 430.685091a36.677818 36.677818 0 0 0 25.041455 45.242181z m-138.705455-70.656a36.910545 36.910545 0 0 0 51.944727-0.139636 36.770909 36.770909 0 0 0 0-51.805091L269.963636 622.685091l128-128.046546a36.770909 36.770909 0 0 0-26.437818-62.138181c-9.681455 0-18.618182 3.723636-25.553454 10.426181L192.139636 596.712727a36.770909 36.770909 0 0 0 0 51.805091l153.832728 153.972364z"  p-id="32175"></path></svg>