<?xml version="1.0" standalone="no"?><!DOCTYPE svg PUBLIC "-//W3C//DTD SVG 1.1//EN" "http://www.w3.org/Graphics/SVG/1.1/DTD/svg11.dtd"><svg t="1710388196386" class="icon" viewBox="0 0 1024 1024" version="1.1" xmlns="http://www.w3.org/2000/svg" p-id="4597" xmlns:xlink="http://www.w3.org/1999/xlink" width="200" height="200"><path d="M725.333333 128h170.666667a42.666667 42.666667 0 0 1 42.666667 42.666667v682.666666a42.666667 42.666667 0 0 1-42.666667 42.666667H128a42.666667 42.666667 0 0 1-42.666667-42.666667V170.666667a42.666667 42.666667 0 0 1 42.666667-42.666667h170.666667V42.666667h85.333333v85.333333h256V42.666667h85.333333v85.333333z m128 256V213.333333h-128v85.333334h-85.333333V213.333333H384v85.333334H298.666667V213.333333H170.666667v170.666667h682.666666z m0 85.333333H170.666667v341.333334h682.666666v-341.333334zM256 554.666667h213.333333v170.666666H256v-170.666666z" p-id="4598"></path></svg>