<?xml version="1.0" standalone="no"?><!DOCTYPE svg PUBLIC "-//W3C//DTD SVG 1.1//EN" "http://www.w3.org/Graphics/SVG/1.1/DTD/svg11.dtd"><svg t="1710213429712" class="icon" viewBox="0 0 1024 1024" version="1.1" xmlns="http://www.w3.org/2000/svg" p-id="12848" xmlns:xlink="http://www.w3.org/1999/xlink" width="200" height="200"><path d="M617.2 825.3h32v-32h-32v32z m64.1 0h32.1v-32h-32.1v32z m64.2 0h32.1v-32h-32.1v32zM168 761.2h673.8v96.3H168v-96.3z m-32.1 128.3h738V729.1h-738v160.4zM200 119.5l-64.1 609.6h33.4l62.8-577.5h545.5l62.8 577.5h33.4l-64.1-609.6z" fill="" p-id="12849"></path><path d="M293.8 501.6c0-49 39.7-88.7 88.7-88.7h1.3c5-30.5 22.8-52.5 27.6-58 23-27.8 57.8-45.5 96.7-45.5 56.9 0 105 37.9 120.4 89.8 6 9.8 6 54.2 6 57.8v0.5c2.2-0.2 4.3-0.3 6.6-0.3 36.7 0 66.5 38.5 66.5 66.5s-27 37-36.9 37c-1.4 0-4 0-7.7-0.2v0.2H323.3c-6.1 0-29.5-10.3-29.5-59.1M361 385.3c-55.1 10.1-96.8 58.3-96.8 116.3 0 65.3 33.9 88.6 44.3 88.6H663v0.3c18.9 0 74.1-13.8 74.1-66.8 0-45.4-31.5-83.5-74-93.5-2.5-83.5-71-150.4-155.1-150.4-68.2 0.1-126.2 44.2-147 105.5" fill="" p-id="12850"></path><path d="M397.9 412.9h16.9c13.6-37.7 48.4-65.4 90.1-68.6v-16.1c-50.6 3.4-92.7 38-107 84.7" fill="" p-id="12851"></path></svg>