<?xml version="1.0" standalone="no"?><!DOCTYPE svg PUBLIC "-//W3C//DTD SVG 1.1//EN" "http://www.w3.org/Graphics/SVG/1.1/DTD/svg11.dtd"><svg t="1710210964141" class="icon" viewBox="0 0 1024 1024" version="1.1" xmlns="http://www.w3.org/2000/svg" p-id="5977" xmlns:xlink="http://www.w3.org/1999/xlink" width="200" height="200"><path d="M540.672 713.728H265.216c-13.312 0-23.552-10.24-23.552-23.552 0-13.312 10.24-23.552 23.552-23.552h275.456c13.312 0 23.552 10.24 23.552 23.552 0 13.312-10.24 23.552-23.552 23.552z"  p-id="5978"></path><path d="M471.04 817.664c-6.144 0-12.288-2.56-16.384-7.168-9.216-8.704-9.216-24.064 0-33.28l88.064-87.552-88.064-88.064c-9.216-9.216-9.216-24.064 0-33.28 9.216-8.704 24.064-8.704 33.792 0l104.448 104.448c9.216 9.216 9.216 24.064 0 32.768l-104.448 104.448c-5.12 5.632-11.264 7.68-17.408 7.68z"  p-id="5979"></path><path d="M748.544 962.56H76.8c-13.312 0-23.552-10.24-23.552-23.552V88.064c0-13.312 10.24-23.552 23.552-23.552h671.744c13.312 0 23.552 10.24 23.552 23.552v850.944c0 13.312-10.24 23.552-23.552 23.552zM120.832 894.976h583.68l5.12-762.88h-588.8v778.24-15.36zM985.6 65.024h-144.896c-6.144 0-11.776 3.584-15.872 9.216s-6.656 13.312-6.656 22.016v724.992c0 6.656 1.536 12.8 4.096 17.92l71.68 109.568c4.096 8.704 11.264 14.336 19.456 14.336 6.144 0 11.776-3.584 15.872-9.216 1.024-1.536 2.048-3.584 3.072-5.12l72.704-110.592c2.048-5.12 3.584-10.752 3.584-16.384V96.768c0-8.192-2.56-15.872-6.656-22.016-4.096-6.656-10.24-9.728-16.384-9.728z m-29.696 752.128l-42.496 90.112-42.496-90.624V245.248h84.992v571.904z m0-625.664h-84.992V108.544h84.992v82.944z"  p-id="5980"></path><path d="M584.192 324.096H221.184c-16.896 0-30.72-13.824-30.72-30.72s13.824-30.72 30.72-30.72h363.008c16.896 0 30.72 13.824 30.72 30.72s-13.824 30.72-30.72 30.72zM584.192 474.624H221.184c-16.896 0-30.72-13.824-30.72-30.72s13.824-30.72 30.72-30.72h363.008c16.896 0 30.72 13.824 30.72 30.72s-13.824 30.72-30.72 30.72z"  p-id="5981"></path></svg>