<svg xmlns="http://www.w3.org/2000/svg" width="14" height="14" viewBox="0 0 14 14" fill="none">
  <path d="M7.58301 2.91667C7.58301 2.27233 8.10535 1.75 8.74967 1.75C9.18152 1.75 9.55855 1.98462 9.76027 2.33333H12.2497V3.5H9.76027C9.55855 3.84872 9.18152 4.08333 8.74967 4.08333C8.10535 4.08333 7.58301 3.56099 7.58301 2.91667Z" fill="black"/>
  <path d="M6.70833 2.33334H1.75V3.5H6.70833V2.33334Z" fill="black"/>
  <path d="M5.25 8.16667C4.81816 8.16667 4.44112 7.93205 4.2394 7.58333H1.75V6.41667H4.2394C4.44112 6.06795 4.81816 5.83333 5.25 5.83333C5.89432 5.83333 6.41667 6.35568 6.41667 7C6.41667 7.64432 5.89432 8.16667 5.25 8.16667Z" fill="black"/>
  <path d="M12.2503 7.58333H7.29199V6.41667H12.2503V7.58333Z" fill="black"/>
  <path d="M1.75 10.5H6.70833V11.6667H1.75V10.5Z" fill="black"/>
  <path d="M8.74967 9.91667C9.18152 9.91667 9.55855 10.1513 9.76027 10.5H12.2497V11.6667H9.76027C9.55855 12.0154 9.18152 12.25 8.74967 12.25C8.10535 12.25 7.58301 11.7277 7.58301 11.0833C7.58301 10.439 8.10535 9.91667 8.74967 9.91667Z" fill="black"/>
</svg>