<?xml version="1.0" standalone="no"?><!DOCTYPE svg PUBLIC "-//W3C//DTD SVG 1.1//EN" "http://www.w3.org/Graphics/SVG/1.1/DTD/svg11.dtd"><svg t="1710497924287" class="icon" viewBox="0 0 1024 1024" version="1.1" xmlns="http://www.w3.org/2000/svg" p-id="20173" xmlns:xlink="http://www.w3.org/1999/xlink" width="200" height="200"><path d="M335.008 916.63c-35.915 22.314-82.88 10.773-104.693-25.558a77.333 77.333 0 0 1-8.96-57.43l46.485-198.24a13.141 13.141 0 0 0-4.021-12.863l-152.16-132.587c-31.606-27.52-35.254-75.648-8.235-107.733a75.68 75.68 0 0 1 51.733-26.752L354.848 339.2c4.352-0.363 8.245-3.232 10.027-7.595l76.938-188.17c16.032-39.2 60.619-57.92 99.52-41.462a76.31 76.31 0 0 1 40.832 41.462l76.939 188.16c1.781 4.373 5.675 7.253 10.027 7.605l199.712 16.277c41.877 3.414 72.885 40.459 69.568 82.518a76.939 76.939 0 0 1-26.08 51.978L760.17 622.56c-3.542 3.083-5.142 8.075-4.022 12.853l46.486 198.24c9.621 41.014-15.36 82.336-56.139 92.224a75.285 75.285 0 0 1-57.525-9.237L517.995 810.4a11.296 11.296 0 0 0-12.011 0L334.997 916.64z m216.779-160.598l170.976 106.24c2.624 1.621 5.717 2.123 8.65 1.408 6.411-1.557 10.56-8.427 8.928-15.424l-46.485-198.24a77.141 77.141 0 0 1 24.277-75.733l152.16-132.576c2.486-2.166 4.054-5.312 4.331-8.747 0.565-7.136-4.49-13.173-10.976-13.696l-199.712-16.288a75.99 75.99 0 0 1-64.064-47.168l-76.939-188.16a12.31 12.31 0 0 0-6.538-6.741c-5.899-2.496-12.726 0.373-15.328 6.741l-76.95 188.16a75.99 75.99 0 0 1-64.064 47.168l-199.701 16.288a11.68 11.68 0 0 0-7.979 4.181 13.227 13.227 0 0 0 1.334 18.262l152.16 132.586a77.141 77.141 0 0 1 24.277 75.734l-46.485 198.229a13.333 13.333 0 0 0 1.514 9.877c3.488 5.792 10.582 7.531 16.064 4.128l170.987-106.229a75.296 75.296 0 0 1 79.563 0z" p-id="20174" fill="#2c2c2c"></path></svg>