<svg xmlns="http://www.w3.org/2000/svg" width="16" height="16" viewBox="0 0 16 16" fill="none">
  <path d="M7.66959 1.52233C7.87453 1.40521 8.12616 1.40521 8.33109 1.52233L14.4939 5.0439C14.7178 5.17187 14.7178 5.49477 14.4939 5.62274L8.33109 9.14431C8.12616 9.26144 7.87453 9.26144 7.66959 9.14431L1.50682 5.62274C1.28288 5.49477 1.28288 5.17187 1.50682 5.0439L7.66959 1.52233Z" fill="#B6C2CD"/>
  <path d="M5.66703 8L1.50682 10.3773C1.28288 10.5052 1.28288 10.8281 1.50682 10.9561L7.66959 14.4777C7.87453 14.5948 8.12616 14.5948 8.33109 14.4777L14.4939 10.9561C14.7178 10.8281 14.7178 10.5052 14.4939 10.3773L10.3337 8L8.33109 9.14433C8.12616 9.26143 7.87453 9.26143 7.66959 9.14433L5.66703 8Z" fill="#324558"/>
</svg>