<svg t="1711339498221" class="icon" viewBox="0 0 1111 1024" version="1.1" xmlns="http://www.w3.org/2000/svg" p-id="16753" width="200" height="200"><path d="M239.36 935.68c-41.143 0-79.909-10.24-115.749-29.989-35.84-19.748-63.451-44.982-82.102-74.971-18.469-29.257-30.172-60.526-34.926-93.074C2.377 707.657 0 662.674 0 603.794V354.56c0-83.2 4.571-142.263 13.897-180.846 10.24-42.423 38.4-80.823 84.114-114.651C143.36 25.417 201.874 8.41 272.457 8.41c68.754 0 126.903 14.446 172.983 43.338 46.994 29.257 78.629 65.462 93.44 106.788 13.897 39.497 20.663 93.623 20.663 166.034v62.172H289.28V284.526c0-62.72-3.657-78.629-4.937-81.92-0.732-0.366-2.377-0.732-4.937-0.732-2.377 0-3.292 0.366-4.023 0.366v0.366c-0.366 0.365-4.937 11.154-4.937 69.12v143.36h288.548V917.76h-181.76l-10.605-31.634c-10.606 10.605-21.943 19.383-34.56 26.331-25.966 15.726-57.6 23.223-92.709 23.223z m33.097-874.971c-59.246 0-107.52 13.531-143.726 40.411-35.84 26.331-57.6 54.857-64.731 85.211-8.229 34.195-12.251 91.063-12.251 168.96V604.71c0 56.137 2.011 98.56 5.851 126.171 3.657 25.051 12.8 49.554 27.246 72.594 14.08 22.309 35.474 41.692 63.817 57.235 27.977 15.36 58.514 23.405 90.331 23.405 25.966 0 48.64-5.303 67.475-16.091 18.468-10.606 34.194-26.88 46.628-48.64l28.526-49.92 32.548 97.28h92.709V467.2H303.36v75.52h44.069v125.623c0 43.703-3.292 72.046-10.606 89.051-9.509 23.04-30.172 36.206-56.137 36.206-25.052 0-44.435-12.434-52.846-34.194-4.206-10.606-9.143-29.623-9.143-84.115V272.274c0-61.805 4.937-80.457 9.874-90.697 9.143-19.383 27.612-30.537 51.018-30.537 37.851 0 50.285 25.051 54.308 35.84 3.657 10.606 7.497 30.903 7.497 98.56v50.286h166.583V325.12c0-65.463-5.851-115.749-17.737-148.846-10.789-30.171-34.926-57.234-71.68-80.274-38.583-23.589-87.589-35.291-146.103-35.291z m3.657 680.411s0.915 0.731 4.572 0.731c6.583 0 7.314-1.645 8.594-4.205 2.011-4.572 6.583-20.663 6.583-68.755V595.2h-25.234v80.274c0 47.726 4.022 61.44 5.302 64.732 0.183 0.548 0.183 0.914 0.183 0.914z m571.612 189.257c-48.64 0-91.063-5.668-125.623-16.457-36.572-11.52-65.829-29.623-86.857-53.943-20.297-23.588-35.109-52.297-43.703-85.211-8.229-31.635-12.252-76.983-12.252-138.057V460.25c0-66.742 7.498-120.32 22.309-159.085 15.726-41.509 44.617-74.606 85.394-99.657 39.863-24.32 90.697-36.572 151.589-36.572 50.286 0 94.354 7.863 131.108 23.04 37.486 15.36 67.475 36.572 88.138 62.172 20.297 25.234 34.925 51.565 42.422 78.811 7.498 26.331 11.155 64.366 11.155 116.114V613.67c0 64.365-3.292 110.811-9.875 141.714-6.948 32.914-22.308 63.817-44.982 91.794-23.406 28.526-53.578 49.92-89.783 63.452-34.56 13.348-74.606 19.748-119.04 19.748z m-8.777-713.326c-51.018 0-93.075 9.875-124.526 28.892-31.269 18.651-52.297 43.154-63.817 73.691-12.435 32.915-19.017 80.275-19.017 140.617V636.71c0 55.954 3.657 98.011 10.605 124.891 6.583 25.234 17.372 46.629 32.549 64.183 14.446 16.823 35.84 29.623 63.086 38.4 29.622 9.143 66.377 14.08 109.714 14.08 38.217 0 72.411-5.669 101.303-16.092 27.611-10.24 50.285-26.331 67.474-47.725 17.737-21.76 29.257-45.349 34.926-70.035 5.851-26.88 8.96-70.948 8.96-130.925V444.89c0-46.08-2.926-80.457-9.143-101.851-5.669-20.297-16.823-40.411-32.914-60.16-15.36-19.017-38.4-34.926-68.023-46.994-30.355-12.252-67.84-18.835-111.177-18.835z m6.582 591.543c-22.308 0-40.045-11.154-48.274-30.537-4.023-9.143-8.228-25.6-8.228-73.691V393.69c0-51.565 4.205-68.022 8.594-77.165 4.023-8.96 16.457-28.892 48.64-28.892 32.548 0 44.617 20.663 48.274 29.623 4.023 9.143 7.497 25.234 7.497 76.617v317.623c0 44.069-4.205 59.429-8.228 68.754-3.657 8.229-16.092 28.343-48.275 28.343z m-0.731-51.748h2.377c0.914-4.206 3.292-16.457 3.292-45.715v-317.44c0-35.474-2.012-49.554-2.926-54.491h-2.926c-0.914 4.206-3.291 17.371-3.291 54.491v310.675c-0.366 36.023 2.194 48.64 3.474 52.48z" fill="#1296DB" p-id="16754"></path></svg>