<svg width="16" height="16" viewBox="0 0 16 16" fill="none" xmlns="http://www.w3.org/2000/svg">
<g clip-path="url(#clip0_1327_1967)">
<path d="M13.6711 0.214189C13.8776 -0.00769457 14.1965 -0.0851659 14.4818 0.0172295C14.767 0.119625 14.9639 0.382184 14.9822 0.684747L15 5.25727C12.6456 6.11563 9.88552 7.99624 7.18225 11.0451L7.17738 11.0516L3.07704 15.6306C2.79414 15.9477 2.36357 16.0898 1.9475 16.0034C1.53144 15.9169 1.1931 15.6151 1.05993 15.2115C0.926766 14.808 1.019 14.3641 1.3019 14.047L11.6071 2.44366L13.6711 0.214189ZM9.88228 9.87036C11.3086 8.74914 12.9717 7.97353 15 8.18609L14.9124 13.5634C14.9268 13.9273 14.7256 14.2656 14.399 14.4266C14.0724 14.5876 13.6816 14.5412 13.4017 14.3082L9.88228 9.87036Z" fill="#C31D20"/>
</g>
<defs>
<clipPath id="clip0_1327_1967">
<rect width="16" height="16" fill="white"/>
</clipPath>
</defs>
</svg>
