<svg width="1em" height="1em" viewBox="0 0 16 16" fill="currentColor" xmlns="http://www.w3.org/2000/svg">
<g clip-path="url(#clip0_615_1905)">
<path d="M5.96915 5.86427V4.91011C6.0517 4.9036 6.15028 4.89916 6.24934 4.8981H6.25184C8.86808 4.81552 10.5833 7.14916 10.5833 7.14916C10.5833 7.14916 8.73256 9.71843 6.74718 9.71843C6.48472 9.71893 6.22388 9.67723 5.97465 9.59491V6.69534C6.99385 6.81885 7.2 7.26723 7.80741 8.28643L9.16835 7.14314C9.16835 7.14314 8.17316 5.84075 6.5 5.84075C6.47342 5.84025 6.44196 5.83975 6.41044 5.83975C6.2568 5.8398 6.10328 5.84848 5.95062 5.86577L5.96913 5.86421L5.96915 5.86427ZM5.96915 2.70508V4.13157L6.25184 4.11351C9.88786 3.99 12.2625 7.09558 12.2625 7.09558C12.2625 7.09558 9.54061 10.4074 6.70516 10.4074C6.46027 10.4065 6.2159 10.3849 5.97465 10.3429V11.227C6.17599 11.2525 6.37863 11.2664 6.58156 11.2685C9.2214 11.2685 11.1312 9.91909 12.9815 8.32798C13.2877 8.57565 14.5426 9.17055 14.8028 9.43023C13.046 10.9033 8.95063 12.0881 6.62859 12.0881C6.41212 12.0883 6.1958 12.0764 5.98064 12.0526V13.2959H16.0101V2.70608L5.96915 2.70508ZM5.96915 9.59379V10.3484C3.52946 9.91207 2.85156 7.37281 2.85156 7.37281C2.85156 7.37281 4.02438 6.07592 5.96915 5.86377V6.68884H5.96364C4.94444 6.56476 4.14239 7.51941 4.14239 7.51941C4.14239 7.51941 4.59621 9.12851 5.96965 9.59434L5.96915 9.59379ZM1.63816 7.26623C1.63816 7.26623 3.08163 5.13326 5.97465 4.90911V4.13107C2.77049 4.39075 0 7.10113 0 7.10113C0 7.10113 1.56758 11.6388 5.96963 12.0511V11.226C2.7409 10.8257 1.63864 7.26567 1.63864 7.26567L1.63816 7.26623Z" fill="#76B900"/>
</g>
<defs>
<clipPath id="clip0_615_1905">
<rect width="16" height="16" fill="white"/>
</clipPath>
</defs>
</svg>
