<?xml version="1.0" standalone="no"?><!DOCTYPE svg PUBLIC "-//W3C//DTD SVG 1.1//EN" "http://www.w3.org/Graphics/SVG/1.1/DTD/svg11.dtd"><svg t="1716437006710" class="icon" viewBox="0 0 1024 1024" version="1.1" xmlns="http://www.w3.org/2000/svg" p-id="2657" xmlns:xlink="http://www.w3.org/1999/xlink" width="200" height="200"><path d="M650.2 652.8H381V383.5h269.2v269.3z m-247.7-21.6h226.2V405H402.5v226.2z" fill="#231815" p-id="2658"></path><path d="M798.9 801.4H232.3V234.8h566.6v566.6zM263 770.7h505.2V265.5H263v505.2z m94.9-684.5v148.6h-39.2V86.2M82.5 326.5h148.6v39.2H82.5m0 128.6h148.6v39.2H82.5m0 132.4h148.6v39.2H82.5m716.4-378.6h148.6v39.2H798.9m0 128.6h148.6v39.2H798.9m0 132.4h148.6v39.2H798.9M536.2 86.2v148.6H497V86.2m208 0v148.6h-39.2V86.2M365.5 801.4V950h-39.2V801.4m209.9 0V950H497V801.4m208 0V950h-39.2V801.4" fill="" p-id="2659"></path><path d="M435.8 439.6h49.5v49.5h-49.5z" fill="#231815" p-id="2660"></path><path d="M285.6 285.1h18.8v466.2h-18.8z" fill="" p-id="2661"></path></svg>