<?xml version="1.0" standalone="no"?><!DOCTYPE svg PUBLIC "-//W3C//DTD SVG 1.1//EN" "http://www.w3.org/Graphics/SVG/1.1/DTD/svg11.dtd"><svg t="1710388188864" class="icon" viewBox="0 0 1024 1024" version="1.1" xmlns="http://www.w3.org/2000/svg" p-id="4182" xmlns:xlink="http://www.w3.org/1999/xlink" width="200" height="200"><path d="M496.128 566.741333c-46.634667-22.272-80.938667-55.594667-102.869333-99.84-21.973333-44.288-27.904-91.733333-17.749334-142.464 12.16-50.688 37.504-91.392 76.032-122.154666 38.528-30.72 83.456-46.805333 134.826667-48.170667 52.053333 1.365333 97.322667 17.408 135.850667 48.170667 38.528 30.72 63.872 71.466667 76.032 122.154666 10.154667 50.688 4.266667 98.176-17.706667 142.464-21.973333 44.245333-56.618667 77.568-103.936 99.84 138.538667 30.421333 231.808 130.474667 279.808 300.117334a30.08 30.08 0 0 1-3.541333 21.290666 29.141333 29.141333 0 0 1-16.725334 12.672 26.026667 26.026667 0 0 1-21.333333-2.048 30.208 30.208 0 0 1-14.165333-16.725333c-25.002667-89.898667-63.530667-156.8-115.584-200.746667-52.053333-43.946667-118.101333-65.877333-198.186667-65.877333-80.085333 0-146.176 21.973333-198.186667 65.877333-52.053333 43.946667-90.581333 110.848-115.626666 200.746667-3.328 11.52-10.453333 18.773333-21.248 21.802667a25.898667 25.898667 0 0 1-27.904-8.106667 27.818667 27.818667 0 0 1-6.570667-28.885333c48-169.642667 140.928-269.653333 278.784-300.117334z m90.24-37.504c45.312-1.365333 82.773333-16.896 112.554667-46.634666 29.738667-29.738667 45.269333-67.242667 46.634666-112.512-1.365333-44.629333-16.896-81.792-46.634666-111.530667-29.738667-29.738667-67.242667-45.312-112.554667-46.634667-44.586667 1.322667-81.792 16.896-111.530667 46.634667-29.738667 29.738667-45.226667 66.901333-46.634666 111.530667 1.365333 45.226667 16.896 82.773333 46.634666 112.512 29.738667 29.738667 66.944 45.269333 111.530667 46.634666zM167.68 379.178667c0-47.317333 12.501333-86.485333 37.504-117.589334 25.002667-31.104 61.866667-53.76 110.506667-67.925333a31.36 31.36 0 0 1 21.290666 3.541333 26.368 26.368 0 0 1 13.184 17.237334 30.165333 30.165333 0 0 1-2.048 21.802666 28.16 28.16 0 0 1-16.213333 14.208c-35.84 10.794667-62.165333 26.666667-79.061333 47.616-16.896 20.992-25.344 48-25.344 81.109334 0 33.152 9.088 60.16 27.349333 81.109333 18.261333 20.949333 46.634667 36.522667 85.162667 46.634667a30.464 30.464 0 0 1 14.72 10.154666c3.712 4.693333 5.888 10.154667 6.570666 16.213334a28.032 28.032 0 0 1-3.541333 17.237333 29.354667 29.354667 0 0 1-12.672 12.16c-131.84 63.573333-197.034667 139.221333-195.669333 227.114667 0 8.106667-2.858667 15.018667-8.618667 20.778666a28.928 28.928 0 0 1-21.290667 8.618667 27.306667 27.306667 0 0 1-20.778666-8.618667 33.493333 33.493333 0 0 1-9.130667-20.778666c0.682667-98.688 58.112-181.802667 172.373333-249.429334-62.208-34.432-93.653333-88.192-94.293333-161.194666z" p-id="4183"></path></svg>