<svg t="1711361466825" class="icon" viewBox="0 0 1024 1024" version="1.1" xmlns="http://www.w3.org/2000/svg" p-id="2482" width="200" height="200"><path d="M511.992 0.328c-23.484 0-42.566 19.05-42.566 42.566v938.18c0 23.516 19.082 42.598 42.566 42.598 23.546 0 42.614-19.082 42.614-42.598V42.894c0-23.516-19.066-42.566-42.614-42.566z" fill="#965353" p-id="2483"></path><path d="M150.224 150.168c-16.676 16.646-16.676 43.596 0 60.244l663.342 663.386c16.676 16.616 43.596 16.616 60.274 0 16.614-16.644 16.614-43.596 0-60.242L210.436 150.168c-16.614-16.614-43.598-16.614-60.212 0z" fill="#965353" p-id="2484"></path><path d="M0.32 512c0 23.516 19.082 42.566 42.598 42.566h938.164c23.546 0 42.598-19.05 42.598-42.566 0-23.548-19.05-42.598-42.598-42.598H42.918C19.402 469.402 0.32 488.452 0.32 512z" fill="#965353" p-id="2485"></path><path d="M150.224 873.798c16.616 16.616 43.598 16.616 60.212 0L873.84 210.412c16.614-16.646 16.614-43.598 0-60.244-16.678-16.614-43.598-16.614-60.274 0L150.224 813.556c-16.646 16.648-16.678 43.598 0 60.242z" fill="#965353" p-id="2486"></path><path d="M641.114 512c0 71.296-57.776 129.074-129.122 129.074-71.266 0-129.074-57.778-129.074-129.074 0-71.33 57.806-129.106 129.074-129.106 71.346 0 129.122 57.776 129.122 129.106z" fill="#A85D5D" p-id="2487"></path><path d="M533.292 512c0 11.742-9.526 21.268-21.298 21.268-11.742 0-21.298-9.526-21.298-21.268 0-11.774 9.556-21.298 21.298-21.298A21.284 21.284 0 0 1 533.292 512z" fill="#434A54" p-id="2488"></path><path d="M841.796 781.516l-129.168-129.106a245.096 245.096 0 0 1-60.21 60.21l129.106 129.106a429.06 429.06 0 0 0 60.272-60.21zM182.266 242.454l129.106 129.136a246.818 246.818 0 0 1 60.21-60.242l-129.104-129.106a430.254 430.254 0 0 0-60.212 60.212z" opacity=".1" p-id="2489"></path><path d="M554.606 935.76v-182.602a245.322 245.322 0 0 1-42.614 3.716c-14.49 0-28.732-1.282-42.566-3.716v182.602a426.246 426.246 0 0 0 42.566 2.124 427.06 427.06 0 0 0 42.614-2.124zM469.426 88.208v182.602a245.46 245.46 0 0 1 42.566-3.716c14.554 0 28.792 1.282 42.614 3.716V88.208a435.63 435.63 0 0 0-42.614-2.092c-14.366 0-28.544 0.718-42.566 2.092z" opacity=".1" p-id="2490"></path><path d="M242.478 841.726l129.104-129.106a246.688 246.688 0 0 1-60.21-60.21l-129.106 129.106a428.528 428.528 0 0 0 60.212 60.21zM781.524 182.242l-129.106 129.106c23.422 16.426 43.848 36.82 60.21 60.242l129.106-129.136a425.352 425.352 0 0 0-60.21-60.212z" opacity=".1" p-id="2491"></path><path d="M756.914 512c0 14.522-1.312 28.73-3.686 42.566h182.57A434.946 434.946 0 0 0 937.922 512c0-14.398-0.748-28.608-2.124-42.598h-182.57c2.374 13.834 3.686 28.046 3.686 42.598zM267.15 512c0-14.552 1.25-28.764 3.684-42.598H88.264c-1.436 13.99-2.124 28.2-2.124 42.598a426.4 426.4 0 0 0 2.092 42.566h182.602A245.204 245.204 0 0 1 267.15 512z" opacity=".1" p-id="2492"></path><path d="M511.992 128.682C300.316 128.682 128.708 300.292 128.708 512c0 211.678 171.608 383.286 383.286 383.286 211.692 0 383.332-171.608 383.332-383.286-0.002-211.708-171.642-383.318-383.334-383.318z m0 660.14c-152.87 0-276.822-123.952-276.822-276.822 0-152.902 123.952-276.854 276.822-276.854 152.918 0 276.84 123.952 276.84 276.854 0 152.872-123.922 276.822-276.84 276.822z" fill="#A85D5D" p-id="2493"></path></svg>