<svg xmlns="http://www.w3.org/2000/svg" width="14" height="14" viewBox="0 0 14 14" fill="none">
  <path fill-rule="evenodd" clip-rule="evenodd" d="M6.99984 12.8333C10.2215 12.8333 12.8332 10.2216 12.8332 6.99996C12.8332 3.7783 10.2215 1.16663 6.99984 1.16663C3.77817 1.16663 1.1665 3.7783 1.1665 6.99996C1.1665 10.2216 3.77817 12.8333 6.99984 12.8333ZM6.13828 5.35721L4.95817 5.12405C5.16531 4.14028 5.98215 3.49996 7.02352 3.49996C7.99894 3.49996 8.87613 4.12057 9.01878 5.18171C9.11964 5.93188 8.88447 6.39881 8.31557 6.95913C8.29883 6.97563 8.25759 7.0158 8.21851 7.05386L8.21816 7.05418C8.18368 7.08778 8.15093 7.11966 8.13818 7.1322C7.72638 7.53738 7.58358 7.79942 7.58358 8.31135H6.37917C6.37917 7.44458 6.66658 6.91716 7.27992 6.3137C7.29541 6.29847 7.33289 6.26195 7.3699 6.2259C7.40665 6.19012 7.44305 6.15465 7.45688 6.14103C7.79186 5.81115 7.86839 5.65914 7.82447 5.33238C7.76651 4.90142 7.43462 4.66663 7.02352 4.66663C6.55236 4.66663 6.2306 4.91886 6.13828 5.35721ZM7.58317 9.77079C7.58317 10.093 7.32201 10.3541 6.99984 10.3541C6.67766 10.3541 6.4165 10.093 6.4165 9.77079C6.4165 9.44862 6.67766 9.18746 6.99984 9.18746C7.32201 9.18746 7.58317 9.44862 7.58317 9.77079Z" fill="#324558"/>
</svg>