<svg t="1710233318330" class="icon" viewBox="0 0 1024 1024" version="1.1" xmlns="http://www.w3.org/2000/svg" p-id="6664" width="200" height="200"><path d="M832 128a42.666667 42.666667 0 0 1 33.621333 68.949333l-254.976 325.802667 4.010667 330.069333a42.666667 42.666667 0 0 1-60.586667 39.253334l-4.352-2.346667-182.186666-111.573333a42.666667 42.666667 0 0 1-20.394667-36.352v-221.909334l-191.957333-327.68a42.666667 42.666667 0 0 1 32-63.957333L192 128z m0 618.666667a42.666667 42.666667 0 0 1 4.992 85.034666l-4.992 0.298667h-128a42.666667 42.666667 0 0 1-4.992-85.034667l4.992-0.298666h128zM744.405333 213.333333H266.410667l160.213333 273.450667a42.666667 42.666667 0 0 1 5.504 15.914667l0.341333 5.632v209.536l95.914667 58.709333-3.242667-267.733333a42.666667 42.666667 0 0 1 5.802667-22.016l3.285333-4.778667L744.405333 213.333333z m87.594667 405.333334a42.666667 42.666667 0 0 1 4.992 85.034666l-4.992 0.298667h-128a42.666667 42.666667 0 0 1-4.992-85.034667l4.992-0.298666h128z m0-128a42.666667 42.666667 0 0 1 4.992 85.034666l-4.992 0.298667h-128a42.666667 42.666667 0 0 1-4.992-85.034667l4.992-0.298666h128z"  p-id="6665"></path></svg>