<?xml version="1.0" standalone="no"?><!DOCTYPE svg PUBLIC "-//W3C//DTD SVG 1.1//EN" "http://www.w3.org/Graphics/SVG/1.1/DTD/svg11.dtd"><svg t="1709707685811" class="icon" viewBox="0 0 3880 1024" version="1.1" xmlns="http://www.w3.org/2000/svg" p-id="5779" xmlns:xlink="http://www.w3.org/1999/xlink" width="757.8125" height="200"><path d="M1384.96 512.512h203.264V349.696h91.648v400.896h-91.136v-167.424h-203.264v167.424h-91.136V349.696h91.136v162.816zM1845.76 589.824c0 71.168 22.528 100.352 97.792 100.352 75.264 0 97.28-29.696 97.28-100.352V349.696h91.648v242.176c0 51.2-6.144 86.528-25.6 107.52-35.84 38.912-87.552 55.296-163.328 55.296-75.776 0-128-15.872-163.84-55.296-19.968-21.504-24.576-56.832-24.576-107.52V349.696h90.624v240.128z m584.704-240.128l184.832 400.896H2513.92l-39.936-95.232h-188.928l-38.4 95.232h-96.768l183.808-400.896h96.768zM2315.264 583.68h129.536l-65.536-154.112-64 154.112z m341.504-233.984l100.864 308.224 84.48-308.224h108.032l97.28 308.224 93.696-308.224h93.696l-134.144 400.896h-111.616l-92.672-299.008-80.896 299.008h-111.104L2560 349.696h96.768z m700.416 162.816h252.928v69.632h-252.928c0.512 72.192 31.232 98.304 102.912 98.304h150.016v69.632H3456c-52.224 0-93.184-3.584-135.168-34.816-44.544-32.768-66.56-85.504-66.56-158.208 0-141.824 64.512-207.872 204.288-207.872h151.552v69.632h-150.016c-65.536 0.512-98.816 30.72-102.912 93.696M3690.496 750.592h95.744V349.696h-95.744v400.896z" fill="#231916" p-id="5780"></path><path d="M180.224 441.344c3.072 61.44 49.664 97.792 49.664 97.792 74.24 72.192 254.464 163.84 296.448 184.832 0.512 0 2.56 1.024 4.096-0.512 0 0 1.536-1.536 1.024-3.584-114.688-250.368-271.36-440.32-271.36-440.32S174.592 360.448 180.224 441.344m18.432 351.744c32.768 57.856 87.552 102.912 144.384 89.088 39.424-9.728 128.512-72.192 157.696-93.184 2.048-2.048 1.536-3.584 1.536-3.584-0.512-2.56-4.096-2.56-4.096-2.56l-299.52 10.24z m-71.68-134.656c32.768 68.608 94.72 89.6 94.72 89.6 18.432 7.168 37.888 11.776 57.344 12.8 4.608 1.024 178.176 0 224.768 0 2.048 0 3.072-2.048 3.072-2.048 1.536-2.56-1.024-4.608-1.024-4.608-131.584-89.088-387.072-225.28-387.072-225.28-23.04 71.68 8.192 129.536 8.192 129.536m351.744-499.2c-79.36 20.48-98.304 92.672-98.304 92.672-14.336 45.568 0.512 95.232 0.512 95.232 26.624 117.76 156.672 310.784 184.832 351.232 2.048 2.048 3.584 1.024 3.584 1.024 3.072-1.024 2.56-3.584 2.56-3.584 43.008-431.104-45.056-545.792-45.056-545.792-13.312 1.024-48.128 9.216-48.128 9.216m144.896 536.576c0.512 2.56 2.56 3.072 2.56 3.072 3.072 1.024 4.096-1.536 4.096-1.536 28.672-41.472 158.208-233.472 184.832-350.72 0 0 14.336-56.832 0.512-95.232 0 0-19.456-73.216-99.328-92.672 0 0-23.04-5.632-47.104-9.216 0 0.512-88.576 114.688-45.568 546.304m73.216 87.04s-2.56 0.512-3.584 2.56c0 0-0.512 2.56 1.024 4.096 28.672 20.48 115.712 81.408 157.696 93.184 0 0 77.824 26.624 144.896-89.088l-300.032-10.752z m-6.656-29.184s-2.56 1.536-1.536 4.608c0 0 1.024 2.048 3.072 2.048 47.104 0 225.792 0 230.4-0.512 0 0 23.04-1.024 51.712-11.776 0 0 63.488-19.968 96.768-92.16 0 0 29.184-58.88 6.656-127.488-0.512-0.512-254.976 136.192-387.072 225.28m-24.576-35.328s-1.536 3.072 1.024 4.608c0 0 2.048 1.536 4.096 0.512 43.008-21.504 221.696-112.128 295.424-184.32 0 0 47.104-37.888 49.152-98.304 5.12-83.968-78.848-161.792-78.848-161.792s-156.672 189.44-270.848 439.296" fill="#E50113" p-id="5781"></path></svg>