<svg xmlns="http://www.w3.org/2000/svg" width="20" height="20" viewBox="0 0 20 20" fill="none">
  <path d="M0.833496 12.9167C0.833496 15.448 2.88553 17.5 5.41683 17.5H11.3027C11.2684 17.3668 11.2502 17.2272 11.2502 17.0833V8.75C11.2502 7.82954 11.9964 7.08333 12.9168 7.08333H16.1159C15.5437 4.46233 13.2094 2.5 10.4168 2.5C7.19516 2.5 4.5835 5.11167 4.5835 8.33333C4.5835 8.35854 4.58366 8.38371 4.58395 8.40883C2.4503 8.8005 0.833496 10.6698 0.833496 12.9167Z" fill="white" fill-opacity="0.4"/>
  <path fill-rule="evenodd" clip-rule="evenodd" d="M12.9167 8.33333C12.6865 8.33333 12.5 8.51987 12.5 8.74999V17.0833C12.5 17.3135 12.6865 17.5 12.9167 17.5H18.75C18.9801 17.5 19.1667 17.3135 19.1667 17.0833V8.74999C19.1667 8.51987 18.9801 8.33333 18.75 8.33333H12.9167ZM14.375 9.79166H17.2917V11.0417H14.375V9.79166ZM14.375 12.2917H17.2917V13.5417H14.375V12.2917ZM14.375 14.7917H17.2917V16.0417H14.375V14.7917Z" fill="white"/>
</svg>