<svg xmlns="http://www.w3.org/2000/svg" width="16" height="16" viewBox="0 0 16 16" fill="none">
  <path fill-rule="evenodd" clip-rule="evenodd" d="M1.99967 4C1.63148 4 1.33301 4.29847 1.33301 4.66667V14C1.33301 14.3682 1.63148 14.6667 1.99967 14.6667H11.333C11.7012 14.6667 11.9997 14.3682 11.9997 14V4.66667C11.9997 4.29847 11.7012 4 11.333 4H1.99967ZM6.66634 12C8.13911 12 9.33301 10.8061 9.33301 9.33333C9.33301 7.86057 8.13911 6.66667 6.66634 6.66667C5.19357 6.66667 3.99967 7.86057 3.99967 9.33333C3.99967 10.8061 5.19357 12 6.66634 12Z" fill="#B6C2CD"/>
  <path d="M6.66634 2.66666V3.99999H5.33301V1.99999C5.33301 1.6318 5.63147 1.33333 5.99967 1.33333H13.9997C14.3679 1.33333 14.6663 1.6318 14.6663 1.99999V9.99999C14.6663 10.3682 14.3679 10.6667 13.9997 10.6667H11.9997V9.33333H13.333V2.66666H6.66634Z" fill="#324558"/>
  <path d="M6.66634 10.6667C7.40271 10.6667 7.99967 10.0697 7.99967 9.33333C7.99967 8.59697 7.40271 8 6.66634 8C5.92997 8 5.33301 8.59697 5.33301 9.33333C5.33301 10.0697 5.92997 10.6667 6.66634 10.6667Z" fill="#324558"/>
</svg>