<svg xmlns="http://www.w3.org/2000/svg" width="16" height="16" viewBox="0 0 16 16" fill="none">
  <path fill-rule="evenodd" clip-rule="evenodd" d="M4.03617 2C3.8063 2 3.59267 2.11841 3.47083 2.31333L2 4.66667V13.3333C2 13.7015 2.29848 14 2.66667 14H13.3333C13.7015 14 14 13.7015 14 13.3333V4.66667L12.5292 2.31333C12.4073 2.11841 12.1937 2 11.9638 2H4.03617ZM12.6667 6H3.33333V8.66667H12.6667V6ZM12.6667 10H3.33333V12.6667H12.6667V10Z" fill="#B6C2CD"/>
  <path fill-rule="evenodd" clip-rule="evenodd" d="M3.33301 6H12.6663V8.66667H3.33301V6ZM3.99967 6.66667H5.33301V8H3.99967V6.66667ZM5.99967 6.66667H7.33301V8H5.99967V6.66667Z" fill="#324558"/>
  <path fill-rule="evenodd" clip-rule="evenodd" d="M3.33301 10H12.6663V12.6667H3.33301V10ZM3.99967 10.6667H5.33301V12H3.99967V10.6667ZM5.99967 10.6667H7.33301V12H5.99967V10.6667Z" fill="#324558"/>
</svg>