<svg xmlns="http://www.w3.org/2000/svg" width="20" height="20" viewBox="0 0 20 20" fill="none">
  <path d="M1.66666 3.33333C1.66666 2.8731 2.03975 2.5 2.49999 2.5H17.5C17.9602 2.5 18.3333 2.8731 18.3333 3.33333V13.3333C18.3333 13.7936 17.9602 14.1667 17.5 14.1667H2.49999C2.03975 14.1667 1.66666 13.7936 1.66666 13.3333V3.33333Z" fill="#B6C2CD"/>
  <path d="M8.75 14.1667H11.25V15.8259C11.3691 15.8776 12.1747 16.2097 13.3189 16.2483C13.5544 16.2562 13.75 16.4437 13.75 16.6793V17.4981H11.25V17.5H8.75V17.4981H6.25V16.6793C6.25 16.4437 6.44563 16.2562 6.68113 16.2483C7.82529 16.2097 8.63087 15.8776 8.75 15.8259V14.1667Z" fill="#324558"/>
</svg>