<svg xmlns="http://www.w3.org/2000/svg" width="14" height="14" viewBox="0 0 14 14" fill="none">
  <path fill-rule="evenodd" clip-rule="evenodd" d="M6.99984 12.8334C10.2215 12.8334 12.8332 10.2217 12.8332 7.00008C12.8332 3.77842 10.2215 1.16675 6.99984 1.16675C3.77817 1.16675 1.1665 3.77842 1.1665 7.00008C1.1665 10.2217 3.77817 12.8334 6.99984 12.8334ZM7.58317 7.00008V2.91675H6.4165V7.00008H7.58317ZM3.49984 7.00008C3.49984 5.58754 4.3366 4.37044 5.5415 3.81744V5.17851C5.00807 5.60615 4.6665 6.26321 4.6665 7.00008C4.6665 8.28875 5.71117 9.33341 6.99984 9.33341C8.28851 9.33341 9.33317 8.28875 9.33317 7.00008C9.33317 6.26321 8.9916 5.60615 8.45817 5.17851V3.81744C9.66307 4.37044 10.4998 5.58754 10.4998 7.00008C10.4998 8.93307 8.93283 10.5001 6.99984 10.5001C5.06685 10.5001 3.49984 8.93307 3.49984 7.00008Z" fill="#324558"/>
</svg>