<?xml version="1.0" standalone="no"?><!DOCTYPE svg PUBLIC "-//W3C//DTD SVG 1.1//EN" "http://www.w3.org/Graphics/SVG/1.1/DTD/svg11.dtd"><svg t="1710388191549" class="icon" viewBox="0 0 1024 1024" version="1.1" xmlns="http://www.w3.org/2000/svg" p-id="4321" xmlns:xlink="http://www.w3.org/1999/xlink" width="200" height="200"><path d="M984.423 1024H39.577V136.263h270.458v78.334H117.91v731.07h788.18v-731.07H713.965v-78.334h270.458V1024z" p-id="4322"></path><path d="M730.17 279.466H293.83V70.916h162.064v78.333h-83.731v51.884h279.674v-51.884h-82.923V70.916h161.257v208.55z" p-id="4323"></path><path d="M647.32 135.32h-78.333a57 57 0 0 0-113.987 0h-78.333a135.333 135.333 0 0 1 270.654 0zM255.078 426.477l256.71-1.21 0.37 78.334-256.71 1.21z m-1.712 228.476h511.59v78.333h-511.59z" p-id="4324"></path></svg>