<svg t="1711595902810" class="icon" viewBox="0 0 1117 1024" version="1.1" xmlns="http://www.w3.org/2000/svg" p-id="10841" width="200" height="200"><path d="M11.636364 0h1024v1024H11.636364z"  fill-opacity="0" p-id="10842"></path><path d="M883.61503 172.928h-0.085333A805.376 805.376 0 0 1 538.228364 52.266667H538.14303a27.306667 27.306667 0 0 0-29.013333-0.213334A825.258667 825.258667 0 0 1 163.956364 172.928H163.700364A27.050667 27.050667 0 0 0 139.636364 199.765333v399.530667c0 142.464 126.506667 267.434667 373.034666 374.4l0.426667 0.128a27.093333 27.093333 0 0 0 21.205333 0l0.384-0.128C781.172364 865.408 907.636364 741.674667 907.636364 599.296V199.765333a26.965333 26.965333 0 0 0-24.021334-26.837333"  p-id="10843"></path><path d="M700.361697 446.72H523.252364V269.653333L346.100364 552.96h177.152v177.152z" p-id="10844"></path></svg>