<?xml version="1.0" standalone="no"?><!DOCTYPE svg PUBLIC "-//W3C//DTD SVG 1.1//EN" "http://www.w3.org/Graphics/SVG/1.1/DTD/svg11.dtd"><svg t="1710388199042" class="icon" viewBox="0 0 1024 1024" version="1.1" xmlns="http://www.w3.org/2000/svg" p-id="4736" xmlns:xlink="http://www.w3.org/1999/xlink" width="200" height="200"><path d="M946.8 121.6H77.2c-8 0-14.6 6.6-14.6 14.6v648.5c0 8.2 6.6 14.6 14.6 14.6h420.3v73.8H351.2c-8.1 0-14.6 6.5-14.6 14.6s6.5 14.6 14.6 14.6H651c8.1 0 14.6-6.5 14.6-14.6s-6.5-14.6-14.6-14.6H526.6v-73.8h420.2c8.2 0 14.6-6.4 14.6-14.6V136.2c0-8-6.4-14.6-14.6-14.6z m-14.6 648.5H91.8V150.8h840.4v619.3z" p-id="4737"></path><path d="M208.5 325.9h59.8c6.7 33.3 36.3 58.4 71.5 58.4 35.3 0 64.8-25.1 71.5-58.4h439.3c8.2 0 14.6-6.4 14.6-14.6 0-8-6.4-14.6-14.6-14.6H411.4c-6.9-33.3-36.3-58.4-71.5-58.4s-64.7 25.1-71.5 58.4h-59.8c-8 0-14.6 6.6-14.6 14.6-0.1 8.2 6.5 14.6 14.5 14.6z m131.4-58.4c19.1 0 35.3 12.3 41.3 29.2 1.6 4.5 2.5 9.5 2.5 14.6s-0.9 10.1-2.5 14.6c-6 17.1-22.2 29.2-41.3 29.2-19 0-35.2-12.1-41.2-29.2-1.8-4.5-2.6-9.5-2.6-14.6s0.9-10.1 2.6-14.6c6-16.9 22.2-29.2 41.2-29.2zM208.5 471.8h410.1c6.7 33.3 36.3 58.4 71.5 58.4 35.3 0 64.8-25.1 71.5-58.4h89c8.2 0 14.6-6.4 14.6-14.6 0-8-6.4-14.6-14.6-14.6h-89c-6.9-33.3-36.3-58.4-71.5-58.4s-64.7 25.1-71.5 58.4H208.5c-8 0-14.6 6.6-14.6 14.6 0 8.2 6.6 14.6 14.6 14.6z m481.6-58.3c19.1 0 35.3 12.3 41.3 29.2 1.6 4.5 2.5 9.5 2.5 14.6s-0.9 10.1-2.5 14.6c-6 17.1-22.2 29.2-41.3 29.2-19 0-35.2-12.1-41.2-29.2-1.8-4.5-2.6-9.5-2.6-14.6s0.9-10.1 2.6-14.6c6-17 22.2-29.2 41.2-29.2zM208.5 617.8h176.6c6.7 33.3 36.3 58.4 71.5 58.4 35.3 0 64.8-25.1 71.5-58.4h322.5c8.2 0 14.6-6.4 14.6-14.6 0-8-6.4-14.6-14.6-14.6H528.1c-6.9-33.3-36.3-58.4-71.5-58.4s-64.7 25.1-71.5 58.4H208.5c-8 0-14.6 6.6-14.6 14.6 0 8.2 6.6 14.6 14.6 14.6z m248.1-58.4c19.1 0 35.3 12.3 41.3 29.2 1.6 4.5 2.5 9.5 2.5 14.6s-0.9 10.1-2.5 14.6c-6 17.1-22.2 29.2-41.3 29.2-19 0-35.2-12.1-41.2-29.2-1.8-4.5-2.6-9.5-2.6-14.6s0.9-10.1 2.6-14.6c6-16.9 22.2-29.2 41.2-29.2z" p-id="4738"></path></svg>