<svg t="1711339394087" class="icon" viewBox="0 0 1024 1024" version="1.1" xmlns="http://www.w3.org/2000/svg" p-id="11969" width="200" height="200"><path d="M275.67523 182.34C245.67923 149.524 241.80123 105.492 222.50123 67.612 203.72723 44.68 191.05523 8.928 160.50123 0 122.27123 31.476 136.88323 85.16 136.08123 127.536c-0.96 30.776 39.42 60.394 16.268 70.044-2.69 43.86 8.878 86.594 11.502 130.2-1.412 15.376 10.642 29.236 24.146 39.806-14.14-8.898-24.28-11.138-18.78 18.67 16.458 41.51 25.556 76.624 31.08 122.972-1.98 20.164 25.686 40.24 2.612 44.08 2.536 37.784 16.928 106.938 9.55 123.736 6.168 40.036 15.91 79.24 20.682 120.216-6.266 18.248 18.564 35.942 27.476 39.708-38.688 10.388 57.946 39.384 8.308 33.9-39.928 4.534 25.854 23.942-14.694 27.18-28.934 17.764 66.26-17.482 18.44 14.158-24.11 22.194 49.126-15.74 17.29 11.672-19.324 25.818-82.28 67.256-75.422 81.068 38.034-11.288 77.904-71.196 106.966-67.692 1.888 25.54-15.02 80.144-0.16 86.746 9.882-19.984 15.25-85.26 26.8-75.564 3.098 27.668 24.528 41.518 13.266 5.578-1.04-23.798-1.014-56.26 3.526-13.236-1.5 12.028 12.414 39.732 12.444 10.536 39.1 34.15-15.452-50.252 26.474-19.386 35.27 3.6-55.404-54.23-10.66-29.78 26.35 21.72-1.08-14.27 24.524 0.2 39.81-1.508 59.18-32.114 81.274-54.3-24.726 0.24 36.236-17.356 39.23-38.018 5.6-19.822 56.34-48.76 40.946-58.968 14.018-8.53 44.676-55.094 55.54-84.304-3.384 1.756-7.33 3.29-11.2 4.572 17.33-9.586 44.392-46.588 39.31-55.864-6.744 2.736-11.214 4.674-13.94 5.912 9.268-4.954 33.62-20.206 30.154-38.246 29.652-43.306 32.088-65.014 58.32-106.054 4.28-13.066 16.226-32.58 11.772-35.74 13.304-11.566 26.246-31.174 22.628-42.816 15.628-27.192 44.156-89.056 35.064-105.14-27.52 21.246 30.526-23.506 25.928-43.308 11.688-23.714-2.752-20.496-6.086-18.958 16.7-21.984 24.42-59.012 29.184-65.894 18.068-29.69 28.534-66.772 29.5-102.134-24.282 44.886 36.676-66.646-21.038-52.35-33.426 19.334-66.414 43.526-86.376 77.644-19.192 15.536-23.038 36.506-21.806 58.586-2.914-14.426-7.73-18.75-18.132 8.33-1.84 4.178-2.216 11.7-1.852 20.154-2.414-9.56-7.272-12.268-15.57 8.378-42.104 26.366-56.512 77.768-90.496 111.98-10.268 11.678-12.582 28.56-11.33 45.372-1.614-8.79-3.556-15.302-6.928-16.552-21.77 22.83-36.938 54-43.95 80.73-5.42-8.38-26.786 43.84-39.438 58.782-12.16 11.62-23.392 36.48-27.556 55-4.058-10.462-14.698-6.648-24.856 13.63-14.402 14.74-26.598 32.53-27.252 52.25-3.224-10.83-7.55-13.166-18.274 11.62-21.614 35.364-22.122-30.136-31.892-26.792 6.702-25.53-11.322-66.088-14.496-46.52 3.256-40.278-15.394-77.238-26.414-118.168-27.452-120.876-65.746-172.916-82.012-222.82z" fill="#F13C6F" p-id="11970"></path></svg>