<?xml version="1.0" standalone="no"?><!DOCTYPE svg PUBLIC "-//W3C//DTD SVG 1.1//EN" "http://www.w3.org/Graphics/SVG/1.1/DTD/svg11.dtd"><svg t="1710388173917" class="icon" viewBox="0 0 1025 1024" version="1.1" xmlns="http://www.w3.org/2000/svg" p-id="3498" xmlns:xlink="http://www.w3.org/1999/xlink" width="200.1953125" height="200"><path d="M997.44827 485.043045l-80.873935 0 0 0.028653c-15.600303 0-28.106128 13.249769-26.855648 29.114085 1.029446 13.057387 11.608386 23.636327 24.665773 24.665773 0.73678 0.058328 1.465374 0.075725 2.188852 0.075725l0 0.028653 80.873935 0c14.889105 0 26.957978-12.068873 26.957978-26.954909C1024.406249 497.111918 1012.337375 485.043045 997.44827 485.043045zM997.44827 889.413745l-80.873935 0 0 0.047072c-15.600303 0-28.106128 13.249769-26.855648 29.114085 1.029446 13.057387 11.608386 23.636327 24.665773 24.665773 0.73678 0.058328 1.465374 0.075725 2.188852 0.075725l0 0.010233 80.873935 0c14.889105 0 26.957978-12.068873 26.957978-26.954909C1024.406249 901.482619 1012.337375 889.413745 997.44827 889.413745zM811.991418 80.758302c-1.096984-0.086981-2.180666-0.103354-3.25002-0.061398l0-0.024559L26.957974 80.672344c-14.889105 0-26.957978 12.068873-26.957978 26.954909 0 14.891152 12.068873 26.961048 26.957978 26.961048L808.741397 134.588301l0-0.068562c16.090467 0.618077 29.195949-12.873192 27.916816-29.095665C835.628768 92.367711 825.049828 81.788771 811.991418 80.758302zM914.384459 134.463458c0.73678 0.058328 1.465374 0.075725 2.188852 0.075725l0 0.049119 80.873935 0c14.889105 0 26.957978-12.068873 26.957978-26.961048 0-14.886035-12.068873-26.954909-26.957978-26.954909l-80.873935 0 0 0.010233c-15.600303 0-28.106128 13.249769-26.855648 29.114085C890.748133 122.854049 901.327072 133.432988 914.384459 134.463458zM811.991418 485.147422c-1.096984-0.086981-2.180666-0.103354-3.25002-0.061398l0-0.042979L26.957974 485.043045c-14.889105 0-26.957978 12.068873-26.957978 26.957978 0 14.886035 12.068873 26.954909 26.957978 26.954909L808.741397 538.955932l0-0.047072c16.090467 0.618077 29.195949-12.873192 27.916816-29.095665C835.628768 496.755808 825.049828 486.176868 811.991418 485.147422zM811.991418 889.536542c-1.096984-0.086981-2.180666-0.103354-3.25002-0.061398l0-0.061398L26.957974 889.413745c-14.889105 0-26.957978 12.068873-26.957978 26.957978 0 14.886035 12.068873 26.954909 26.957978 26.954909L808.741397 943.326633l0-0.029676c16.090467 0.618077 29.195949-12.873192 27.916816-29.095665C835.628768 901.144928 825.049828 890.565988 811.991418 889.536542z" p-id="3499"></path></svg>