<svg xmlns="http://www.w3.org/2000/svg" width="16" height="16" viewBox="0 0 16 16" fill="none">
  <path fill-rule="evenodd" clip-rule="evenodd" d="M4 2.66667V12H7V13H8V12H9V13H10V12H11V13H12V12H13.3333C13.7015 12 14 11.7015 14 11.3333V3.33334C14 2.96515 13.7015 2.66667 13.3333 2.66667H4ZM9 5.66667H12.3333V9H9V7.83334H6.86623C6.6933 8.13224 6.37013 8.33334 6 8.33334C5.4477 8.33334 5 7.88564 5 7.33334C5 6.78104 5.4477 6.33334 6 6.33334C6.37013 6.33334 6.6933 6.53444 6.86623 6.83334H9V5.66667Z" fill="#B6C2CD"/>
  <path d="M2 2.66667C2 2.29848 2.29848 2 2.66667 2H4V14H2.66667C2.29848 14 2 13.7015 2 13.3333V2.66667Z" fill="#324558"/>
  <path d="M13 12H12V13H11V12H10V13H9V12H8V13H7V12H6V14H13V12Z" fill="#324558"/>
  <path d="M12.3333 5.66667H9V6.83334H6.86623C6.6933 6.53444 6.37013 6.33334 6 6.33334C5.4477 6.33334 5 6.78104 5 7.33334C5 7.88564 5.4477 8.33334 6 8.33334C6.37013 8.33334 6.6933 8.13224 6.86623 7.83334H9V9H12.3333V5.66667Z" fill="#324558"/>
</svg>