<svg data-v-5ed31d1a="" xmlns="http://www.w3.org/2000/svg" width="1em" height="1em" fill="currentColor" viewBox="0 0 21 20">
  <g clip-path="url(#a)">
    <mask id="b" width="21" height="20" x="0" y="0" maskUnits="userSpaceOnUse" style="mask-type:luminance;">
      <path fill="#fff" d="M20.6 0H.6v20h20z"></path>
    </mask>
    <g mask="url(#b)">
      <path fill="#B6C2CD" fill-rule="evenodd" d="M.877 12.652a.833.833 0 0 0 0 1.178l1.473 1.473a1.25 1.25 0 0 1 1.768 1.768l2.652 2.652a.833.833 0 0 0 1.178 0l1.179-1.179-.884-.884L18.26 7.643l.884.884 1.178-1.179a.833.833 0 0 0 0-1.178l-2.651-2.652a1.25 1.25 0 0 1-1.768-1.768L14.43.277a.833.833 0 0 0-1.179 0zm12.375-8.84L11.484 5.58l2.357 2.357 1.768-1.767zM10.01 7.055 7.655 9.41l2.357 2.357 2.357-2.357zm-5.597 5.598 1.767-1.768 2.357 2.357-1.767 1.768z" clip-rule="evenodd"></path>
      <path fill="#324558" d="m11.484 5.58 1.768-1.767 2.356 2.357-1.767 1.767zM7.654 9.41l2.357-2.356 2.357 2.357-2.357 2.357zM4.413 12.652l1.767-1.768 2.357 2.357-1.767 1.768zM16.345 9.558l.884-.884.884.884-.884.884zM14.577 11.325l.884-.884.884.884-.884.884zM12.81 13.094l.883-.884.884.884-.883.884zM11.042 14.861l.884-.884.884.884-.884.884zM9.274 16.629l.884-.884.884.884-.884.884z"></path>
    </g>
  </g>
  <defs>
    <clipPath id="a">
      <path fill="#fff" d="M.6 0h20v20H.6z"></path>
    </clipPath>
  </defs>
</svg>
