<svg t="1711354219640" class="icon" viewBox="0 0 1024 1024" version="1.1" xmlns="http://www.w3.org/2000/svg" p-id="23513" width="200" height="200"><path d="M753.92 923.008a170.464 170.464 0 0 1 0-340.928 170.464 170.464 0 0 1 0 340.928zM413.92 532.32a106.56 106.56 0 0 1 0-213.056 106.56 106.56 0 0 1 0 213.056z m347.52-332.608h-284.448a262.624 262.624 0 0 0-262.56 262.624v284.448a262.56 262.56 0 0 0 262.56 262.56h284.448A262.56 262.56 0 0 0 1024 746.784v-284.448a262.624 262.624 0 0 0-262.56-262.624zM170.464 99.808a85.248 85.248 0 0 1-170.496 0 85.248 85.248 0 0 1 170.496 0z" fill="#004880" p-id="23514"></path></svg>