<svg xmlns="http://www.w3.org/2000/svg" width="20" height="20" viewBox="0 0 20 20" fill="none">
  <path fill-rule="evenodd" clip-rule="evenodd" d="M9.99984 16.6667C13.6818 16.6667 16.6665 13.6819 16.6665 10C16.6665 6.31808 13.6818 3.33333 9.99984 3.33333C6.31792 3.33333 3.33317 6.31808 3.33317 10C3.33317 13.6819 6.31792 16.6667 9.99984 16.6667ZM9.99984 18.3333C14.6022 18.3333 18.3332 14.6024 18.3332 10C18.3332 5.39762 14.6022 1.66667 9.99984 1.66667C5.39746 1.66667 1.6665 5.39762 1.6665 10C1.6665 14.6024 5.39746 18.3333 9.99984 18.3333Z" fill="white" fill-opacity="0.4"/>
  <path d="M10.0002 15.4167C12.9917 15.4167 15.4168 12.9915 15.4168 10C15.4168 7.00846 12.9917 4.58333 10.0002 4.58333V10H4.5835C4.5835 12.9915 7.00862 15.4167 10.0002 15.4167Z" fill="white"/>
</svg>