<svg xmlns="http://www.w3.org/2000/svg" width="16" height="16" viewBox="0 0 16 16" fill="none">
  <path d="M6.00004 1.33334C5.63184 1.33334 5.33337 1.63182 5.33337 2.00001V4.66668C5.33337 5.03488 5.63184 5.33334 6.00004 5.33334H7.33337V8.00001H3.00004C2.63185 8.00001 2.33337 8.29848 2.33337 8.66668V10.6667H2.00004C1.63185 10.6667 1.33337 10.9651 1.33337 11.3333V14C1.33337 14.3682 1.63185 14.6667 2.00004 14.6667H4.00004C4.36824 14.6667 4.66671 14.3682 4.66671 14V11.3333C4.66671 10.9651 4.36824 10.6667 4.00004 10.6667H3.66671V9.33334H7.33337V10.6667H7.00004C6.63184 10.6667 6.33337 10.9651 6.33337 11.3333V14C6.33337 14.3682 6.63184 14.6667 7.00004 14.6667H9.00004C9.36824 14.6667 9.66671 14.3682 9.66671 14V11.3333C9.66671 10.9651 9.36824 10.6667 9.00004 10.6667H8.66671V9.33334H12.3334V10.6667H12C11.6318 10.6667 11.3334 10.9651 11.3334 11.3333V14C11.3334 14.3682 11.6318 14.6667 12 14.6667H14C14.3682 14.6667 14.6667 14.3682 14.6667 14V11.3333C14.6667 10.9651 14.3682 10.6667 14 10.6667H13.6667V8.66668C13.6667 8.29848 13.3682 8.00001 13 8.00001H8.66671V5.33334H10C10.3682 5.33334 10.6667 5.03488 10.6667 4.66668V2.00001C10.6667 1.63182 10.3682 1.33334 10 1.33334H6.00004Z" fill="url(#paint0_linear_69_5316)" fill-opacity="0.6"/>
  <defs>
    <linearGradient id="paint0_linear_69_5316" x1="8.00004" y1="1.33334" x2="8.00004" y2="14.6667" gradientUnits="userSpaceOnUse">
      <stop stop-color="white"/>
      <stop offset="1" stop-color="white" stop-opacity="0.72"/>
    </linearGradient>
  </defs>
</svg>