<?xml version="1.0" standalone="no"?><!DOCTYPE svg PUBLIC "-//W3C//DTD SVG 1.1//EN" "http://www.w3.org/Graphics/SVG/1.1/DTD/svg11.dtd"><svg t="1716437027584" class="icon" viewBox="0 0 1024 1024" version="1.1" xmlns="http://www.w3.org/2000/svg" p-id="3782" xmlns:xlink="http://www.w3.org/1999/xlink" width="200" height="200"><path d="M512 512 889.6 134.4 512 512Z" fill="#DDDDDD" p-id="3783"></path><path d="M850.368 128.448C760.064 48.768 641.856 0 512 0 405.696 0 306.944 32.448 225.088 87.936l290.048 375.744L850.368 128.448z" fill="#DDDDDD" p-id="3784"></path><path d="M497.664 545.792 174.72 127.488C67.84 221.312 0 358.592 0 512c0 282.752 229.248 512 512 512s512-229.248 512-512c0-8.832-0.896-17.408-1.344-26.112L497.664 545.792z" fill="#DDDDDD" p-id="3785"></path><path d="M1015.68 422.336c-16.704-94.4-59.2-179.712-120.064-248.64L599.424 469.824 1015.68 422.336z" p-id="3786"></path></svg>