<svg xmlns="http://www.w3.org/2000/svg" width="20" height="20" viewBox="0 0 20 20" fill="none">
  <path fill-rule="evenodd" clip-rule="evenodd" d="M2.49984 6.66666C2.0396 6.66666 1.6665 7.03975 1.6665 7.5V16.6667C1.6665 17.1269 2.0396 17.5 2.49984 17.5H17.4998C17.9601 17.5 18.3332 17.1269 18.3332 16.6667V7.5C18.3332 7.03975 17.9601 6.66666 17.4998 6.66666H3.33317H2.49984ZM3.33317 6.66666H16.6665V12.0833H3.33317V6.66666Z" fill="white" fill-opacity="0.4"/>
  <path d="M10.3726 1.85302C10.138 1.73571 9.86187 1.73571 9.62724 1.85302L4.91195 4.21067C4.60487 4.36421 4.60487 4.80246 4.91195 4.956L9.99995 7.5L15.0879 4.956C15.395 4.80246 15.395 4.36421 15.0879 4.21067L10.3726 1.85302Z" fill="white"/>
  <path d="M9.99995 8.89754L6.10241 6.94879L4.91195 7.544C4.60487 7.69754 4.60487 8.13579 4.91195 8.28933L9.62724 10.647C9.86187 10.7643 10.138 10.7643 10.3726 10.647L15.0879 8.28933C15.395 8.13579 15.395 7.69754 15.0879 7.544L13.8975 6.94879L9.99995 8.89754Z" fill="white"/>
</svg>