<?xml version="1.0" standalone="no"?><!DOCTYPE svg PUBLIC "-//W3C//DTD SVG 1.1//EN" "http://www.w3.org/Graphics/SVG/1.1/DTD/svg11.dtd"><svg t="1716437090377" class="icon" viewBox="0 0 1024 1024" version="1.1" xmlns="http://www.w3.org/2000/svg" p-id="8072" xmlns:xlink="http://www.w3.org/1999/xlink" width="200" height="200"><path d="M881.06 919.69H147.39a81.52 81.52 0 0 1-81.52-81.52v-303.5a81.54 81.54 0 0 1 11.61-41.94l209.2-348.66a81.51 81.51 0 0 1 69.9-39.57h315.28a81.54 81.54 0 0 1 69.91 39.57L951 492.73a81.55 81.55 0 0 1 11.62 41.94v303.5a81.52 81.52 0 0 1-81.56 81.52z m0-81.52V534.66L671.85 186H356.56L147.39 534.68v303.49z" fill="#949DA6" p-id="8073"></path><path d="M677.26 715.89H351.18a40.77 40.77 0 0 1-36.46-22.53l-70.25-140.51H106.63v-81.52h163a40.74 40.74 0 0 1 36.46 22.53l70.26 140.51h275.71l70.26-140.51a40.75 40.75 0 0 1 36.46-22.53h163v81.52H784l-70.28 140.51a40.77 40.77 0 0 1-36.46 22.53z" fill="#949DA6" p-id="8074"></path><path d="M391.94 267.53m40.76 0l163.04 0q40.76 0 40.76 40.76l0 0q0 40.76-40.76 40.76l-163.04 0q-40.76 0-40.76-40.76l0 0q0-40.76 40.76-40.76Z" fill="#949DA6" p-id="8075"></path><path d="M351.18 430.57m40.76 0l244.56 0q40.76 0 40.76 40.76l0 0q0 40.76-40.76 40.76l-244.56 0q-40.76 0-40.76-40.76l0 0q0-40.76 40.76-40.76Z" fill="#949DA6" p-id="8076"></path></svg>