<svg t="1713153906055" class="icon" viewBox="0 0 1024 1024" version="1.1" xmlns="http://www.w3.org/2000/svg" p-id="3884" width="200" height="200"><path d="M122.88 580.267h34.133c6.827 0 6.827 0 13.654-6.827 0 0 6.826-6.827 6.826-13.653s0-6.827-6.826-13.654H122.88c-6.827 0-13.653 6.827-13.653 20.48 0 6.827 0 6.827 6.826 13.654h6.827z m0 136.533h34.133c6.827 0 13.654-6.827 13.654-20.48 0-6.827 0-6.827-6.827-13.653 0 0-6.827-6.827-13.653-6.827H122.88c-6.827 0-20.48 6.827-20.48 20.48 6.827 13.653 13.653 20.48 20.48 20.48z m0-273.067h34.133c6.827 0 6.827 0 13.654-6.826 0 0 6.826-6.827 6.826-13.654s-6.826-13.653-20.48-13.653H122.88c-6.827 0-13.653 6.827-13.653 13.653s0 6.827 6.826 13.654c0 6.826 6.827 6.826 6.827 6.826z m0-136.533h34.133c6.827 0 6.827 0 13.654-6.827 0 0 6.826-6.826 6.826-13.653s-6.826-13.653-20.48-13.653H122.88c-6.827 0-13.653 6.826-13.653 13.653s0 6.827 6.826 13.653l6.827 6.827z m47.787 546.133s6.826-6.826 6.826-13.653 0-6.827-6.826-13.653c0 0-6.827-6.827-13.654-6.827H122.88c-6.827 0-20.48 6.827-20.48 20.48 0 6.827 6.827 20.48 20.48 20.48h34.133c6.827 0 13.654-6.827 13.654-6.827z" p-id="3885"></path><path d="M211.627 163.84c-20.48 0-34.134-13.653-34.134-34.133s13.654-34.134 34.134-34.134h675.84c-13.654-20.48-34.134-34.133-61.44-34.133h-614.4c-40.96 0-68.267 34.133-68.267 68.267v102.4h20.48c27.307 0 54.613 20.48 54.613 54.613 0 13.653-6.826 27.307-13.653 34.133-20.48 13.654-34.133 20.48-47.787 20.48H143.36v34.134h20.48c27.307 0 54.613 20.48 54.613 54.613-6.826 27.307-34.133 47.787-61.44 47.787H143.36V512h20.48c27.307 0 54.613 20.48 54.613 54.613-6.826 27.307-34.133 47.787-61.44 47.787H143.36v34.133h20.48c13.653 0 27.307 6.827 34.133 13.654 6.827 6.826 13.654 20.48 13.654 34.133 0 27.307-20.48 54.613-54.614 54.613H143.36v34.134h20.48c13.653 0 27.307 6.826 34.133 13.653 6.827 6.827 13.654 20.48 13.654 34.133 0 27.307-20.48 54.614-54.614 54.614H143.36c0 40.96 27.307 68.266 68.267 68.266h614.4c40.96 0 68.266-34.133 68.266-68.266V163.84H211.627z m395.946 382.293v204.8c0 27.307-20.48 47.787-47.786 47.787h-81.92c-27.307 0-47.787-20.48-47.787-47.787v-204.8H307.2L518.827 327.68l211.626 218.453h-122.88z" p-id="3886"></path></svg>