<?xml version="1.0" standalone="no"?><!DOCTYPE svg PUBLIC "-//W3C//DTD SVG 1.1//EN" "http://www.w3.org/Graphics/SVG/1.1/DTD/svg11.dtd"><svg t="1710384307101" class="icon" viewBox="0 0 1024 1024" version="1.1" xmlns="http://www.w3.org/2000/svg" p-id="40330" xmlns:xlink="http://www.w3.org/1999/xlink" width="200" height="200"><path d="M782.897096 385.220384A288.501479 288.501479 0 0 0 512 196.22926l-7.196055 0.098192a288.431342 288.431342 0 0 0-263.715068 188.892932l-2.146192 6.144-3.12811 0.238465c-109.231342 9.300164-189.369863 100.744767-189.369863 212.164384 0 117.675836 89.929644 200.353315 207.759781 200.353315h32.543562a18.361863 18.361863 0 0 0 18.37589-18.37589v-25.151124a18.361863 18.361863 0 0 0-18.37589-18.389918h-32.543562l-5.288329-0.084164c-77.333041-2.805479-139.137753-66.18126-139.137753-143.949151 0-79.521315 64.652274-144.00526 144.482192-144.00526h6.059835l3.45074-0.140274a40.511123 40.511123 0 0 0 35.769863-30.271123 219.598904 219.598904 0 0 1 425.030137 0 40.497096 40.497096 0 0 0 39.276712 30.383342h6.073863l5.274302 0.112219c77.333041 2.805479 139.137753 66.167233 139.137753 143.893042 0 79.521315-64.652274 144.033315-144.482192 144.033315H646.663014l50.105863-41.731507a18.37589 18.37589 0 0 0 2.356602-25.908603l-20.606246-24.730301a18.389918 18.389918 0 0 0-25.880548-2.342576L497.088877 777.117808l155.563835 122.599452a18.389918 18.389918 0 0 0 25.880548-2.342575l20.606247-24.730301a18.361863 18.361863 0 0 0-2.356603-25.894576l-51.157918-42.615233h124.156493l6.20011-0.098191c114.926466-3.254356 201.545644-84.655342 201.545644-200.255124l-0.084165-6.158027c-3.114082-108.642192-82.074301-196.874521-189.257643-206.006356l-3.142137-0.238466z" p-id="40331"></path></svg>