<svg t="1711339526096" class="icon" viewBox="0 0 1024 1024" version="1.1" xmlns="http://www.w3.org/2000/svg" p-id="17785" width="200" height="200"><path d="M378.6752 496.9984c8.192-1.3824 16.384-2.304 24.576-2.304h-6.8608 221.696c9.5232 0 18.6368-1.3312 27.6992-3.584A95.8464 95.8464 0 0 0 716.8 398.1824V212.0704c0-52.736-45.056-92.8256-98.7648-101.4784-34.1504-5.4784-83.712-8.192-117.4016-8.192-33.6896 0-66.048 3.1744-94.72 8.192C322.2528 125.1328 307.2 155.648 307.2 212.0704v60.9792h204.8V307.2H240.7424C164.7616 307.2 102.912 398.2336 102.4 510.1568V512c0 20.48 1.8432 40.0384 5.9392 58.2656C125.1328 654.848 177.9712 716.8 240.7424 716.8h32.3072v-97.8432c0-57.344 42.8032-110.592 105.6256-121.9584z m21.8112-260.352a36.8128 36.8128 0 0 1-36.864-37.3248c0-20.48 16.384-37.3248 36.864-37.3248 20.48 0 37.376 16.896 37.376 37.376a37.4784 37.4784 0 0 1-37.376 37.2736z" fill="#0075AA" p-id="17786"></path><path d="M912.9472 440.4736C893.44 362.6496 842.8544 307.2 783.2576 307.2h-32.3072v86.8864c0 72.3456-47.36 124.6208-105.6256 133.7344a116.6336 116.6336 0 0 1-17.7152 1.3824h-221.696c-9.5232 0-18.6368 1.3312-27.6992 3.584-40.96 10.9568-71.0144 44.5952-71.0144 88.7296v186.0608c0 52.736 53.248 84.1216 105.5744 99.1744 62.3616 18.176 130.6112 21.3504 205.7216 0 49.6128-14.1312 98.304-42.8032 98.304-99.1744V751.104h-204.8v-34.56h271.2576c53.7088 0 100.5568-45.4656 123.3408-111.9232A285.4912 285.4912 0 0 0 921.6 511.8976c0-25.0368-3.1744-49.152-8.6528-71.424z m-290.3552 341.6064c20.48 0 36.864 16.896 36.864 37.3248a37.376 37.376 0 0 1-36.864 37.2736 37.4784 37.4784 0 0 1-37.3248-37.2736 37.7856 37.7856 0 0 1 37.3248-37.3248z" fill="#FFD400" p-id="17787"></path></svg>