<?xml version="1.0" standalone="no"?><!DOCTYPE svg PUBLIC "-//W3C//DTD SVG 1.1//EN" "http://www.w3.org/Graphics/SVG/1.1/DTD/svg11.dtd"><svg t="1710388181450" class="icon" viewBox="0 0 1024 1024" version="1.1" xmlns="http://www.w3.org/2000/svg" p-id="3911" xmlns:xlink="http://www.w3.org/1999/xlink" width="200" height="200"><path d="M456.817778 76.231111c-5.006222 0.455111-10.581333 1.479111-12.288 2.161778-1.820444 0.682667-4.551111 1.251556-6.144 1.251555-7.623111 0-44.487111 13.084444-58.026667 20.593778-2.389333 1.365333-6.371556 3.527111-8.874667 4.778667-2.503111 1.365333-7.736889 4.664889-11.719111 7.281778-3.982222 2.730667-7.509333 4.892444-7.736889 4.892444-1.934222 0-23.665778 19.000889-33.905777 29.582222-18.204444 19.114667-33.109333 40.163556-42.097778 59.733334-1.820444 3.754667-3.982222 8.305778-4.892445 10.24-1.706667 3.527111-8.192 22.755556-11.150222 32.995555-7.281778 25.258667-10.012444 62.464-6.485333 88.177778 1.820444 13.198222 4.551111 27.420444 6.371555 33.564444 0.796444 2.503111 2.389333 7.623111 3.527112 11.377778 5.12 17.408 17.294222 42.325333 29.582222 60.643556 12.743111 19.228444 34.247111 41.642667 54.954666 57.344 3.185778 2.503111 5.916444 5.233778 5.916445 5.916444 0 0.796444-4.778667 3.299556-10.467556 5.688889-31.516444 13.084444-66.218667 32.768-92.501333 52.337778-22.072889 16.497778-31.971556 25.144889-52.906667 46.193778-25.6 25.6-44.259556 49.493333-63.146666 80.782222-5.575111 9.216-9.216 15.815111-18.204445 32.995555-0.910222 1.592889-2.503111 5.12-3.754666 7.964445-1.251556 2.844444-3.527111 7.964444-5.12 11.377778-4.437333 10.012444-8.305778 20.138667-14.336 37.546666-0.796444 2.161778-1.820444 5.461333-2.389334 7.395556-0.455111 1.820444-2.048 7.509333-3.413333 12.515555-8.533333 31.061333-12.856889 57.002667-14.904889 88.860445-1.934222 30.947556 0.113778 42.325333 9.216 51.427555 7.509333 7.509333 19.683556 11.036444 30.492444 8.760889 3.527111-0.682667 7.736889-2.048 9.329778-2.958222 5.233778-2.958222 11.605333-9.557333 14.336-14.904889 2.389333-4.664889 2.730667-6.940444 2.730667-16.497778 0-11.719111 3.527111-48.924444 5.688889-59.505777 3.640889-18.204444 4.892444-23.893333 6.485333-30.151111 2.389333-9.329778 8.760889-29.354667 11.719111-36.977778 1.365333-3.413333 2.844444-7.509333 3.299556-9.102222 3.982222-12.743111 26.965333-55.864889 38.115555-71.452445 16.270222-22.755556 36.408889-46.307556 51.427556-59.960889 14.108444-12.856889 14.677333-13.425778 17.863111-16.042666 11.264-9.784889 39.822222-29.354667 53.703111-36.977778 26.168889-14.108444 38.115556-19.569778 59.164445-26.624 4.437333-1.479111 9.216-3.185778 10.808888-3.754667 2.730667-1.024 8.305778-2.730667 21.048889-6.371555 26.168889-7.281778 73.272889-12.856889 100.124445-11.719112 20.252444 0.796444 39.594667 2.730667 51.2 4.892445 27.761778 5.347556 47.104 10.012444 55.182222 13.198222 1.592889 0.568889 6.371556 2.275556 10.808889 3.754667 4.323556 1.479111 13.425778 5.006222 20.138667 7.850666 6.712889 2.844444 12.629333 5.233778 13.084444 5.233778 1.024 0 5.12-5.461333 28.330667-37.546666 11.036444-15.246222 11.719111-16.611556 9.898666-17.976889-1.934222-1.365333-8.305778-4.551111-22.528-11.036445-11.264-5.12-38.229333-15.36-42.894222-16.156444-7.054222-1.365333-6.257778-2.844444 8.419556-17.635556 16.839111-16.725333 34.816-39.708444 42.894222-54.385778 9.443556-17.408 13.653333-27.079111 18.773333-42.552888 9.898667-30.264889 11.491556-40.732444 11.491556-75.207112 0-29.013333-0.568889-34.588444-5.802667-55.751111-10.012444-40.732444-32.654222-80.668444-62.350222-110.364444-24.576-24.576-51.655111-41.642667-88.291556-55.864889-6.030222-2.275556-24.462222-7.168-38.570666-10.126222-9.898667-2.161778-56.547556-3.299556-71.224889-1.706667z m53.020444 67.584c21.731556 2.844444 31.971556 6.030222 52.792889 16.156445 44.714667 21.731556 76.003556 60.871111 89.315556 111.843555 1.820444 7.054222 5.461333 39.708444 4.892444 45.056-2.730667 30.037333-6.599111 44.942222-17.635555 68.721778-11.719111 25.144889-39.708444 56.206222-61.212445 67.925333-2.161778 1.251556-6.030222 3.527111-8.533333 5.12-6.712889 4.209778-25.144889 11.719111-36.977778 15.018667-18.887111 5.347556-53.361778 7.054222-72.817778 3.640889-29.013333-5.12-51.086222-15.018667-76.117333-34.133334-12.515556-9.443556-19.569778-16.611556-29.240889-29.582222-17.408-23.210667-25.144889-40.96-32.426667-73.386666-2.048-9.102222-2.730667-45.624889-1.024-54.044445 0.796444-3.754667 1.820444-8.874667 2.275556-11.377778 5.461333-28.216889 21.504-58.140444 43.463111-80.440889 19.797333-20.024889 33.905778-29.582222 61.44-41.187555 3.868444-1.706667 11.264-3.868444 23.096889-6.826667 16.042667-3.982222 39.480889-5.006222 58.709333-2.503111z" p-id="3912"></path><path d="M784.497778 553.301333c-11.264 2.730667-13.880889 4.892444-46.08 40.049778-9.671111 10.581333-21.959111 23.893333-27.306667 29.582222-5.347556 5.688889-12.970667 13.880889-16.952889 18.204445-3.982222 4.437333-10.353778 11.264-14.222222 15.36-5.461333 5.802667-22.528 24.348444-31.971556 34.816-0.568889 0.682667-7.623111 8.078222-15.473777 16.497778-7.850667 8.419556-20.935111 22.414222-29.013334 31.175111-8.078222 8.760889-17.976889 19.456-22.186666 23.893333-4.096 4.323556-14.336 15.36-22.641778 24.462222-8.419556 9.102222-17.863111 19.342222-21.048889 22.755556-3.185778 3.413333-9.443556 10.126222-13.653333 14.791111-4.323556 4.664889-10.467556 11.264-13.653334 14.563555-3.072 3.413333-7.395556 8.078222-9.557333 10.581334-2.161778 2.389333-4.551111 4.437333-5.347556 4.437333-0.682667 0-3.299556-2.161778-5.575111-4.892444-2.389333-2.616889-6.712889-7.395556-9.671111-10.467556-2.844444-3.185778-10.581333-11.605333-17.066666-18.773333-6.485333-7.168-12.060444-13.312-12.401778-13.653334-0.455111-0.341333-7.850667-8.533333-16.611556-18.204444-8.760889-9.671111-18.545778-20.48-21.731555-23.893333-3.185778-3.413333-11.832889-12.970667-19.228445-21.048889-22.983111-25.372444-26.055111-27.875556-37.774222-30.264889-16.725333-3.413333-32.881778 6.030222-40.732444 24.007111-1.706667 3.754667-2.275556 7.623111-2.275556 15.36 0 14.336 2.161778 18.545778 19.228444 36.977778 1.934222 2.161778 8.988444 9.898667 15.473778 17.066666 6.485333 7.168 12.060444 13.312 12.401778 13.653334 0.455111 0.341333 7.850667 8.533333 16.497778 18.204444 8.760889 9.671111 16.384 18.090667 17.066666 18.773334 0.682667 0.568889 8.419556 9.102222 17.180445 18.773333 13.312 14.791111 19.911111 21.959111 29.696 32.312889 0.682667 0.682667 5.688889 6.371556 11.264 12.629333 21.276444 24.007111 26.168889 27.875556 37.774222 30.264889 15.018667 3.072 24.007111-1.820444 44.600889-24.120889 7.168-7.736889 16.156444-17.408 20.024889-21.504 3.754667-4.096 13.767111-14.791111 22.186667-23.893333s17.863111-19.228444 21.048888-22.641778c3.072-3.299556 6.257778-6.712889 6.826667-7.395556 0.682667-0.682667 4.778667-5.12 9.102222-9.784888 4.437333-4.778667 11.264-12.174222 15.246223-16.497778 3.982222-4.437333 10.467556-11.264 14.336-15.36 3.754667-4.096 10.012444-10.695111 13.653333-14.791111 6.712889-7.395556 29.354667-31.857778 34.702222-37.432889 2.389333-2.389333 9.557333-10.24 31.288889-33.792 0.568889-0.682667 3.754667-4.096 6.826667-7.395556 3.185778-3.413333 12.629333-13.539556 21.048889-22.641778 8.419556-9.102222 15.815111-17.066667 16.497777-17.749333 0.568889-0.682667 3.754667-4.096 6.826667-7.395555 3.185778-3.413333 11.946667-12.856889 19.342222-20.935112 7.509333-8.192 16.042667-17.408 19.000889-20.48 8.988444-9.557333 11.036444-12.288 14.222222-18.773333 2.616889-5.461333 3.072-7.736889 3.072-17.066667 0-9.557333-0.341333-11.605333-3.072-17.180444-8.192-16.497778-24.689778-25.031111-41.187555-21.162667z" p-id="3913"></path></svg>