<svg xmlns="http://www.w3.org/2000/svg" width="16" height="16" viewBox="0 0 16 16" fill="none">
  <path fill-rule="evenodd" clip-rule="evenodd" d="M3 4L3.6276 14.0416C3.64957 14.3929 3.94093 14.6667 4.29297 14.6667H11.707C12.0591 14.6667 12.3504 14.3929 12.3724 14.0416L13 4H3ZM7.33333 7.33333V11.3333H6V7.33333H7.33333ZM10 7.33333V11.3333H8.66667V7.33333H10Z" fill="#B6C2CD"/>
  <path d="M6.66667 1.33334L6 2.00001H2.66667C2.29848 2.00001 2 2.29849 2 2.66668V4.00001H14V2.66668C14 2.29849 13.7015 2.00001 13.3333 2.00001H10L9.33333 1.33334H6.66667Z" fill="#324558"/>
  <path d="M7.33333 7.33334V11.3333H6V7.33334H7.33333Z" fill="#324558"/>
  <path d="M10.0003 11.3333V7.33331H8.66699V11.3333H10.0003Z" fill="#324558"/>
</svg>