<svg xmlns="http://www.w3.org/2000/svg" width="12" height="12" viewBox="0 0 12 12" fill="none">
  <path d="M6.00033 1.33335C3.42298 1.33335 1.33366 3.42268 1.33366 6.00002C1.33366 8.57736 3.42298 10.6667 6.00033 10.6667C8.0032 10.6667 9.7126 9.4045 10.3742 7.63117L11.5656 7.75276C10.8215 10.1175 8.612 11.8334 6.00033 11.8334C2.77866 11.8334 0.166992 9.22168 0.166992 6.00002C0.166992 2.77836 2.77866 0.166687 6.00033 0.166687C7.50606 0.166687 8.87902 0.737756 9.91344 1.67388L10.6987 0.88865C10.8718 0.71551 11.1684 0.819889 11.1949 1.06331L11.5027 3.88917C11.5229 4.07447 11.3665 4.23089 11.1812 4.2107L8.3553 3.90291C8.11188 3.8764 8.00749 3.57986 8.18062 3.4067L9.08724 2.50011C8.26418 1.77345 7.18394 1.33335 6.00033 1.33335Z" fill="#324558"/>
</svg>