<?xml version="1.0" standalone="no"?><!DOCTYPE svg PUBLIC "-//W3C//DTD SVG 1.1//EN" "http://www.w3.org/Graphics/SVG/1.1/DTD/svg11.dtd"><svg t="1710388208794" class="icon" viewBox="0 0 1024 1024" version="1.1" xmlns="http://www.w3.org/2000/svg" p-id="5288" xmlns:xlink="http://www.w3.org/1999/xlink" width="200" height="200"><path d="M235.9 0C105.6 0 0 105.6 0 235.9s105.6 235.9 235.9 235.9 235.9-105.6 235.9-235.9S366.1 0 235.9 0z m0 379.7C156.4 379.7 92 315.3 92 235.9S156.4 92 235.9 92s143.8 64.4 143.8 143.8-64.4 143.9-143.8 143.9zM992 174.7H607.3c-17.6 0-32-14.4-32-32v-28c0-17.6 14.4-32 32-32H992c17.6 0 32 14.4 32 32v28c0 17.6-14.4 32-32 32zM992 393.3H607.3c-17.6 0-32-14.4-32-32v-28c0-17.6 14.4-32 32-32H992c17.6 0 32 14.4 32 32v28c0 17.6-14.4 32-32 32z" p-id="5289"></path><path d="M235.9 552.3C105.6 552.3 0 657.9 0 788.1S105.6 1024 235.9 1024s235.9-105.6 235.9-235.9-105.7-235.8-235.9-235.8z m0 379.7C156.4 932 92 867.6 92 788.1s64.4-143.8 143.8-143.8 143.8 64.4 143.8 143.8S315.3 932 235.9 932zM992 727H607.3c-17.6 0-32-14.4-32-32v-28c0-17.6 14.4-32 32-32H992c17.6 0 32 14.4 32 32v28c0 17.6-14.4 32-32 32zM992 945.6H607.3c-17.6 0-32-14.4-32-32v-28c0-17.6 14.4-32 32-32H992c17.6 0 32 14.4 32 32v28c0 17.6-14.4 32-32 32z" p-id="5290"></path></svg>