<?xml version="1.0" standalone="no"?><!DOCTYPE svg PUBLIC "-//W3C//DTD SVG 1.1//EN" "http://www.w3.org/Graphics/SVG/1.1/DTD/svg11.dtd"><svg t="1710388184104" class="icon" viewBox="0 0 1024 1024" version="1.1" xmlns="http://www.w3.org/2000/svg" p-id="4047" xmlns:xlink="http://www.w3.org/1999/xlink" width="200" height="200"><path d="M170.656 292.576c0-13.472 10.72-24.384 24.288-24.384h634.08c13.408 0 24.288 10.816 24.288 24.384a24.224 24.224 0 0 1-24.288 24.384H194.944a24.288 24.288 0 0 1-24.288-24.384z m0 243.808c0-13.472 10.72-24.384 24.288-24.384h634.08c13.408 0 24.288 10.816 24.288 24.384a24.224 24.224 0 0 1-24.288 24.384H194.944a24.288 24.288 0 0 1-24.288-24.384z m0 243.808c0-13.472 10.72-24.384 24.288-24.384h634.08c13.408 0 24.288 10.816 24.288 24.384a24.224 24.224 0 0 1-24.288 24.384H194.944a24.288 24.288 0 0 1-24.288-24.384z m220.32-731.424a24.384 24.384 0 1 1 0-48.768h245.568a24.384 24.384 0 1 1 0 48.768h-245.568z m389.6 0a24.384 24.384 0 1 1 0-48.768h72.928A170.56 170.56 0 0 1 1024 170.656v682.72a170.656 170.656 0 0 1-170.656 170.656H170.624a170.656 170.656 0 0 1-170.656-170.656V170.656A170.72 170.72 0 0 1 170.784 0H244.8a24.384 24.384 0 1 1 0 48.768H170.784a121.92 121.92 0 0 0-122.048 121.888v682.72a121.92 121.92 0 0 0 121.888 121.888h682.72a121.92 121.92 0 0 0 121.888-121.888V170.656a121.824 121.824 0 0 0-121.728-121.888h-72.928z" p-id="4048"></path></svg>