<svg xmlns="http://www.w3.org/2000/svg" width="20" height="20" viewBox="0 0 20 20" fill="none">
  <path fill-rule="evenodd" clip-rule="evenodd" d="M2.49999 5C2.03975 5 1.66666 5.37308 1.66666 5.83333V17.5C1.66666 17.9603 2.03975 18.3333 2.49999 18.3333H14.1667C14.6269 18.3333 15 17.9603 15 17.5V5.83333C15 5.37308 14.6269 5 14.1667 5H2.49999ZM5.41666 9.62121L8.33332 8.33333L11.25 9.62121V11.553C11.25 14.074 9.16328 15.2512 8.33332 15.4167C7.50337 15.2512 5.41666 14.074 5.41666 11.553V9.62121Z" fill="#B6C2CD"/>
  <path d="M8.33332 3.33333V5H6.66666V2.5C6.66666 2.03976 7.03974 1.66666 7.49999 1.66666H17.5C17.9602 1.66666 18.3333 2.03976 18.3333 2.5V12.5C18.3333 12.9602 17.9602 13.3333 17.5 13.3333H15V11.6667H16.6667V3.33333H8.33332Z" fill="#324558"/>
  <path d="M5.41666 9.62121L8.33332 8.33334L11.25 9.62121V11.553C11.25 14.074 9.16328 15.2512 8.33332 15.4167C7.50336 15.2512 5.41666 14.074 5.41666 11.553V9.62121Z" fill="#324558"/>
</svg>