<svg xmlns="http://www.w3.org/2000/svg" width="16" height="16" viewBox="0 0 16 16" fill="none">
  <path fill-rule="evenodd" clip-rule="evenodd" d="M6.28551 1.26843C6.31647 1.1124 6.45337 1 6.61244 1H9.38771C9.54677 1 9.68367 1.1124 9.71467 1.26843L9.97574 2.58372C9.99827 2.69725 10.0784 2.79031 10.1856 2.83396C10.6462 3.02151 11.0772 3.26385 11.4675 3.55747C11.5587 3.6261 11.6776 3.64793 11.7857 3.6113L13.0817 3.17207C13.2314 3.12134 13.3962 3.18272 13.4762 3.31902L14.8587 5.67417C14.9405 5.81353 14.9106 5.99147 14.7877 6.0964L13.7616 6.97263C13.6728 7.04853 13.6308 7.1653 13.6468 7.28107C13.6793 7.5165 13.6991 7.75567 13.6991 8C13.6991 8.24433 13.6793 8.4835 13.6468 8.71893C13.6308 8.8347 13.6728 8.95147 13.7616 9.02737L14.7877 9.9036C14.9106 10.0085 14.9405 10.1865 14.8587 10.3258L13.4762 12.681C13.3962 12.8173 13.2314 12.8787 13.0817 12.8279L11.7857 12.3887C11.6776 12.3521 11.5587 12.3739 11.4675 12.4425C11.0772 12.7362 10.6462 12.9785 10.1856 13.166C10.0784 13.2097 9.99827 13.3027 9.97574 13.4163L9.71467 14.7316C9.68367 14.8876 9.54677 15 9.38771 15H6.61244C6.45337 15 6.31647 14.8876 6.28551 14.7316L6.02441 13.4163C6.00187 13.3027 5.92177 13.2097 5.81457 13.166C5.35394 12.9785 4.92291 12.7362 4.53264 12.4425C4.44144 12.3739 4.32257 12.3521 4.21447 12.3887L2.91843 12.8279C2.76874 12.8787 2.60399 12.8173 2.52398 12.681L1.14146 10.3258C1.05967 10.1865 1.08959 10.0085 1.21246 9.9036L2.23853 9.02737C2.32739 8.95147 2.36935 8.8347 2.35336 8.71893C2.32084 8.4835 2.30101 8.24433 2.30101 8C2.30101 7.75567 2.32084 7.5165 2.35336 7.28107C2.36935 7.1653 2.32739 7.04853 2.23853 6.97263L1.21246 6.0964C1.08959 5.99147 1.05967 5.81353 1.14146 5.67417L2.52398 3.31902C2.60399 3.18272 2.76874 3.12134 2.91843 3.17207L4.21447 3.6113C4.32257 3.64793 4.44144 3.6261 4.53264 3.55747C4.92291 3.26385 5.35394 3.02151 5.81457 2.83396C5.92177 2.79031 6.00187 2.69725 6.02441 2.58372L6.28551 1.26843ZM8.00007 10.3333C9.28874 10.3333 10.3334 9.28867 10.3334 8C10.3334 6.71133 9.28874 5.66667 8.00007 5.66667C6.71141 5.66667 5.66674 6.71133 5.66674 8C5.66674 9.28867 6.71141 10.3333 8.00007 10.3333Z" fill="url(#paint0_linear_69_5318)" fill-opacity="0.6"/>
  <defs>
    <linearGradient id="paint0_linear_69_5318" x1="8.00009" y1="1" x2="8.00009" y2="15" gradientUnits="userSpaceOnUse">
      <stop stop-color="white"/>
      <stop offset="1" stop-color="white" stop-opacity="0.72"/>
    </linearGradient>
  </defs>
</svg>