<?xml version="1.0" standalone="no"?><!DOCTYPE svg PUBLIC "-//W3C//DTD SVG 1.1//EN" "http://www.w3.org/Graphics/SVG/1.1/DTD/svg11.dtd"><svg t="1710213344871" class="icon" viewBox="0 0 1024 1024" version="1.1" xmlns="http://www.w3.org/2000/svg" p-id="10882" xmlns:xlink="http://www.w3.org/1999/xlink" width="200" height="200"><path d="M841.216 151.04l-328.021333-114.346667c-3.584-1.194667-6.997333-1.194667-9.898667 0L148.48 156.330667c-1.194667 0.512-2.389333 0.512-3.584 1.194666-31.573333 19.285333-44.885333 45.568-39.765333 78.848V585.386667c0 1.194667 0 1.706667 0.512 2.389333 23.893333 173.397333 155.306667 306.346667 394.581333 398.677333 4.096 1.706667 8.192 1.706667 12.288 0 231.253333-94.72 363.178667-226.645333 395.776-395.946666V228.693333v-1.194666c-1.706667-36.693333-23.893333-61.781333-67.072-76.458667z m-10.581333 29.866667h0.512c27.477333 9.898667 43.178667 25.6 44.885333 48.981333v356.010667c-32.085333 156.330667-155.306667 279.04-370.005333 368.298666-221.696-87.04-344.917333-210.602667-368.810667-371.2V235.178667v-2.901334c-2.901333-19.797333 5.290667-34.474667 22.698667-46.08l347.818666-117.248L830.634667 180.906667z" p-id="10883"></path><path d="M294.4 352.426667c0 8.192 2.901333 15.189333 8.704 20.992s13.482667 8.704 21.674667 8.704c8.704 0 15.701333-2.901333 21.674666-8.704s8.704-12.8 8.704-20.992c0-8.704-2.901333-15.701333-8.704-21.674667-5.802667-5.802667-12.8-8.704-21.674666-8.704-8.192 0-15.701333 2.901333-21.674667 8.704-5.802667 5.973333-8.704 12.970667-8.704 21.674667zM303.104 470.357333c-5.802667 5.802667-8.704 12.8-8.704 20.992 0 8.704 2.901333 15.701333 8.704 21.674667s13.482667 8.704 21.674667 8.704c8.704 0 15.701333-2.901333 21.674666-8.704s8.704-12.8 8.704-21.674667c0-8.192-2.901333-15.189333-8.704-20.992s-12.8-8.704-21.674666-8.704c-8.192 0-15.872 2.901333-21.674667 8.704zM346.282667 607.573333c-5.802667-5.802667-12.8-8.704-21.674667-8.704-8.192 0-15.701333 2.901333-21.674667 8.704s-8.704 12.8-8.704 20.992c0 8.704 2.901333 15.701333 8.704 21.674667s13.482667 8.704 21.674667 8.704c8.704 0 15.701333-2.901333 21.674667-8.704s8.704-12.8 8.704-21.674667c0-8.192-2.901333-15.189333-8.704-20.992zM412.842667 336.042667c-4.608 0-8.192 1.706667-11.605334 4.608-2.901333 3.584-4.608 6.997333-4.608 11.605333 0 4.096 1.706667 8.192 4.608 11.093333 3.584 3.584 6.997333 4.608 11.605334 4.608h286.037333c4.096 0 8.192-1.194667 11.093333-4.608 3.584-2.901333 4.608-6.997333 4.608-11.093333 0-4.608-1.194667-8.192-4.608-11.605333-2.901333-2.901333-6.997333-4.608-11.093333-4.608H412.842667zM401.066667 479.061333c-2.901333 3.584-4.608 6.997333-4.608 11.605334 0 4.096 1.706667 8.192 4.608 11.093333 3.584 3.584 6.997333 4.608 11.605333 4.608h286.037333c4.096 0 8.192-1.194667 11.093334-4.608 3.584-2.901333 4.608-6.997333 4.608-11.093333 0-4.608-1.194667-8.192-4.608-11.605334-2.901333-2.901333-6.997333-4.608-11.093334-4.608H412.842667c-4.778667 0-8.192 1.706667-11.776 4.608zM709.802667 618.666667c-2.901333-3.584-6.997333-4.608-11.093334-4.608H412.842667c-4.608 0-8.192 1.194667-11.605334 4.608-2.901333 2.901333-4.608 6.997333-4.608 11.093333 0 4.608 1.706667 8.192 4.608 11.605333 3.584 2.901333 6.997333 4.608 11.605334 4.608h286.037333c4.096 0 8.192-1.706667 11.093333-4.608 3.584-3.584 4.608-6.997333 4.608-11.605333 0-4.096-1.194667-8.192-4.778666-11.093333z" p-id="10884"></path></svg>