<?xml version="1.0" standalone="no"?><!DOCTYPE svg PUBLIC "-//W3C//DTD SVG 1.1//EN" "http://www.w3.org/Graphics/SVG/1.1/DTD/svg11.dtd"><svg t="1710209423898" class="icon" viewBox="0 0 1024 1024" version="1.1" xmlns="http://www.w3.org/2000/svg" p-id="9891" xmlns:xlink="http://www.w3.org/1999/xlink" width="200" height="200"><path d="M330.334041 64.052245a20.897959 20.897959 0 1 1 14.837551 39.079184A454.426122 454.426122 0 0 0 52.244898 527.924245C52.244898 778.825143 255.623837 982.204082 506.524735 982.204082c250.88 0 454.279837-203.378939 454.279836-454.279837A454.426122 454.426122 0 0 0 667.961469 103.152327a20.897959 20.897959 0 1 1 14.837551-39.058286 496.201143 496.201143 0 0 1 319.80147 463.830204C1002.60049 801.89649 780.49698 1024 506.524735 1024S10.44898 801.89649 10.44898 527.924245C10.44898 320.198531 139.326694 136.672653 330.334041 64.052245zM491.102041 20.918857a20.897959 20.897959 0 1 1 41.795918 0v459.713306a20.897959 20.897959 0 1 1-41.795918 0V20.918857z" fill="#3F3C40" p-id="9892"></path></svg>