<svg xmlns="http://www.w3.org/2000/svg" width="16" height="16" viewBox="0 0 16 16" fill="none">
  <path fill-rule="evenodd" clip-rule="evenodd" d="M1.99967 1.33334C1.63148 1.33334 1.33301 1.63182 1.33301 2.00001V9.66668C1.33301 10.0349 1.63148 10.3333 1.99967 10.3333H13.9997C14.3679 10.3333 14.6663 10.0349 14.6663 9.66668V2.00001C14.6663 1.63182 14.3679 1.33334 13.9997 1.33334H1.99967ZM11.333 5.33334H4.99967V4.33334H8.99967V3.00001L11.333 5.33334ZM6.99967 7.33334H10.9997V6.33334H4.66634L6.99967 8.66668V7.33334Z" fill="#B6C2CD"/>
  <path d="M11.3333 5.33333H5V4.33333H9V3L11.3333 5.33333Z" fill="#324558"/>
  <path fill-rule="evenodd" clip-rule="evenodd" d="M7.33366 11.472V10.3333H8.66699V11.472C9.05146 11.64 9.36033 11.9489 9.52833 12.3333H13.3337V13.6667H9.52833C9.27113 14.2553 8.68376 14.6667 8.00033 14.6667C7.31689 14.6667 6.72953 14.2553 6.47233 13.6667H2.66699V12.3333H6.47233C6.64033 11.9489 6.94919 11.64 7.33366 11.472ZM8.66699 13C8.66699 13.3682 8.36853 13.6667 8.00033 13.6667C7.63213 13.6667 7.33366 13.3682 7.33366 13C7.33366 12.6318 7.63213 12.3333 8.00033 12.3333C8.36853 12.3333 8.66699 12.6318 8.66699 13Z" fill="#324558"/>
  <path d="M11.0003 7.33334H7.00033V8.66668L4.66699 6.33334H11.0003V7.33334Z" fill="#324558"/>
</svg>