<svg xmlns="http://www.w3.org/2000/svg" width="16" height="16" viewBox="0 0 16 16" fill="none">
  <path fill-rule="evenodd" clip-rule="evenodd" d="M2.66667 2C2.29848 2 2 2.29848 2 2.66667V13.3333C2 13.7015 2.29848 14 2.66667 14H13.3333C13.7015 14 14 13.7015 14 13.3333V2.66667C14 2.29848 13.7015 2 13.3333 2H2.66667ZM8.73273 5.15667L8.00227 7.184L7.2718 5.15667H5.87337L7.0726 7.94573H6.11947V8.6879H7.30307V9.07853H6.11947V9.8168H7.30307V10.8442H8.67023V9.8168H9.73273V9.07853H8.67023V8.6879H9.73273V7.94573H8.93197L10.1273 5.15667H8.73273Z" fill="#E4EBF1"/>
  <path fill-rule="evenodd" clip-rule="evenodd" d="M8.73278 5.15668L8.00231 7.18401L7.27185 5.15668H5.87341L7.07265 7.94574H6.11951V8.68791H7.30311V9.07854H6.11951V9.81681H7.30311V10.8442H8.67028V9.81681H9.73278V9.07854H8.67028V8.68791H9.73278V7.94574H8.93201L10.1273 5.15668H8.73278Z" fill="#324558"/>
</svg>