<svg xmlns="http://www.w3.org/2000/svg" width="16" height="16" viewBox="0 0 16 16" fill="none">
  <path fill-rule="evenodd" clip-rule="evenodd" d="M2.66667 2C2.29848 2 2 2.29848 2 2.66667V13.3333C2 13.7015 2.29848 14 2.66667 14H13.3333C13.7015 14 14 13.7015 14 13.3333V2.66667C14 2.29848 13.7015 2 13.3333 2H2.66667ZM10.3333 5.33333L8 7.33333V6C6.71133 6 5.66667 7.04467 5.66667 8.33333C5.66667 9.622 6.71133 10.6667 8 10.6667C9.28867 10.6667 10.3333 9.622 10.3333 8.33333H11.6667C11.6667 10.3584 10.025 12 8 12C5.97497 12 4.33333 10.3584 4.33333 8.33333C4.33333 6.3083 5.97497 4.66667 8 4.66667V3.33333L10.3333 5.33333Z" fill="#DBEAFE"/>
  <path d="M8.00004 7.33331L10.3334 5.33331L8.00004 3.33331V4.66665C5.97501 4.66665 4.33337 6.30828 4.33337 8.33331C4.33337 10.3583 5.97501 12 8.00004 12C10.0251 12 11.6667 10.3583 11.6667 8.33331H10.3334C10.3334 9.62198 9.28871 10.6666 8.00004 10.6666C6.71137 10.6666 5.66671 9.62198 5.66671 8.33331C5.66671 7.04465 6.71137 5.99998 8.00004 5.99998V7.33331Z" fill="#2563EB"/>
</svg>