<svg xmlns="http://www.w3.org/2000/svg" width="1em" height="1em" fill="currentColor" viewBox="0 0 20 20">
  <path
    fill="#B6C2CD"
    d="M5.11 9.817a.83.83 0 0 1 .822 0l3.021 1.714c.26.148.422.425.422.725v3.404c0 .3-.161.578-.422.726L5.932 18.1a.83.83 0 0 1-.823 0l-3.02-1.714a.84.84 0 0 1-.422-.726v-3.404c0-.3.161-.577.422-.725zM14.067 9.817a.83.83 0 0 1 .824 0l3.02 1.714c.26.148.422.425.422.725v3.404c0 .3-.161.578-.422.726l-3.02 1.714a.83.83 0 0 1-.824 0l-3.02-1.714a.83.83 0 0 1-.422-.726v-3.404c0-.3.161-.577.422-.725z"
  ></path>
  <path
    fill="#324558"
    d="M9.59 1.9a.83.83 0 0 1 .82 0l3.125 1.767a.83.83 0 0 1 .423.725V7.9c0 .3-.161.577-.423.725l-3.125 1.768a.83.83 0 0 1-.82 0L6.465 8.625a.83.83 0 0 1-.423-.725V4.392c0-.3.161-.577.423-.725z"
  ></path>
</svg>

