<svg t="1713174159181" class="icon" viewBox="0 0 1024 1024" version="1.1" xmlns="http://www.w3.org/2000/svg" p-id="4945" width="200" height="200"><path d="M512 63.7C265.5 63.7 63.7 265.5 63.7 512S265.5 960.3 512 960.3 960.3 758.5 960.3 512 758.5 63.7 512 63.7m0 768.5c-35.3-0.1-64-28.7-64-64 0-35.2 28.8-64 64-64s64 28.8 64 64-28.8 64-64 64m83.3-483.5s0 3.2 0 0c0 3.2-54.5 256.1-54.5 256.1s3.2-19.2 0 0-12.8 28.8-28.8 28.8-25.6-12.8-28.8-32c-6.4-19.2-54.5-246.5-54.5-246.5 0-6.4-3.2-12.8-3.2-16 0-48 38.4-86.5 86.5-86.5s86.5 38.4 86.5 86.5c0 0-3.2 6.4-3.2 9.6"  p-id="4946"></path></svg>