<?xml version="1.0" standalone="no"?><!DOCTYPE svg PUBLIC "-//W3C//DTD SVG 1.1//EN" "http://www.w3.org/Graphics/SVG/1.1/DTD/svg11.dtd"><svg t="1711080607649" class="icon" viewBox="0 0 1024 1024" version="1.1" xmlns="http://www.w3.org/2000/svg" p-id="2068" xmlns:xlink="http://www.w3.org/1999/xlink" width="200" height="200"><path d="M864 256m-128 0a128 128 0 1 0 256 0 128 128 0 1 0-256 0Z" fill="#F56C6C" p-id="2069"></path><path d="M765.8 406.8L512 576 160 341.4V256l352 234.6 202.2-134.8c-19-28.6-30.2-63-30.2-99.8 0-35.2 10.2-68.2 27.8-96H149.4C102.4 160 64 198.4 64 245.4v533.4c0 47 38.4 85.4 85.4 85.4h725.4c47 0 85.4-38.4 85.4-85.4V408.2c-27.8 17.6-60.8 27.8-96 27.8-36.4 0-70.2-10.8-98.4-29.2z" fill="#F56C6C" p-id="2070"></path></svg>