<svg xmlns="http://www.w3.org/2000/svg" width="24" height="24" viewBox="16 12 24 24" fill="none">
  <g filter="url(#filter0_d_69_6912)">
    <g clip-path="url(#clip0_69_6912)">
      <rect x="16" y="12" width="24" height="24" rx="12" fill="white" fill-opacity="0.08" shape-rendering="crispEdges"/>
      <path fill-rule="evenodd" clip-rule="evenodd" d="M20.2568 31.813C21.4688 28.9995 24.4874 27 28 27C31.5126 27 34.5312 28.9995 35.7432 31.813C33.7554 33.7831 31.0198 35 28 35C24.9802 35 22.2446 33.7831 20.2568 31.813Z" fill="#67707A"/>
      <g filter="url(#filter1_d_69_6912)">
        <path d="M23 23C23 24.3261 23.5268 25.5979 24.4645 26.5355C25.4021 27.4732 26.6739 28 28 28C29.3261 28 30.5979 27.4732 31.5355 26.5355C32.4732 25.5979 33 24.3261 33 23C33 21.6739 32.4732 20.4021 31.5355 19.4645C30.5979 18.5268 29.3261 18 28 18C26.6739 18 25.4021 18.5268 24.4645 19.4645C23.5268 20.4021 23 21.6739 23 23Z" fill="#CBCED1"/>
      </g>
    </g>
    <rect x="16.5" y="12.5" width="23" height="23" rx="11.5" stroke="url(#paint0_linear_69_6912)" shape-rendering="crispEdges"/>
  </g>
  <defs>
    <filter id="filter0_d_69_6912" x="0" y="0" width="56" height="56" filterUnits="userSpaceOnUse" color-interpolation-filters="sRGB">
      <feFlood flood-opacity="0" result="BackgroundImageFix"/>
      <feColorMatrix in="SourceAlpha" type="matrix" values="0 0 0 0 0 0 0 0 0 0 0 0 0 0 0 0 0 0 127 0" result="hardAlpha"/>
      <feOffset dy="4"/>
      <feGaussianBlur stdDeviation="8"/>
      <feComposite in2="hardAlpha" operator="out"/>
      <feColorMatrix type="matrix" values="0 0 0 0 0.087794 0 0 0 0 0.121351 0 0 0 0 0.360625 0 0 0 0.08 0"/>
      <feBlend mode="normal" in2="BackgroundImageFix" result="effect1_dropShadow_69_6912"/>
      <feBlend mode="normal" in="SourceGraphic" in2="effect1_dropShadow_69_6912" result="shape"/>
    </filter>
    <filter id="filter1_d_69_6912" x="7" y="6" width="42" height="42" filterUnits="userSpaceOnUse" color-interpolation-filters="sRGB">
      <feFlood flood-opacity="0" result="BackgroundImageFix"/>
      <feColorMatrix in="SourceAlpha" type="matrix" values="0 0 0 0 0 0 0 0 0 0 0 0 0 0 0 0 0 0 127 0" result="hardAlpha"/>
      <feOffset dy="4"/>
      <feGaussianBlur stdDeviation="8"/>
      <feComposite in2="hardAlpha" operator="out"/>
      <feColorMatrix type="matrix" values="0 0 0 0 1 0 0 0 0 1 0 0 0 0 1 0 0 0 0.64 0"/>
      <feBlend mode="normal" in2="BackgroundImageFix" result="effect1_dropShadow_69_6912"/>
      <feBlend mode="normal" in="SourceGraphic" in2="effect1_dropShadow_69_6912" result="shape"/>
    </filter>
    <linearGradient id="paint0_linear_69_6912" x1="28" y1="12" x2="28" y2="36" gradientUnits="userSpaceOnUse">
      <stop stop-color="white" stop-opacity="0.32"/>
      <stop offset="1" stop-color="white" stop-opacity="0.08"/>
    </linearGradient>
    <clipPath id="clip0_69_6912">
      <rect x="16" y="12" width="24" height="24" rx="12" fill="white"/>
    </clipPath>
  </defs>
</svg>