<svg width="16" height="16" viewBox="0 0 16 16" fill="none" xmlns="http://www.w3.org/2000/svg">
<path d="M3.33341 1.3335C2.96522 1.3335 2.66675 1.63197 2.66675 2.00016V14.0002C2.66675 14.3684 2.96522 14.6668 3.33341 14.6668H11.0503C10.948 14.5818 10.8473 14.4914 10.7492 14.3956C9.98425 13.6489 9.33341 12.5319 9.33341 11.0305V8.55243L13.1667 6.9125L13.3334 6.9838V2.00016C13.3334 1.63197 13.0349 1.3335 12.6667 1.3335H3.33341Z" fill="#B6C2CD"/>
<path d="M4.66675 3.3335H9.33342V4.66683H4.66675V3.3335Z" fill="#324558"/>
<path d="M4.66675 6H7.33341V7.33333H4.66675V6Z" fill="#324558"/>
<path fill-rule="evenodd" clip-rule="evenodd" d="M13.1666 8L10.3333 9.21213V11.0303C10.3333 13.403 12.3604 14.5109 13.1666 14.6667C13.9728 14.5109 15.9999 13.403 15.9999 11.0303V9.21213L13.1666 8ZM15.3646 10.342L12.8123 13.0644L11.3017 11.4531L12.0312 10.7691L12.8123 11.6023L14.635 9.65803L15.3646 10.342Z" fill="#324558"/>
</svg>
