<svg width="20" height="20" viewBox="0 0 20 20" fill="none" xmlns="http://www.w3.org/2000/svg">
<path fill-rule="evenodd" clip-rule="evenodd" d="M4.16667 2.5H15.8333L17.5 4.16667V15.8333L15.8333 17.5H4.16667L2.5 15.8333V4.16667L4.16667 2.5ZM4.16667 4.16667H5.41667V5.41667H4.16667V4.16667ZM7.5 4.16667H8.75V5.41667H7.5V4.16667ZM7.5 7.5H12.5V12.5H7.5V7.5ZM11.25 4.16667H12.5V5.41667H11.25V4.16667ZM14.5833 4.16667H15.8333V5.41667H14.5833V4.16667ZM4.16667 7.5H5.41667V8.75H4.16667V7.5ZM14.5833 7.5H15.8333V8.75H14.5833V7.5ZM4.16667 11.25H5.41667V12.5H4.16667V11.25ZM14.5833 11.25H15.8333V12.5H14.5833V11.25ZM4.16667 14.5833H5.41667V15.8333H4.16667V14.5833ZM7.5 14.5833H8.75V15.8333H7.5V14.5833ZM11.25 14.5833H12.5V15.8333H11.25V14.5833ZM14.5833 14.5833H15.8333V15.8333H14.5833V14.5833Z" fill="#B6C2CD"/>
<path d="M4.1665 4.16669H5.4165V5.41669H4.1665V4.16669Z" fill="#324558"/>
<path d="M7.5 4.16669H8.75V5.41669H7.5V4.16669Z" fill="#324558"/>
<path d="M12.5 7.5H7.5V12.5H12.5V7.5Z" fill="#324558"/>
<path d="M11.25 4.16669H12.5V5.41669H11.25V4.16669Z" fill="#324558"/>
<path d="M15.8335 4.16669H14.5835V5.41669H15.8335V4.16669Z" fill="#324558"/>
<path d="M4.1665 7.5H5.4165V8.75H4.1665V7.5Z" fill="#324558"/>
<path d="M15.8335 7.5H14.5835V8.75H15.8335V7.5Z" fill="#324558"/>
<path d="M4.1665 11.25H5.4165V12.5H4.1665V11.25Z" fill="#324558"/>
<path d="M15.8335 11.25H14.5835V12.5H15.8335V11.25Z" fill="#324558"/>
<path d="M4.1665 14.5833H5.4165V15.8333H4.1665V14.5833Z" fill="#324558"/>
<path d="M8.75 14.5833H7.5V15.8333H8.75V14.5833Z" fill="#324558"/>
<path d="M11.25 14.5833H12.5V15.8333H11.25V14.5833Z" fill="#324558"/>
<path d="M15.8335 14.5833H14.5835V15.8333H15.8335V14.5833Z" fill="#324558"/>
</svg>
