<svg width="16" height="16" viewBox="0 0 16 16" fill="none" xmlns="http://www.w3.org/2000/svg">
    <path d="M8.00008 3.66669L11.7529 5.83335V10.1667L8.33021 12.1428V9.16669L4.24731 6.80942V5.83335L8.00008 3.66669Z" fill="url(#paint0_linear_59_11802)"/>
    <path d="M7.33021 9.74404V11.9466L4.24731 10.1667V7.96411L7.33021 9.74404Z" fill="url(#paint1_linear_59_11802)"/>
    <path fill-rule="evenodd" clip-rule="evenodd" d="M7.66658 1.19241C7.87285 1.07332 8.12698 1.07332 8.33325 1.19241L13.7288 4.30751C13.935 4.42658 14.0621 4.64668 14.0621 4.88485V11.115C14.0621 11.3532 13.935 11.5733 13.7288 11.6924L8.33325 14.8075C8.12698 14.9266 7.87285 14.9266 7.66658 14.8075L2.27108 11.6924C2.06481 11.5733 1.93774 11.3532 1.93774 11.115V4.88485C1.93774 4.64668 2.06481 4.42658 2.27108 4.30751L7.66658 1.19241ZM3.27108 5.26975L7.99992 2.53956L12.7288 5.26975V10.7301L7.99992 13.4603L3.27108 10.7301V5.26975Z" fill="url(#paint2_linear_59_11802)"/>
    <defs>
        <linearGradient id="paint0_linear_59_11802" x1="8.0001" y1="3.66669" x2="8.0001" y2="12.1428" gradientUnits="userSpaceOnUse">
            <stop stop-color="white"/>
            <stop offset="1" stop-color="white" stop-opacity="0.72"/>
        </linearGradient>
        <linearGradient id="paint1_linear_59_11802" x1="5.78876" y1="7.96411" x2="5.78876" y2="11.9466" gradientUnits="userSpaceOnUse">
            <stop stop-color="white"/>
            <stop offset="1" stop-color="white" stop-opacity="0.72"/>
        </linearGradient>
        <linearGradient id="paint2_linear_59_11802" x1="7.99991" y1="1.10309" x2="7.99991" y2="14.8968" gradientUnits="userSpaceOnUse">
            <stop stop-color="white"/>
            <stop offset="1" stop-color="white" stop-opacity="0.72"/>
        </linearGradient>
    </defs>
</svg>