<svg width="16" height="16" viewBox="0 0 16 16" fill="none" xmlns="http://www.w3.org/2000/svg">
<path fill-rule="evenodd" clip-rule="evenodd" d="M8.33325 1.19234C8.12698 1.07325 7.87285 1.07325 7.66658 1.19234L2.27108 4.30745C2.06481 4.42652 1.93774 4.64662 1.93774 4.88479V11.115C1.93774 11.3532 2.06481 11.5733 2.27108 11.6924L7.66658 14.8075C7.87285 14.9265 8.12698 14.9265 8.33325 14.8075L13.7288 11.6924C13.935 11.5733 14.0621 11.3532 14.0621 11.115V4.88479C14.0621 4.64662 13.935 4.42652 13.7288 4.30745L8.33325 1.19234ZM11.9999 4.66658L7.99992 2.33325L3.99992 4.66658L7.99992 6.99992L11.9999 4.66658ZM7.37238 8.81625L3.35175 6.49495L3.34658 7.64668L7.36722 9.96799L7.37238 8.81625ZM3.34135 8.82228L3.33618 9.97398L7.35678 12.2953L7.36195 11.1436L3.34135 8.82228Z" fill="#B6C2CD"/>
<path d="M12 4.66659L8 2.33325L4 4.66659L8 6.99992L12 4.66659Z" fill="#324558"/>
<path d="M7.37248 8.81642L3.35185 6.49512L3.34668 7.64685L7.36731 9.96815L7.37248 8.81642Z" fill="#324558"/>
<path d="M3.33618 9.97397L3.34135 8.82227L7.36195 11.1436L7.35678 12.2953L3.33618 9.97397Z" fill="#324558"/>
</svg>
