<svg width="48" height="48" viewBox="0 0 48 48" fill="none" xmlns="http://www.w3.org/2000/svg">
<path fill-rule="evenodd" clip-rule="evenodd" d="M39 34V12H9L3 18V38C3 39.1046 3.89543 40 5 40H33L39 34ZM29 16H36V19H29V16ZM29 22H36V25H29V22ZM16 36C21.5228 36 26 31.5228 26 26C26 20.4772 21.5228 16 16 16C10.4772 16 6 20.4772 6 26C6 31.5228 10.4772 36 16 36Z" fill="#B6C2CD"/>
<path d="M39 6H43C44.1046 6 45 6.89543 45 8V40C45 41.1046 44.1046 42 43 42H39V6Z" fill="#324558"/>
<path d="M12 40V42H6V40H12Z" fill="#324558"/>
<path d="M21 40V42H15V40H21Z" fill="#324558"/>
<path d="M30 42V40H24V42H30Z" fill="#324558"/>
<path d="M36 16H29V19H36V16Z" fill="#324558"/>
<path d="M29 22H36V25H29V22Z" fill="#324558"/>
<path d="M12.1687 20.1406L14.9183 24.3175C15.2301 24.1166 15.6014 24 15.9999 24C16.3956 24 16.7645 24.115 17.0749 24.3132L19.8245 20.1363C18.7252 19.4177 17.4113 19 15.9999 19C14.5857 19 13.2694 19.4194 12.1687 20.1406Z" fill="#324558"/>
<path d="M22.9879 25.584L17.9972 25.8905C17.9991 25.9267 18.0001 25.9632 18.0001 25.9999C18.0001 26.7869 17.5456 27.4677 16.8848 27.7941L19.1275 32.2642C21.4236 31.1156 23.0001 28.7419 23.0001 25.9999C23.0001 25.8603 22.996 25.7216 22.9879 25.584Z" fill="#324558"/>
<path d="M15.0954 27.7841L12.8651 32.2603C10.5731 31.1103 9 28.7388 9 25.9998C9 25.8604 9.00408 25.7219 9.01212 25.5845L14.0029 25.8909C14.001 25.927 14 25.9633 14 25.9998C14 26.7789 14.4454 27.4539 15.0954 27.7841Z" fill="#324558"/>
</svg>
