<svg width="16" height="16" viewBox="0 0 16 16" fill="none" xmlns="http://www.w3.org/2000/svg">
<g clip-path="url(#clip0_399_13182)">
<path fill-rule="evenodd" clip-rule="evenodd" d="M2.66675 2.00016C2.66675 1.63197 2.96522 1.3335 3.33341 1.3335H12.6667C13.0349 1.3335 13.3334 1.63197 13.3334 2.00016V7.05113C13.1161 7.01756 12.8934 7.00016 12.6667 7.00016C10.2735 7.00016 8.33341 8.94026 8.33341 11.3335C8.33341 12.6738 8.94191 13.872 9.89771 14.6668H3.33341C2.96522 14.6668 2.66675 14.3684 2.66675 14.0002V2.00016ZM9.33341 3.3335H4.66675V4.66683H9.33341V3.3335ZM7.33341 6.00016H4.66675V7.3335H7.33341V6.00016Z" fill="#B6C2CD"/>
<path d="M4.66675 3.3335H9.33342V4.66683H4.66675V3.3335Z" fill="#324558"/>
<path d="M4.66675 6H7.33341V7.33333H4.66675V6Z" fill="#324558"/>
<path fill-rule="evenodd" clip-rule="evenodd" d="M15.9999 11.3333C15.9999 13.1743 14.5075 14.6667 12.6666 14.6667C10.8257 14.6667 9.33325 13.1743 9.33325 11.3333C9.33325 9.4924 10.8257 8 12.6666 8C14.5075 8 15.9999 9.4924 15.9999 11.3333ZM12.6666 9L13.3876 10.4264L14.9999 10.6552L13.8333 11.7655L14.1087 13.3333L12.6666 12.5931L11.2245 13.3333L11.4999 11.7655L10.3333 10.6552L11.9456 10.4264L12.6666 9Z" fill="#324558"/>
</g>
<defs>
<clipPath id="clip0_399_13182">
<rect width="16" height="16" fill="white"/>
</clipPath>
</defs>
</svg>
