<svg width="16" height="16" viewBox="0 0 16 16" fill="none" xmlns="http://www.w3.org/2000/svg">
<path fill-rule="evenodd" clip-rule="evenodd" d="M4 2.66675V12.0001H7V13.0001H8V12.0001H9V13.0001H10V12.0001H11V13.0001H12V12.0001H13.3333C13.7015 12.0001 14 11.7016 14 11.3334V3.33341C14 2.96522 13.7015 2.66675 13.3333 2.66675H4ZM9 5.66675H12.3333V9.00008H9V7.83341H6.86623C6.6933 8.13231 6.37013 8.33341 6 8.33341C5.4477 8.33341 5 7.88571 5 7.33341C5 6.78111 5.4477 6.33341 6 6.33341C6.37013 6.33341 6.6933 6.53451 6.86623 6.83341H9V5.66675Z" fill="#B6C2CD"/>
<path d="M2 2.66667C2 2.29848 2.29848 2 2.66667 2H4V14H2.66667C2.29848 14 2 13.7015 2 13.3333V2.66667Z" fill="#324558"/>
<path d="M13 12H12V13H11V12H10V13H9V12H8V13H7V12H6V14H13V12Z" fill="#324558"/>
<path d="M12.3333 5.66675H9V6.83341H6.86623C6.6933 6.53451 6.37013 6.33341 6 6.33341C5.4477 6.33341 5 6.78111 5 7.33341C5 7.88571 5.4477 8.33341 6 8.33341C6.37013 8.33341 6.6933 8.13231 6.86623 7.83341H9V9.00008H12.3333V5.66675Z" fill="#324558"/>
</svg>
