<svg width="40" height="40" viewBox="0 0 40 40" fill="none" xmlns="http://www.w3.org/2000/svg">
<path fill-rule="evenodd" clip-rule="evenodd" d="M24.0237 3.3335C23.5816 3.3335 23.1577 3.50909 22.8452 3.82165L4.51184 22.155C3.86096 22.8058 3.86096 23.8612 4.51183 24.512L15.4881 35.4883C16.139 36.1392 17.1943 36.1392 17.8452 35.4883L36.1785 17.155C36.491 16.8424 36.6666 16.4185 36.6666 15.9765V4.16683C36.6666 3.7066 36.2935 3.3335 35.8333 3.3335H24.0237ZM33.3333 10.0002C33.3333 11.8411 31.841 13.3335 30 13.3335C28.159 13.3335 26.6666 11.8411 26.6666 10.0002C26.6666 8.15921 28.159 6.66683 30 6.66683C31.841 6.66683 33.3333 8.15921 33.3333 10.0002Z" fill="#B6C2CD"/>
<path d="M29.9998 13.3332C31.8408 13.3332 33.3332 11.8408 33.3332 9.99984C33.3332 8.15889 31.8408 6.6665 29.9998 6.6665C28.1589 6.6665 26.6665 8.15889 26.6665 9.99984C26.6665 11.8408 28.1589 13.3332 29.9998 13.3332Z" fill="#324558"/>
<path d="M27.9357 35.0654L20.311 33.0224L33.8314 19.502L29.977 33.8869C29.7388 34.776 28.8249 35.3036 27.9357 35.0654Z" fill="#324558"/>
</svg>
