<svg data-v-c7dfa2ae="" xmlns="http://www.w3.org/2000/svg" width="1em" height="1em" fill="currentColor" viewBox="0 0 20 20"><path fill="#B6C2CD" fill-rule="evenodd" d="M3.333 3.334a.833.833 0 0 0-.833.833v4.167c0 .46.373.833.833.833h13.334c.46 0 .833-.373.833-.833V4.167a.833.833 0 0 0-.833-.833zm2.5 2.083H4.167v1.667h1.666zm3.334 0H7.5v1.667h1.667zM3.333 10.834a.833.833 0 0 0-.833.833v4.167c0 .46.373.833.833.833h13.334c.46 0 .833-.373.833-.834v-4.166a.833.833 0 0 0-.833-.833zm2.5 2.083H4.167v1.667h1.666zm3.334 0H7.5v1.667h1.667z" clip-rule="evenodd"></path><path fill="#324558" d="M9.167 1.667h1.666v1.666H9.167zM9.167 9.167h1.666v1.666H9.167zM9.167 16.667h1.666v1.666H9.167zM5.833 5.417H4.167v1.666h1.666zM4.167 12.917h1.666v1.666H4.167zM9.167 12.917H7.5v1.666h1.667zM7.5 5.417h1.667v1.666H7.5z"></path></svg>
