<svg data-v-c7dfa2ae="" xmlns="http://www.w3.org/2000/svg" width="1em" height="1em" fill="currentColor" viewBox="0 0 20 20"><path fill="#B6C2CD" fill-rule="evenodd" d="M4.167 15.834h1.666v-1.667h2.084l1.25 1.25v.417H17.5c.46 0 .833-.374.833-.834V5l-1.666-1.666h-12.5zm1.666-9.167h3.334v1.25H5.833zm3.334 2.5H5.833v1.25h3.334zm1.666-2.5h6.25v3.75h-6.25zm0 5.417h1.25v1.25h-1.25zm2.5 0h1.25v1.25h-1.25zm2.5 0h1.25v1.25h-1.25z" clip-rule="evenodd"></path><path fill="#324558" d="M2.5 2.5a.833.833 0 0 0-.833.833v13.334c0 .46.373.833.833.833h1.667v-15zM5.833 6.667h3.334v1.25H5.833zM5.833 9.167h3.334v1.25H5.833zM10.833 6.667h6.25v3.75h-6.25zM12.083 12.084h-1.25v1.25h1.25zM13.333 12.084h1.25v1.25h-1.25zM17.083 12.084h-1.25v1.25h1.25z"></path></svg>