<svg width="16" height="16" viewBox="0 0 16 16" fill="none" xmlns="http://www.w3.org/2000/svg">
<path fill-rule="evenodd" clip-rule="evenodd" d="M2 2.66667C2 2.29848 2.29848 2 2.66667 2H13.3333C13.7015 2 14 2.29848 14 2.66667V7.5H2V2.66667ZM4 3.66667H5V5.66667H4V3.66667ZM6.33333 3.66667H7.33333V5.66667H6.33333V3.66667ZM8.66667 3.66667H9.66667V5.66667H8.66667V3.66667ZM11 3.66667H12V5.66667H11V3.66667Z" fill="#B6C2CD"/>
<path d="M4 3.6665H5V5.6665H4V3.6665Z" fill="#324558"/>
<path d="M6.33325 3.6665H7.33325V5.6665H6.33325V3.6665Z" fill="#324558"/>
<path d="M8.66675 3.6665H9.66675V5.6665H8.66675V3.6665Z" fill="#324558"/>
<path d="M11 3.6665H12V5.6665H11V3.6665Z" fill="#324558"/>
<path fill-rule="evenodd" clip-rule="evenodd" d="M14 8.5H2V13.3333C2 13.7015 2.29848 14 2.66667 14H13.3333C13.7015 14 14 13.7015 14 13.3333V8.5ZM5 10.3333H4V12.3333H5V10.3333ZM6.33333 10.3333H7.33333V12.3333H6.33333V10.3333Z" fill="#324558"/>
</svg>
