<svg width="16" height="16" viewBox="0 0 16 16" fill="none" xmlns="http://www.w3.org/2000/svg">
<path fill-rule="evenodd" clip-rule="evenodd" d="M6.99992 2.43276C4.69709 2.89659 2.96288 4.93103 2.96288 7.37053V10.7845L2.33325 12.6668H13.6666L13.037 10.7845V7.37053C13.037 4.93103 11.3028 2.89659 8.99992 2.43276C8.67672 2.36766 8.34232 2.3335 7.99992 2.3335C7.65752 2.3335 7.32312 2.36766 6.99992 2.43276ZM8.49992 7.41683V4.66683L5.99992 7.91683H7.49992V10.6668L9.99992 7.41683H8.49992Z" fill="#B6C2CD"/>
<path d="M8 0.666504C7.4477 0.666504 7 1.11422 7 1.6665V2.43243C7.3232 2.36733 7.6576 2.33317 8 2.33317C8.3424 2.33317 8.6768 2.36733 9 2.43243V1.6665C9 1.11422 8.5523 0.666504 8 0.666504Z" fill="#324558"/>
<path d="M5.69038 12.6665C5.67481 12.7754 5.66675 12.8867 5.66675 12.9998C5.66675 14.2885 6.71141 15.3332 8.00008 15.3332C9.28875 15.3332 10.3334 14.2885 10.3334 12.9998C10.3334 12.8867 10.3253 12.7754 10.3098 12.6665H5.69038Z" fill="#324558"/>
<path d="M8.5 4.6665V7.4165H10L7.5 10.6665V7.9165H6L8.5 4.6665Z" fill="#324558"/>
</svg>
