<svg width="16" height="16" viewBox="0 0 16 16" fill="none" xmlns="http://www.w3.org/2000/svg">
<path d="M4.74565 7.85348C4.54155 7.73764 4.29162 7.73764 4.08752 7.85348L1.67085 9.22511C1.46218 9.34354 1.33325 9.56494 1.33325 9.80488V12.5285C1.33325 12.7684 1.46218 12.9899 1.67085 13.1083L4.08752 14.4799C4.29162 14.5958 4.54155 14.5958 4.74565 14.4799L7.16232 13.1083C7.37099 12.9899 7.49992 12.7684 7.49992 12.5285V9.80488C7.49992 9.56494 7.37099 9.34351 7.16232 9.22511L4.74565 7.85348Z" fill="#B6C2CD"/>
<path d="M11.9124 7.85348C11.7083 7.73764 11.4584 7.73764 11.2543 7.85348L8.8376 9.22511C8.62893 9.34354 8.5 9.56494 8.5 9.80488V12.5285C8.5 12.7684 8.62893 12.9899 8.8376 13.1083L11.2543 14.4799C11.4584 14.5958 11.7083 14.5958 11.9124 14.4799L14.3291 13.1083C14.5377 12.9899 14.6667 12.7684 14.6667 12.5285V9.80488C14.6667 9.56494 14.5377 9.34351 14.3291 9.22511L11.9124 7.85348Z" fill="#B6C2CD"/>
<path d="M7.67162 1.51905C7.87532 1.40381 8.12452 1.40381 8.32822 1.51905L10.8282 2.93352C11.0373 3.05183 11.1666 3.2735 11.1666 3.51377V6.31953C11.1666 6.55977 11.0373 6.78143 10.8282 6.89977L8.32822 8.31423C8.12452 8.42947 7.87532 8.42947 7.67162 8.31423L5.17162 6.89977C4.96252 6.78143 4.83325 6.55977 4.83325 6.31953V3.51377C4.83325 3.2735 4.96252 3.05183 5.17162 2.93352L7.67162 1.51905Z" fill="#324558"/>
</svg>
