<svg width="16" height="16" viewBox="0 0 16 16" fill="none" xmlns="http://www.w3.org/2000/svg">
<path d="M9 5.6665C9 6.2188 8.5523 6.6665 8 6.6665C7.4477 6.6665 7 6.2188 7 5.6665C7 5.1142 7.4477 4.6665 8 4.6665C8.5523 4.6665 9 5.1142 9 5.6665Z" fill="#B6C2CD"/>
<path fill-rule="evenodd" clip-rule="evenodd" d="M3 2.00016C3 1.63197 3.29848 1.3335 3.66667 1.3335H12.3333C12.7015 1.3335 13 1.63197 13 2.00016V10.9321L12.6387 11.0676L8 12.9231L3.3613 11.0676L3 10.9321V2.00016ZM9.33333 7.58193C9.93783 7.1603 10.3333 6.45973 10.3333 5.66683C10.3333 4.37816 9.28867 3.3335 8 3.3335C6.71133 3.3335 5.66667 4.37816 5.66667 5.66683C5.66667 6.45973 6.06217 7.1603 6.66667 7.58193V9.66683L8 8.50016L9.33333 9.66683V7.58193Z" fill="#B6C2CD"/>
<path fill-rule="evenodd" clip-rule="evenodd" d="M10.3334 5.66683C10.3334 6.45973 9.93791 7.1603 9.33341 7.58193V9.66683L8.00008 8.50016L6.66675 9.66683V7.58193C6.06225 7.1603 5.66675 6.45973 5.66675 5.66683C5.66675 4.37816 6.71141 3.3335 8.00008 3.3335C9.28875 3.3335 10.3334 4.37816 10.3334 5.66683ZM8.00008 6.66683C8.55238 6.66683 9.00008 6.21913 9.00008 5.66683C9.00008 5.11453 8.55238 4.66683 8.00008 4.66683C7.44778 4.66683 7.00008 5.11453 7.00008 5.66683C7.00008 6.21913 7.44778 6.66683 8.00008 6.66683Z" fill="#324558"/>
<path d="M13.0001 12L8.00008 14L3.00008 12L1.66675 11.5V12.9027L8.00008 15.436L14.3334 12.9027V11.5L13.0001 12Z" fill="#324558"/>
</svg>
