<svg width="20" height="20" viewBox="0 0 20 20" fill="none" xmlns="http://www.w3.org/2000/svg">
<path fill-rule="evenodd" clip-rule="evenodd" d="M16.25 14.1667V5H3.75L1.25 7.5V15.8333C1.25 16.2936 1.6231 16.6667 2.08333 16.6667H13.75L16.25 14.1667ZM12.0833 6.66667H15V7.91667H12.0833V6.66667ZM12.0833 9.16667H15V10.4167H12.0833V9.16667ZM6.66667 15C8.96783 15 10.8333 13.1345 10.8333 10.8333C10.8333 8.53217 8.96783 6.66667 6.66667 6.66667C4.3655 6.66667 2.5 8.53217 2.5 10.8333C2.5 13.1345 4.3655 15 6.66667 15Z" fill="white"/>
<path d="M16.25 2.5H17.9167C18.3769 2.5 18.75 2.8731 18.75 3.33333V16.6667C18.75 17.1269 18.3769 17.5 17.9167 17.5H16.25V2.5Z" fill="white" fill-opacity="0.4"/>
<path d="M5 16.6667V17.5001H2.5V16.6667H5Z" fill="white" fill-opacity="0.4"/>
<path d="M8.75 16.6667V17.5001H6.25V16.6667H8.75Z" fill="white" fill-opacity="0.4"/>
<path d="M12.5 17.5001V16.6667H10V17.5001H12.5Z" fill="white" fill-opacity="0.4"/>
<path d="M14.9999 6.66675H12.0833V7.91675H14.9999V6.66675Z" fill="white" fill-opacity="0.4"/>
<path d="M12.0833 9.16675H14.9999V10.4167H12.0833V9.16675Z" fill="white" fill-opacity="0.4"/>
<path d="M5.07031 8.392L6.21598 10.1324C6.3459 10.0487 6.5006 10.0001 6.66665 10.0001C6.83152 10.0001 6.98523 10.048 7.11456 10.1306L8.26023 8.39021C7.80219 8.09079 7.25473 7.91675 6.66665 7.91675C6.0774 7.91675 5.52894 8.0915 5.07031 8.392Z" fill="white" fill-opacity="0.4"/>
<path d="M9.57836 10.6602L7.4989 10.7879C7.49969 10.8029 7.50011 10.8182 7.50011 10.8334C7.50011 11.1614 7.31073 11.445 7.0354 11.581L7.96986 13.4436C8.92657 12.965 9.58344 11.9759 9.58344 10.8334C9.58344 10.7753 9.58173 10.7175 9.57836 10.6602Z" fill="white" fill-opacity="0.4"/>
<path d="M6.28975 11.5769L5.36046 13.442C4.40546 12.9628 3.75 11.9747 3.75 10.8334C3.75 10.7754 3.7517 10.7177 3.75505 10.6604L5.83454 10.7881C5.83375 10.8031 5.83333 10.8182 5.83333 10.8334C5.83333 11.1581 6.01892 11.4393 6.28975 11.5769Z" fill="white" fill-opacity="0.4"/>
</svg>
