<svg xmlns="http://www.w3.org/2000/svg" width="1em" height="1em" fill="currentColor" viewBox="0 0 21 20">
  <path fill="#B6C2CD" fill-rule="evenodd" d="M4.367 3.333a.833.833 0 0 0-.834.833v11.667c0 .46.373.833.834.833h11.666c.46 0 .834-.373.834-.833V4.166a.833.833 0 0 0-.834-.833zM7.7 7.5h5v5h-5z" clip-rule="evenodd"/>
  <path fill="#324558" d="M6.033 1.667H7.7v1.667H6.033zM1.867 5.833h1.666V7.5H1.867zM3.533 9.167H1.867v1.667h1.666zM1.867 12.5h1.666v1.667H1.867zM18.533 5.833h-1.666V7.5h1.666zM16.867 9.167h1.666v1.667h-1.666zM18.533 12.5h-1.666v1.667h1.666zM9.367 1.667h1.666v1.667H9.367zM14.367 1.667H12.7v1.667h1.667zM6.033 16.667H7.7v1.667H6.033zM11.033 16.667H9.367v1.667h1.666zM12.7 16.667h1.667v1.667H12.7zM12.7 7.5h-5v5h5z"/>
</svg>
