<svg width="16" height="16" viewBox="0 0 16 16" fill="none" xmlns="http://www.w3.org/2000/svg">
<path d="M2.66667 1.3335C2.29848 1.3335 2 1.63197 2 2.00016V9.3335C2 9.7017 2.29848 10.0002 2.66667 10.0002H6.33333V5.00016H8.66667V2.00016C8.66667 1.63197 8.3682 1.3335 8 1.3335H2.66667Z" fill="#324558" fill-opacity="0.4"/>
<path fill-rule="evenodd" clip-rule="evenodd" d="M7.33325 6H13.3333C13.7015 6 13.9999 6.29847 13.9999 6.66667V14C13.9999 14.3682 13.7015 14.6667 13.3333 14.6667H7.99992C7.63172 14.6667 7.33325 14.3682 7.33325 14V6ZM11.1666 10.0833V7.33333L8.66659 10.5833H10.1666V13.3333L12.6666 10.0833H11.1666Z" fill="#324558" fill-opacity="0.4"/>
<path d="M9.66675 2.4082V3.4617C10.5095 3.7713 11.2422 4.309 11.7899 4.99997H13.0039C12.262 3.76517 11.0759 2.8276 9.66675 2.4082Z" fill="#324558"/>
<path d="M6.33348 13.5918C4.92428 13.1724 3.73825 12.2348 2.99634 11H4.21028C4.75798 11.691 5.49065 12.2287 6.33348 12.5383V13.5918Z" fill="#324558"/>
<path d="M11.1667 7.3335V10.0835H12.6667L10.1667 13.3335V10.5835H8.66675L11.1667 7.3335Z" fill="#324558"/>
</svg>
