<svg width="20" height="20" viewBox="0 0 20 20" fill="none" xmlns="http://www.w3.org/2000/svg">
  <path
    fill="#B6C2CD"
    d="M5.932 9.817a.83.83 0 0 0-.823 0L2.09 11.53a.83.83 0 0 0-.422.725v3.404c0 .3.16.577.422.725l3.02 1.715a.83.83 0 0 0 .823 0l3.021-1.715a.83.83 0 0 0 .422-.725v-3.404c0-.3-.161-.577-.422-.725zM14.89 9.817a.83.83 0 0 0-.822 0l-3.021 1.714a.83.83 0 0 0-.422.725v3.404c0 .3.161.577.422.725l3.02 1.715a.83.83 0 0 0 .823 0l3.021-1.715a.83.83 0 0 0 .422-.725v-3.404c0-.3-.16-.577-.422-.725z"
  />
  <path
    fill="#324558"
    d="M9.59 1.9a.83.83 0 0 1 .82 0l3.125 1.767a.83.83 0 0 1 .423.725V7.9c0 .3-.161.577-.423.725l-3.125 1.768a.83.83 0 0 1-.82 0L6.465 8.625a.83.83 0 0 1-.423-.725V4.392c0-.3.161-.577.423-.725z"
  />
</svg>
