<svg xmlns="http://www.w3.org/2000/svg" width="16" height="16" viewBox="0 0 16 16" fill="none">
  <path fill-rule="evenodd" clip-rule="evenodd" d="M2 2.66667C2 2.29848 2.29848 2 2.66667 2H13.3333C13.7015 2 14 2.29848 14 2.66667V13.3333C14 13.7015 13.7015 14 13.3333 14H5V12.6667C5 11.7462 4.2538 11 3.33333 11H2V2.66667ZM6.01547 7.5H4.3671C4.5691 6.0188 5.65563 4.81907 7.077 4.45053C6.5072 5.0444 6.09833 6.17097 6.01547 7.5ZM7.4802 5.6188C7.24993 6.07937 7.0725 6.73277 7.01767 7.5H8.98233C8.9275 6.73277 8.75007 6.07937 8.5198 5.6188C8.3805 5.3402 8.24047 5.16903 8.13263 5.0778C8.08107 5.03417 8.04403 5.01483 8.0243 5.00677C8.01457 5.00277 8.0084 5.00123 8.00543 5.00063C8.0026 5.00007 8.00107 5 8 5C7.99893 5 7.9974 5.00007 7.99457 5.00063C7.9916 5.00123 7.98543 5.00277 7.9757 5.00677C7.95597 5.01483 7.91893 5.03417 7.86737 5.0778C7.75953 5.16903 7.6195 5.3402 7.4802 5.6188ZM4.3671 8.5C4.56907 9.98127 5.65567 11.1811 7.0771 11.5496C6.50727 10.9557 6.09833 9.82913 6.01547 8.5H4.3671ZM8.5198 10.3812C8.75007 9.92063 8.9275 9.26723 8.98233 8.5H7.01767C7.0725 9.26723 7.24993 9.92063 7.4802 10.3812C7.6195 10.6598 7.75953 10.831 7.86737 10.9222C7.91893 10.9658 7.95597 10.9852 7.9757 10.9932C7.98543 10.9972 7.9916 10.9988 7.99457 10.9994C7.9974 10.9999 7.99893 11 8 11C8.00107 11 8.0026 10.9999 8.00543 10.9994C8.0084 10.9988 8.01457 10.9972 8.0243 10.9932C8.04403 10.9852 8.08107 10.9658 8.13263 10.9222C8.24047 10.831 8.3805 10.6598 8.5198 10.3812ZM9.98453 8.5C9.90167 9.8291 9.49273 10.9557 8.92293 11.5496C10.3443 11.181 11.4309 9.98123 11.6328 8.5H9.98453ZM11.6328 7.5C11.4309 6.01883 10.3444 4.8191 8.92303 4.45053C9.4928 5.04443 9.90167 6.17097 9.98453 7.5H11.6328Z" fill="#B6C2CD"/>
  <path d="M6.01555 7.5H4.36719C4.56919 6.0188 5.65572 4.81906 7.07709 4.45053C6.50729 5.0444 6.09842 6.17096 6.01555 7.5Z" fill="#324558"/>
  <path d="M7.48011 5.6188C7.24984 6.07937 7.07241 6.73277 7.01758 7.5H8.98224C8.92741 6.73277 8.74998 6.07937 8.51971 5.6188C8.38041 5.3402 8.24038 5.16903 8.13254 5.0778C8.08098 5.03417 8.04395 5.01483 8.02421 5.00677C8.01448 5.00277 8.00831 5.00123 8.00534 5.00063C8.00251 5.00007 8.00098 5 7.99991 5C7.99884 5 7.99731 5.00007 7.99448 5.00063C7.99151 5.00123 7.98534 5.00277 7.97561 5.00677C7.95588 5.01483 7.91885 5.03417 7.86728 5.0778C7.75945 5.16903 7.61941 5.3402 7.48011 5.6188Z" fill="#324558"/>
  <path d="M7.07719 11.5496C5.65575 11.1811 4.56915 9.98127 4.36719 8.5H6.01555C6.09842 9.82913 6.50735 10.9557 7.07719 11.5496Z" fill="#324558"/>
  <path d="M8.51971 10.3812C8.74998 9.92063 8.92741 9.26723 8.98224 8.5H7.01758C7.07241 9.26723 7.24984 9.92063 7.48011 10.3812C7.61941 10.6598 7.75945 10.831 7.86728 10.9222C7.91885 10.9658 7.95588 10.9852 7.97561 10.9932C7.98534 10.9972 7.99151 10.9988 7.99448 10.9994C7.99731 10.9999 7.99884 11 7.99991 11C8.00098 11 8.00251 10.9999 8.00534 10.9994C8.00831 10.9988 8.01448 10.9972 8.02421 10.9932C8.04395 10.9852 8.08098 10.9658 8.13254 10.9222C8.24038 10.831 8.38041 10.6598 8.51971 10.3812Z" fill="#324558"/>
  <path d="M8.92285 11.5496C9.49265 10.9557 9.90158 9.8291 9.98445 8.5H11.6328C11.4308 9.98123 10.3443 11.181 8.92285 11.5496Z" fill="#324558"/>
  <path d="M11.6327 7.5C11.4307 6.01883 10.3442 4.8191 8.92285 4.45053C9.49262 5.04443 9.90148 6.17096 9.98435 7.5H11.6327Z" fill="#324558"/>
  <path d="M3.33333 12H2V13.3333C2 13.7015 2.29848 14 2.66667 14H4V12.6667C4 12.2985 3.70153 12 3.33333 12Z" fill="#324558"/>
</svg>