<svg t="1710225894344" class="icon" viewBox="0 0 1024 1024" version="1.1" xmlns="http://www.w3.org/2000/svg" p-id="4039" width="200" height="200"><path d="M192 832a32 32 0 0 0 0 64h640a32 32 0 0 0 0-64H192z m0-64h640a96 96 0 0 1 0 192H192a96 96 0 0 1 0-192z"  p-id="4040"></path><path d="M816 208m-48 0a48 48 0 1 0 96 0 48 48 0 1 0-96 0Z"  p-id="4041"></path><path d="M208 208m-48 0a48 48 0 1 0 96 0 48 48 0 1 0-96 0Z"  p-id="4042"></path><path d="M480 608a32 32 0 0 1 64 0v160a32 32 0 0 1-64 0v-160z"  p-id="4043"></path><path d="M512 640a112 112 0 1 1 0-224 112 112 0 0 1 0 224z m0-64a48 48 0 1 0 0-96 48 48 0 0 0 0 96zM864 480a32 32 0 0 1 0-64h96a32 32 0 0 1 0 64h-96zM64 480a32 32 0 0 1 0-64h96a32 32 0 0 1 0 64H64zM480 64a32 32 0 0 1 64 0v96a32 32 0 0 1-64 0V64z"  p-id="4044"></path><path d="M272.448 800h-64v-288a304 304 0 0 1 608 0v288h-64v-288a240 240 0 0 0-480 0v288z"  p-id="4045"></path></svg>