<svg width="220" height="51" viewBox="0 0 220 51" fill="none" xmlns="http://www.w3.org/2000/svg">
<g id="logo">
<path id="Fill 14" fill-rule="evenodd" clip-rule="evenodd" d="M53.0225 50.469H220V0.000488281H53.0225V50.469ZM55.2111 48.2751H217.811V2.19451H55.2111V48.2751Z" fill="#22B4A6"/>
<path id="Fill 15" fill-rule="evenodd" clip-rule="evenodd" d="M45.6185 16.1784H29.6326V24.3154H43.3712V29.4502H29.6326V39.4231H24.055V11.0471H45.6185V16.1784ZM13.9741 14.3434C11.9334 14.3434 10.5598 13.5518 10.5598 11.421C10.5598 9.29374 11.9334 8.5434 13.9741 8.5434C15.971 8.5434 17.3026 9.29374 17.3026 11.421C17.3026 13.5518 15.971 14.3434 13.9741 14.3434ZM11.0186 39.4232H16.8456V17.5984H11.0186V39.4232ZM0 50.4685H53.0214V0H0V50.4685Z" fill="#22B4A6"/>
<path id="Fill 16" fill-rule="evenodd" clip-rule="evenodd" d="M75.2859 34.415C78.9506 34.415 81.6549 33.1232 83.5704 31.6181L86.3193 35.7498C83.3638 38.4651 79.5739 39.8412 75.2456 39.8412C66.7948 39.8412 60.4249 33.5383 60.4249 25.2337C60.4249 16.929 66.7948 10.6288 75.2456 10.6288C79.5739 10.6288 83.3638 12.0057 86.3193 14.721L83.5704 18.8492C81.6549 17.3476 78.9506 16.0523 75.2859 16.0523C70.0419 16.0523 66.4604 20.1024 66.4604 25.2337C66.4604 30.3684 70.0419 34.415 75.2859 34.415Z" fill="#22B4A6"/>
<path id="Fill 17" fill-rule="evenodd" clip-rule="evenodd" d="M91.7866 39.4235V11.0474H97.6137V34.3334H112.311V39.4235H91.7866Z" fill="#22B4A6"/>
<path id="Fill 18" fill-rule="evenodd" clip-rule="evenodd" d="M129.016 34.3739C134.222 34.3739 137.842 30.4081 137.842 25.2777C137.842 20.0613 134.222 16.1788 129.016 16.1788C123.897 16.1788 120.192 20.0613 120.192 25.2777C120.192 30.4081 123.897 34.3739 129.016 34.3739ZM128.974 10.6289C137.344 10.6289 143.588 16.8879 143.588 25.2777C143.588 33.5823 137.344 39.8404 128.974 39.8404C120.69 39.8404 114.446 33.5823 114.446 25.2777C114.446 16.8879 120.69 10.6289 128.974 10.6289Z" fill="#22B4A6"/>
<path id="Fill 19" fill-rule="evenodd" clip-rule="evenodd" d="M154.97 27.0721C154.97 31.5776 157.257 34.4587 161.962 34.4587C166.749 34.4587 169.081 31.4109 169.081 27.0273V11.0472H174.908V27.4459C174.908 34.1226 170.414 39.8822 161.962 39.8822C153.594 39.8822 149.14 34.6658 149.14 27.4459V11.0472H154.97V27.0721Z" fill="#22B4A6"/>
<path id="Fill 20" fill-rule="evenodd" clip-rule="evenodd" d="M187.999 16.1372V34.3332H194.12C199.324 34.3332 202.944 31.1186 202.944 25.2773C202.944 19.3518 199.324 16.1372 194.12 16.1372H187.999ZM182.172 11.0472H194.368C202.737 11.0876 208.981 16.0521 208.981 25.2774C208.981 34.4149 202.737 39.4233 194.368 39.4233H182.172V11.0472Z" fill="#22B4A6"/>
</g>
</svg>
