<?xml version="1.0" encoding="UTF-8"?><svg id="_图层_2" xmlns="http://www.w3.org/2000/svg" viewBox="0 0 428 89.3"><defs><style>.cls-1{fill:#00a971;}.cls-2{fill:#fff;}</style></defs><g id="_图层_1-2"><g><g><g><polygon class="cls-1" points="68.09 72.39 48.35 61 48.35 83.79 68.09 72.39"/><polygon class="cls-1" points="68.09 16.9 48.35 5.51 48.35 28.3 68.09 16.9"/><polygon class="cls-1" points="20.04 44.65 38.62 33.92 38.62 0 0 22.3 0 67 38.62 89.3 38.62 55.38 20.04 44.65"/></g><polygon class="cls-1" points="38.75 44.65 77.31 66.91 77.31 22.39 38.75 44.65"/></g><g><path class="cls-2" d="M325.52,21.04h-3.94c-.86,0-1.58,.72-1.58,1.58v18.34h-12.68V22.61c0-.86-.64-1.58-1.58-1.58h-3.94c-.86,0-1.58,.72-1.58,1.58v43.99c0,.86,.72,1.58,1.58,1.58h3.94c.93,0,1.58-.72,1.58-1.58v-18.56h12.68v18.56c0,.86,.72,1.58,1.58,1.58h3.94c.93,0,1.58-.72,1.58-1.58V22.61c0-.86-.64-1.58-1.58-1.58Z"/><path class="cls-2" d="M230.51,62.66c0-.86-.72-1.58-1.58-1.58h-17.79s0-12.93,0-12.93h17.79c.86,0,1.58-.64,1.58-1.58v-3.94c0-.86-.72-1.58-1.58-1.58h-17.79s0-12.93,0-12.93h17.79c.86,0,1.58-.64,1.58-1.58v-3.94c0-.86-.72-1.58-1.58-1.58h-19.37s0,0,0,0h-3.94c-.86,0-1.58,.72-1.58,1.58v43.99c0,.86,.72,1.58,1.58,1.58h1.71s0,0,0,0h21.6c.86,0,1.58-.64,1.58-1.58v-3.94Z"/><path class="cls-2" d="M360.85,62.66c0-.86-.72-1.58-1.58-1.58h-17.79s0-12.93,0-12.93h17.79c.86,0,1.58-.64,1.58-1.58v-3.94c0-.86-.72-1.58-1.58-1.58h-17.79s0-12.93,0-12.93h17.79c.86,0,1.58-.64,1.58-1.58v-3.94c0-.86-.72-1.58-1.58-1.58h-19.37s0,0,0,0h-3.94c-.86,0-1.58,.72-1.58,1.58v43.99c0,.86,.72,1.58,1.58,1.58h1.71s0,0,0,0h21.6c.86,0,1.58-.64,1.58-1.58v-3.94Z"/><path class="cls-2" d="M428,62.66c0-.86-.72-1.58-1.58-1.58h-17.79s0-12.93,0-12.93h17.79c.86,0,1.58-.64,1.58-1.58v-3.94c0-.86-.72-1.58-1.58-1.58h-17.79s0-12.93,0-12.93h17.79c.86,0,1.58-.64,1.58-1.58v-3.94c0-.86-.72-1.58-1.58-1.58h-19.37s0,0,0,0h-3.94c-.86,0-1.58,.72-1.58,1.58v43.99c0,.86,.72,1.58,1.58,1.58h1.71s0,0,0,0h21.6c.86,0,1.58-.64,1.58-1.58v-3.94Z"/><path class="cls-2" d="M243.38,32.9v2.69c0,2.05,1.98,3.26,4.25,4.18l9.42,3.96c3.54,1.56,6.02,4.32,6.02,8.57v5.03c0,4.18-8.78,11.19-13.45,11.19-3.19,0-8-2.27-11.75-4.32-.85-.43-1.42-1.42-.92-2.55l1.2-2.41c.5-.99,1.56-1.2,2.48-.71,3.04,1.56,7.08,3.47,8.99,3.47,2.12,0,6.59-3.61,6.59-5.67v-3.12c0-2.41-1.84-3.75-4.39-4.74l-8.78-3.68c-3.4-1.42-6.51-4.32-6.51-8.28v-4.6c0-4.6,9.28-11.26,13.74-11.26,2.97,0,7.79,2.19,10.98,3.89,.99,.5,1.27,1.63,.85,2.48l-1.13,2.41c-.35,.85-1.49,1.13-2.48,.71-2.41-1.13-6.44-2.97-8.21-2.97-2.05,0-6.87,3.4-6.87,5.73Z"/><path class="cls-2" d="M381.38,49.12h-6.66v17.48c0,.93-.65,1.58-1.65,1.58h-3.8c-.86,0-1.65-.64-1.65-1.58V24.33c0-1.65,1.93-3.3,3.51-3.3h11.46c5.23,0,12.17,8.16,12.17,13.53,0,3.58-3.14,8.97-6.51,11.05,2.72,1.43,6.45,5.23,6.45,8.74v12.25c0,.86-.72,1.58-1.58,1.58h-3.94c-.86,0-1.58-.72-1.58-1.58v-11.18c0-2.51-3.51-6.31-6.23-6.31Zm.29-21.92h-6.95v15.76h7.02c2.94,0,6.38-5.23,6.38-8.02s-3.58-7.74-6.45-7.74Z"/><path class="cls-2" d="M282.36,49.12h-6.66v17.48c0,.93-.65,1.58-1.65,1.58h-3.8c-.86,0-1.65-.64-1.65-1.58V24.33c0-1.65,1.93-3.3,3.51-3.3h11.46c5.23,0,11.85,8.41,11.85,13.78,0,3.58-2.65,8.4-5.72,11.19-1.51,1.37-3.9,3.11-7.35,3.11Zm.29-21.92h-6.95v15.76h7.02c2.94,0,5.97-5.23,5.97-8.02s-3.17-7.74-6.04-7.74Z"/><path class="cls-2" d="M150.35,68.6c-4.72,0-13.54-5.97-13.54-11.12V22.92c0-.86,.78-1.57,1.65-1.57h3.78c.92,0,1.64,.71,1.64,1.57V56.55c0,2.5,4.26,5.54,6.48,5.54s6.51-3.42,6.51-5.92V22.53c0-.86,.64-1.57,1.5-1.57h3.92c.86,0,1.65,.71,1.65,1.57V57.1c0,5-8.87,11.5-13.58,11.5Z"/><path class="cls-2" d="M191.41,43.82c3.26-2.15,6.55-6.33,6.55-9.8,0-5.37-7.31-12.99-12.54-12.99h-11.22c-1.58,0-3.51,1.65-3.51,3.3v42.27c0,.93,.79,1.58,1.65,1.58h13.33c5.23,0,12.3-8.8,12.3-14.18,0-3.47-3.29-8.01-6.55-10.19Zm-13.62-16.62h6.71c2.87,0,6.45,4.1,6.45,6.83s-3.44,7.36-6.38,7.36h-6.78v-14.18Zm6.71,34.82h-6.71v-15.76h6.78c2.94,0,6.38,4.95,6.38,7.75s-3.58,8.01-6.45,8.01Z"/><path class="cls-2" d="M114.9,44.87l15.6-18.07c.56-.65,.54-1.61-.16-2.22l-2.98-2.58c-.65-.56-1.66-.49-2.22,.16l-13.64,15.8v-15.35c0-.86-.64-1.58-1.58-1.58h-3.94c-.86,0-1.58,.72-1.58,1.58v43.99c0,.86,.72,1.58,1.58,1.58h3.94c.93,0,1.58-.72,1.58-1.58v-14.83l13.64,15.8c.56,.65,1.57,.72,2.22,.16l2.98-2.58c.71-.61,.72-1.57,.16-2.22l-15.6-18.07Z"/></g></g></g></svg>