<?xml version="1.0" encoding="UTF-8"?>
<svg id="_图层_1" data-name="图层 1" xmlns="http://www.w3.org/2000/svg" viewBox="0 0 700 130">
  <defs>
    <style>
      .cls-1 {
        fill: #fff;
      }

      .cls-2 {
        fill: #50b4ff;
      }
    </style>
  </defs>
  <g>
    <path class="cls-1" d="M237.33,85.91h-12.6v29.16h-16.56V31.07h33.6c15.48,0,27.96,12.48,27.96,27.84,0,10.56-6.6,20.04-16.2,24.48l18.6,31.68h-17.88l-16.92-29.16Zm-12.6-14.52h17.04c6.24,0,11.4-5.52,11.4-12.48s-5.16-12.36-11.4-12.36h-17.04v24.84Z"/>
    <path class="cls-1" d="M276.33,38.39c0-5.16,4.32-9.6,9.48-9.6s9.6,4.44,9.6,9.6-4.32,9.48-9.6,9.48-9.48-4.32-9.48-9.48Zm1.8,16.68h15.48v60h-15.48V55.07Z"/>
    <path class="cls-1" d="M349.53,97.55c0,12.96-11.28,19.2-24.12,19.2-12,0-20.88-5.04-25.2-14.28l13.44-7.56c1.68,4.92,5.76,7.8,11.76,7.8,4.92,0,8.28-1.68,8.28-5.16,0-8.76-30.96-3.96-30.96-25.08,0-12.24,10.44-19.08,22.8-19.08,9.72,0,18.12,4.44,22.8,12.72l-13.2,7.2c-1.8-3.84-5.16-6.12-9.6-6.12-3.84,0-6.96,1.68-6.96,4.92,0,8.88,30.96,3.36,30.96,25.44Z"/>
    <path class="cls-1" d="M385.65,102.71c6,0,10.8-2.52,13.44-6l12.48,7.2c-5.64,8.16-14.64,12.84-26.16,12.84-20.16,0-32.88-13.8-32.88-31.68s12.84-31.68,31.68-31.68c17.76,0,30.36,14.04,30.36,31.68,0,2.28-.24,4.32-.6,6.36h-45.24c2.16,7.92,8.76,11.28,16.92,11.28Zm13.44-23.28c-1.92-8.64-8.4-12.12-14.88-12.12-8.28,0-13.92,4.44-15.72,12.12h30.6Z"/>
    <path class="cls-1" d="M442.65,31.07h18l20.52,64.56,20.4-64.56h18.12l-28.32,84h-20.52l-28.2-84Z"/>
    <path class="cls-1" d="M568.88,99.95h-33.48l-5.04,15.12h-17.88l29.4-84h20.52l29.52,84h-18l-5.04-15.12Zm-5.16-15.48l-11.52-34.32-11.52,34.32h23.04Z"/>
    <path class="cls-1" d="M590.85,95.99l14.16-8.28c3,7.8,8.88,12.84,19.32,12.84s13.44-4.2,13.44-8.88c0-6.24-5.64-8.64-18.12-12.24-12.84-3.72-25.32-9.12-25.32-25.08s13.2-24.96,27.6-24.96,24.36,7.08,30,18.84l-13.92,8.04c-3-6.36-7.56-10.8-16.08-10.8-6.96,0-11.04,3.6-11.04,8.4,0,5.16,3.24,7.92,15.96,11.76,13.32,4.2,27.48,8.64,27.48,25.8,0,15.72-12.6,25.32-30.48,25.32s-28.44-8.28-33-20.76Z"/>
    <path class="cls-1" d="M714.69,46.91h-22.68V115.07h-16.56V46.91h-22.56v-15.84h61.8v15.84Z"/>
  </g>
  <g>
    <path class="cls-2" d="M131.59,134H58.56c-2.42,0-4.65-1.29-5.86-3.39L19.65,73.39c-1.21-2.09-1.21-4.68,0-6.77L52.69,9.39c1.21-2.09,3.44-3.39,5.86-3.39H124.64c2.42,0,4.65,1.29,5.86,3.39l33.04,57.23c1.21,2.09,1.21,4.68,0,6.77l-18.48,32.01c-1.28,2.22-4.48,2.26-5.82,.07l-10.01-16.36c-1.29-2.12-1.33-4.77-.09-6.92l6.06-10.5c.6-1.05,.6-2.34,0-3.39l-20.34-35.23c-.6-1.05-1.72-1.69-2.93-1.69h-40.67c-1.21,0-2.33,.65-2.93,1.69l-20.34,35.23c-.6,1.05-.6,2.34,0,3.39l20.34,35.23c.6,1.05,1.72,1.69,2.93,1.69h27.74l-18.95-32.17,21.87-12.89,35.49,60.24c2.66,4.51-.59,10.21-5.83,10.21Z"/>
    <path class="cls-2" d="M131.6,134H61.99v-25.39h37.03l-15.27-25.92H15.86c-2.44,0-4.7-1.32-5.9-3.45L.44,62.35c-1.27-2.26,.36-5.05,2.95-5.05H94.39c2.4,0,4.62,1.27,5.83,3.33l37.21,63.15c2.66,4.51-.59,10.21-5.83,10.21Z"/>
  </g>
</svg>