<?xml version="1.0" standalone="no"?><!DOCTYPE svg PUBLIC "-//W3C//DTD SVG 1.1//EN" "http://www.w3.org/Graphics/SVG/1.1/DTD/svg11.dtd"><svg t="1710383860925" class="icon" viewBox="0 0 1024 1024" version="1.1" xmlns="http://www.w3.org/2000/svg" p-id="36040" xmlns:xlink="http://www.w3.org/1999/xlink" width="200" height="200"><path d="M409.6 128c11.1104 0 20.48 9.3696 20.48 20.48v732.16c0 11.1104-9.3696 20.48-20.48 20.48H148.48c-11.1104 0-20.48-9.3696-20.48-20.48V148.48c0-11.1104 9.3696-20.48 20.48-20.48h261.12m0-40.96H148.48c-33.792 0-61.44 27.648-61.44 61.44v732.16c0 33.792 27.648 61.44 61.44 61.44h261.12c33.792 0 61.44-27.648 61.44-61.44V148.48c0-33.792-27.648-61.44-61.44-61.44zM875.52 128c11.1104 0 20.48 9.3696 20.48 20.48v261.12c0 11.1104-9.3696 20.48-20.48 20.48h-261.12c-11.1104 0-20.48-9.3696-20.48-20.48V148.48c0-11.1104 9.3696-20.48 20.48-20.48h261.12m0-40.96h-261.12c-33.792 0-61.44 27.648-61.44 61.44v261.12c0 33.792 27.648 61.44 61.44 61.44h261.12c33.792 0 61.44-27.648 61.44-61.44V148.48c0-33.792-27.648-61.44-61.44-61.44zM875.52 593.92c11.1104 0 20.48 9.3696 20.48 20.48v261.12c0 11.1104-9.3696 20.48-20.48 20.48h-261.12c-11.1104 0-20.48-9.3696-20.48-20.48v-261.12c0-11.1104 9.3696-20.48 20.48-20.48h261.12m0-40.96h-261.12c-33.792 0-61.44 27.648-61.44 61.44v261.12c0 33.792 27.648 61.44 61.44 61.44h261.12c33.792 0 61.44-27.648 61.44-61.44v-261.12c0-33.792-27.648-61.44-61.44-61.44z"  p-id="36041"></path></svg>