<?xml version="1.0" standalone="no"?><!DOCTYPE svg PUBLIC "-//W3C//DTD SVG 1.1//EN" "http://www.w3.org/Graphics/SVG/1.1/DTD/svg11.dtd"><svg t="1711010418058" class="icon" viewBox="0 0 1024 1024" version="1.1" xmlns="http://www.w3.org/2000/svg" p-id="1619" xmlns:xlink="http://www.w3.org/1999/xlink" width="200" height="200"><path d="M960 640h-96v-192c0-19.2-12.8-32-32-32h-288v-32h96c19.2 0 32-12.8 32-32V96c0-19.2-12.8-32-32-32h-256c-19.2 0-32 12.8-32 32v256c0 19.2 12.8 32 32 32h96v32H192c-19.2 0-32 12.8-32 32v192H64c-19.2 0-32 12.8-32 32v256c0 19.2 12.8 32 32 32h256c19.2 0 32-12.8 32-32v-256c0-19.2-12.8-32-32-32H224v-160h576v160h-96c-19.2 0-32 12.8-32 32v256c0 19.2 12.8 32 32 32h256c19.2 0 32-12.8 32-32v-256c0-19.2-12.8-32-32-32zM416 128h192v192h-192V128zM288 704v192H96v-192h192z m640 192h-192v-192h192v192z" p-id="1620"></path></svg>